<svg width="16" height="16" viewBox="0 0 16 16" fill="none" xmlns="http://www.w3.org/2000/svg">
<g id="Group 612">
<path id="Subtract" fill-rule="evenodd" clip-rule="evenodd" d="M8.84336 0.859477C9.22079 0.619826 9.63393 0.5 10.0828 0.5C10.5316 0.5 10.9447 0.619826 11.3222 0.859477C11.6996 1.08824 11.9954 1.40414 12.2096 1.80719C12.4341 2.21024 12.5463 2.65142 12.5463 3.13072V4.71569C12.5463 5.1841 12.4341 5.61983 12.2096 6.02288C11.9954 6.42593 11.6996 6.74728 11.3222 6.98693C10.9447 7.22658 10.5316 7.34641 10.0828 7.34641C9.83773 7.34641 9.60333 7.31069 9.37958 7.23926C9.37963 7.23141 9.37965 7.22354 9.37965 7.21568V5.63071C9.37965 4.99131 9.22881 4.38463 8.92144 3.82921C8.62773 3.28005 8.21314 2.83351 7.68359 2.5102C7.73656 2.26422 7.82222 2.02989 7.94058 1.80719C8.165 1.40414 8.46593 1.08824 8.84336 0.859477ZM12.1427 13H14.2141C14.5712 13 14.8721 12.8638 15.1169 12.5915C15.3719 12.3192 15.4994 11.9978 15.4994 11.6275C15.4994 11.2571 15.4382 10.9575 15.3158 10.7288C15.1016 10.3584 14.7956 10.0153 14.3977 9.69935C13.9183 9.30719 13.3521 9.00218 12.6993 8.78431C11.924 8.52288 11.0518 8.39216 10.0828 8.39216C9.7705 8.39216 9.46829 8.40573 9.17614 8.43288C9.10823 8.62721 9.02333 8.81674 8.92144 9.00084C8.6901 9.43342 8.38478 9.80398 8.00912 10.1045C8.29757 10.1673 8.57824 10.2444 8.85081 10.3363C9.60308 10.5875 10.2769 10.9461 10.8586 11.4207C11.3342 11.7993 11.7283 12.2328 12.0148 12.7281L12.0231 12.7424L12.0309 12.7569C12.0733 12.8361 12.1104 12.9173 12.1427 13Z" fill="#F9FAFA"/>
<path id="I" d="M5.91667 3C5.46783 3 5.05469 3.11983 4.67726 3.35948C4.29983 3.58824 3.9989 3.90414 3.77448 4.30719C3.56026 4.71024 3.45315 5.15142 3.45315 5.63072V7.21569C3.45315 7.6841 3.56026 8.11983 3.77448 8.52288C3.9989 8.92593 4.29983 9.24728 4.67726 9.48693C5.05469 9.72658 5.46783 9.84641 5.91667 9.84641C6.36551 9.84641 6.77864 9.72658 7.15607 9.48693C7.53351 9.24728 7.82933 8.92593 8.04355 8.52288C8.26797 8.11983 8.38018 7.6841 8.38018 7.21569V5.63072C8.38018 5.15142 8.26797 4.71024 8.04355 4.30719C7.82933 3.90414 7.53351 3.58824 7.15607 3.35948C6.77864 3.11983 6.36551 3 5.91667 3ZM5.91667 15.5H1.78531C1.42828 15.5 1.12225 15.3638 0.867232 15.0915C0.622411 14.8192 0.5 14.4978 0.5 14.1275C0.5 13.7571 0.561205 13.4575 0.683616 13.2288C0.897834 12.8584 1.20386 12.5153 1.60169 12.1993C2.08114 11.8072 2.64728 11.5022 3.30014 11.2843C4.07541 11.0229 4.94758 10.8922 5.91667 10.8922C6.88575 10.8922 7.75793 11.0229 8.53319 11.2843C9.18605 11.5022 9.7522 11.8072 10.2316 12.1993C10.6295 12.5153 10.9355 12.8584 11.1497 13.2288C11.2721 13.4575 11.3333 13.7571 11.3333 14.1275C11.3333 14.4978 11.2058 14.8192 10.9508 15.0915C10.706 15.3638 10.4051 15.5 10.048 15.5H5.91667Z" fill="#F9FAFA"/>
</g>
</svg>
