<svg width="24" height="24" viewBox="0 0 24 24" xmlns="http://www.w3.org/2000/svg">
<path fill-rule="evenodd" clip-rule="evenodd" d="M3.48231 11.3914C3.78202 11.1055 4.25676 11.1167 4.54267 11.4164L7.89528 14.9307L7.92492 14.9015C8.21995 14.6108 8.69481 14.6143 8.98555 14.9093C9.2763 15.2043 9.27282 15.6792 8.9778 15.9699L8.40522 16.5342C8.26204 16.6753 8.06821 16.753 7.86721 16.7499C7.66621 16.7468 7.47487 16.6631 7.33611 16.5177L3.45733 12.4517C3.17141 12.152 3.1826 11.6773 3.48231 11.3914ZM10.7724 13.0278C10.4747 12.7398 10.4668 12.265 10.7548 11.9673L15.0973 7.47854C15.3853 7.18084 15.8601 7.17297 16.1578 7.46097C16.4555 7.74897 16.4634 8.22378 16.1754 8.52149L11.8329 13.0103C11.5449 13.308 11.0701 13.3158 10.7724 13.0278Z"/>
<path fill-rule="evenodd" clip-rule="evenodd" d="M7.10282 11.4073C7.39373 11.1125 7.86859 11.1092 8.16346 11.4002L11.7622 14.9507L19.478 7.46183C19.7752 7.17334 20.25 7.18043 20.5385 7.47766C20.827 7.77489 20.8199 8.24971 20.5227 8.5382L12.2803 16.5382C11.9876 16.8223 11.5215 16.8204 11.2312 16.5339L7.10998 12.468C6.81512 12.177 6.81191 11.7022 7.10282 11.4073Z" />
</svg>
