<svg xmlns="http://www.w3.org/2000/svg" width="91" height="93" viewBox="0 0 91 93" fill="none">
  <path fill-rule="evenodd" clip-rule="evenodd" d="M10.5 34.9995L0.5 44.9995H10.5V34.9995ZM73 44.9995V36.9362L73.5373 36.5574H74.5579L83 44.9995H73Z" fill="url(#paint0_linear_1930_138773)"/>
  <path fill-rule="evenodd" clip-rule="evenodd" d="M83 44.9995H0.5V84.5828C0.5 88.9551 4.01776 92.4995 8.35714 92.4995H75.1429C79.4822 92.4995 83 88.9551 83 84.5828V44.9995ZM31.64 79.1283C30.7717 78.2587 30.7717 76.8489 31.64 75.9794L38.8595 68.7494L31.6378 61.5172C30.7696 60.6477 30.7696 59.2379 31.6378 58.3684C32.5061 57.4988 33.9138 57.4988 34.7821 58.3684L42.0038 65.6006L49.2258 58.368C50.0941 57.4984 51.5018 57.4984 52.3701 58.368C53.2384 59.2375 53.2384 60.6473 52.3701 61.5168L45.148 68.7494L52.3679 75.9798C53.2362 76.8493 53.2362 78.2591 52.3679 79.1286C51.4997 79.9982 50.0919 79.9982 49.2237 79.1286L42.0038 71.8982L34.7843 79.1282C33.916 79.9978 32.5083 79.9978 31.64 79.1283Z" fill="url(#paint1_linear_1930_138773)"/>
  <path fill-rule="evenodd" clip-rule="evenodd" d="M58 12.3606C58 9.6759 60.2047 7.49951 62.9242 7.49951H85.5758C88.2953 7.49951 90.5 9.67591 90.5 12.3606V31.696C90.5 34.3808 88.2953 36.5572 85.5758 36.5572H73.5373L65.1094 42.4995V36.5572H62.9242C60.2047 36.5572 58 34.3808 58 31.696V12.3606ZM84.5915 22.0829C84.5915 27.4524 80.1822 31.8051 74.743 31.8051C69.3038 31.8051 64.8945 27.4524 64.8945 22.0829C64.8945 16.7135 69.3038 12.3607 74.743 12.3607C80.1822 12.3607 84.5915 16.7135 84.5915 22.0829ZM75.5734 28.2685C72.4161 28.2685 69.8041 25.9637 69.3696 22.9656H81.7771C81.3426 25.9637 78.7306 28.2685 75.5734 28.2685ZM73.8445 19.4309C73.8445 20.4072 73.0428 21.1986 72.0538 21.1986C71.0649 21.1986 70.2632 20.4072 70.2632 19.4309C70.2632 18.4547 71.0649 17.6633 72.0538 17.6633C73.0428 17.6633 73.8445 18.4547 73.8445 19.4309ZM77.4166 18.5472C76.9284 18.5472 76.5327 18.9429 76.5327 19.4311C76.5327 19.9192 76.9284 20.3149 77.4165 20.3149H80.1255C80.6136 20.3149 81.0093 19.9192 81.0093 19.4311C81.0093 18.9429 80.6136 18.5472 80.1255 18.5472H77.4166Z" fill="url(#paint2_linear_1930_138773)"/>
  <path fill-rule="evenodd" clip-rule="evenodd" d="M10.5 7.82609C10.5 3.50386 14.1106 0 18.5645 0H64.9355C69.2766 0 72.8166 3.32867 72.9931 7.49939H62.9242C60.2047 7.49939 58 9.67578 58 12.3605V31.6959C58 34.3806 60.2047 36.557 62.9242 36.557H65.1094V42.4994L73 36.9359V45H10.5V7.82609ZM19.4746 14.8224C19.4746 13.7309 20.3594 12.8461 21.4509 12.8461H50.1071C51.1986 12.8461 52.0834 13.7309 52.0834 14.8224C52.0834 15.9138 51.1986 16.7986 50.1071 16.7986H21.4509C20.3594 16.7986 19.4746 15.9138 19.4746 14.8224ZM21.4509 23.7157C20.3594 23.7157 19.4746 24.6005 19.4746 25.692C19.4746 26.7835 20.3594 27.6683 21.4509 27.6683H49.7513C50.8428 27.6683 51.7276 26.7835 51.7276 25.692C51.7276 24.6005 50.8428 23.7157 49.7513 23.7157H21.4509ZM19.4746 36.5616C19.4746 35.4701 20.3594 34.5853 21.4509 34.5853H40.2652C41.3566 34.5853 42.2415 35.4701 42.2415 36.5616C42.2415 37.6531 41.3566 38.5379 40.2652 38.5379H21.4509C20.3594 38.5379 19.4746 37.6531 19.4746 36.5616Z" fill="url(#paint3_linear_1930_138773)"/>
  <defs>
    <linearGradient id="paint0_linear_1930_138773" x1="5.93509" y1="27.2912" x2="5.93509" y2="44.9995" gradientUnits="userSpaceOnUse">
      <stop stop-color="#4D4D4D" stop-opacity="0.25"/>
      <stop offset="1" stop-color="#808080" stop-opacity="0.2"/>
    </linearGradient>
    <linearGradient id="paint1_linear_1930_138773" x1="42.0021" y1="44.9995" x2="42.0021" y2="92.4995" gradientUnits="userSpaceOnUse">
      <stop stop-color="#7F7F7F" stop-opacity="0.12"/>
      <stop offset="1" stop-color="#999999" stop-opacity="0.1"/>
    </linearGradient>
    <linearGradient id="paint2_linear_1930_138773" x1="74.25" y1="7.49951" x2="74.6515" y2="48.8191" gradientUnits="userSpaceOnUse">
      <stop stop-color="#7F7F7F" stop-opacity="0.25"/>
      <stop offset="1" stop-color="#ADADAD" stop-opacity="0.2"/>
    </linearGradient>
    <linearGradient id="paint3_linear_1930_138773" x1="41.1325" y1="0" x2="41.1325" y2="45.4546" gradientUnits="userSpaceOnUse">
      <stop stop-color="#7F7F7F" stop-opacity="0.08"/>
      <stop offset="1" stop-color="#ADADAD" stop-opacity="0.06"/>
    </linearGradient>
  </defs>
</svg>