<svg width="24" height="24" viewBox="0 0 24 24"  xmlns="http://www.w3.org/2000/svg">
<path fill-rule="evenodd" clip-rule="evenodd" d="M7 4C5.89543 4 5 4.89543 5 6V18C5 19.1046 5.89543 20 7 20H17C18.1046 20 19 19.1046 19 18V8.82843C19 8.29799 18.7893 7.78929 18.4142 7.41421L15.5858 4.58579C15.2107 4.21071 14.702 4 14.1716 4H7ZM8.75 7.5C8.33579 7.5 8 7.83579 8 8.25C8 8.66421 8.33579 9 8.75 9H13.25C13.6642 9 14 8.66421 14 8.25C14 7.83579 13.6642 7.5 13.25 7.5H8.75ZM8 11.25C8 10.8358 8.33579 10.5 8.75 10.5H15.25C15.6642 10.5 16 10.8358 16 11.25C16 11.6642 15.6642 12 15.25 12H8.75C8.33579 12 8 11.6642 8 11.25ZM8.75 13.5C8.33579 13.5 8 13.8358 8 14.25C8 14.6642 8.33579 15 8.75 15H15.25C15.6642 15 16 14.6642 16 14.25C16 13.8358 15.6642 13.5 15.25 13.5H8.75Z"/>
</svg>
