<?xml version="1.0" standalone="no"?><!DOCTYPE svg PUBLIC "-//W3C//DTD SVG 1.1//EN" "http://www.w3.org/Graphics/SVG/1.1/DTD/svg11.dtd"><svg t="1671519265019" class="icon" viewBox="0 0 1024 1024" version="1.1" xmlns="http://www.w3.org/2000/svg" p-id="5801" xmlns:xlink="http://www.w3.org/1999/xlink" width="200" height="200"><path d="M755.23 248.28c-11.17-9.12-25.22-13.35-39.58-11.9-14.35 1.45-27.28 8.4-36.4 19.57-18.83 23.06-15.4 57.14 7.66 75.98 64.92 53.02 102.16 131.26 102.16 214.66 0 152.78-124.29 277.07-277.07 277.07s-277.07-124.3-277.07-277.08c0-83.41 37.22-161.65 102.12-214.66 23.06-18.84 26.5-52.92 7.66-75.98-9.12-11.17-22.05-18.12-36.4-19.57-14.35-1.45-28.41 2.78-39.58 11.9-90.12 73.61-141.8 182.34-141.8 298.31 0 212.33 172.74 385.07 385.07 385.07s385.07-172.74 385.07-385.07c0-115.95-51.7-224.68-141.84-298.3z" p-id="5802"></path><path d="M515.04 584.69c29.78 0 54-24.22 54-54V146.35c0-29.78-24.22-54-54-54s-54 24.22-54 54v384.34c0 29.78 24.22 54 54 54z" p-id="5803"></path></svg>