<svg width="24" height="24" viewBox="0 0 24 24" xmlns="http://www.w3.org/2000/svg">
<path d="M9.5 15.0184V8.98159C9.5 8.61236 9.8833 8.38088 10.1914 8.56407L15.2672 11.5825C15.5776 11.7671 15.5776 12.2329 15.2672 12.4175L10.1914 15.4359C9.8833 15.6191 9.5 15.3876 9.5 15.0184Z" fill="#464E53"/>
<path fill-rule="evenodd" clip-rule="evenodd" d="M12 19C15.866 19 19 15.866 19 12C19 8.13401 15.866 5 12 5C8.13401 5 5 8.13401 5 12C5 15.866 8.13401 19 12 19ZM20 12C20 16.4183 16.4183 20 12 20C7.58172 20 4 16.4183 4 12C4 7.58172 7.58172 4 12 4C16.4183 4 20 7.58172 20 12Z"/>
</svg>
