<svg width="24" height="24" viewBox="0 0 24 24"  xmlns="http://www.w3.org/2000/svg">
<path d="M12 5C11.5028 5 11.0452 5.1342 10.6271 5.40261C10.209 5.65882 9.87571 6.01264 9.62712 6.46405C9.38983 6.91547 9.27119 7.40959 9.27119 7.94641V9.72157C9.27119 10.2462 9.38983 10.7342 9.62712 11.1856C9.87571 11.637 10.209 11.997 10.6271 12.2654C11.0452 12.5338 11.5028 12.668 12 12.668C12.4972 12.668 12.9548 12.5338 13.3729 12.2654C13.791 11.997 14.1186 11.637 14.3559 11.1856C14.6045 10.7342 14.7288 10.2462 14.7288 9.72157V7.94641C14.7288 7.40959 14.6045 6.91547 14.3559 6.46405C14.1186 6.01264 13.791 5.65882 13.3729 5.40261C12.9548 5.1342 12.4972 5 12 5ZM12 19H7.42373C7.02825 19 6.68927 18.8475 6.40678 18.5425C6.13559 18.2375 6 17.8776 6 17.4627C6 17.0479 6.0678 16.7124 6.20339 16.4562C6.44068 16.0414 6.77966 15.6571 7.22034 15.3033C7.75141 14.8641 8.37853 14.5224 9.10169 14.2784C9.96045 13.9856 10.9266 13.8392 12 13.8392C13.0734 13.8392 14.0395 13.9856 14.8983 14.2784C15.6215 14.5224 16.2486 14.8641 16.7797 15.3033C17.2203 15.6571 17.5593 16.0414 17.7966 16.4562C17.9322 16.7124 18 17.0479 18 17.4627C18 17.8776 17.8588 18.2375 17.5763 18.5425C17.3051 18.8475 16.9718 19 16.5763 19H12Z" />
</svg>
