<svg width="24" height="24" viewBox="0 0 24 24" fill="none" xmlns="http://www.w3.org/2000/svg">
<path d="M4 5C4 4.44772 4.44772 4 5 4H19C19.5523 4 20 4.44772 20 5V7C20 7.55228 19.5523 8 19 8H5C4.44772 8 4 7.55228 4 7V5Z" fill="#464E53"/>
<path fill-rule="evenodd" clip-rule="evenodd" d="M6 9C5.72386 9 5.5 9.22386 5.5 9.5V18C5.5 19.1046 6.39543 20 7.5 20H16.5C17.6046 20 18.5 19.1046 18.5 18V9.5C18.5 9.22386 18.2761 9 18 9H6ZM14.7942 11.4197C15.0871 11.7126 15.0871 12.1874 14.7942 12.4803L13.0606 14.2139L14.7942 15.9475C15.0871 16.2404 15.0871 16.7152 14.7942 17.0081C14.5013 17.301 14.0265 17.301 13.7336 17.0081L12 15.2746L10.2664 17.0081C9.97352 17.301 9.49865 17.301 9.20575 17.0081C8.91286 16.7152 8.91286 16.2404 9.20575 15.9475L10.9393 14.2139L9.20576 12.4803C8.91286 12.1874 8.91286 11.7126 9.20576 11.4197C9.49865 11.1268 9.97352 11.1268 10.2664 11.4197L12 13.1532L13.7336 11.4197C14.0264 11.1268 14.5013 11.1268 14.7942 11.4197Z" fill="#464E53"/>
</svg>
