<svg width="24" height="24" viewBox="0 0 24 24" fill="none" xmlns="http://www.w3.org/2000/svg">
<path fill-rule="evenodd" clip-rule="evenodd" d="M4 7C4 5.34315 5.34315 4 7 4H17C18.6569 4 20 5.34315 20 7V17C20 18.6569 18.6569 20 17 20H7C5.34315 20 4 18.6569 4 17V7ZM11.6258 6.96235C11.9187 6.66945 12.3936 6.66945 12.6865 6.96235L16.4867 10.7626C17.1701 11.446 17.1701 12.554 16.4867 13.2374L12.6865 17.0377C12.3936 17.3305 11.9187 17.3305 11.6258 17.0377C11.3329 16.7448 11.3329 16.2699 11.6258 15.977L14.8528 12.75L7.40979 12.75C6.99558 12.75 6.65979 12.4142 6.65979 12C6.65979 11.5858 6.99558 11.25 7.40979 11.25L14.8528 11.25L11.6258 8.02301C11.3329 7.73011 11.3329 7.25524 11.6258 6.96235Z" fill="#464E53"/>
</svg>
