<svg width="24" height="24" viewBox="0 0 24 24" fill="none" xmlns="http://www.w3.org/2000/svg">
<path fill-rule="evenodd" clip-rule="evenodd" d="M10.2197 5.28033C9.92678 4.98744 9.92678 4.51256 10.2197 4.21967C10.5126 3.92678 10.9874 3.92678 11.2803 4.21967L15.2803 8.21967C15.5732 8.51256 15.5732 8.98744 15.2803 9.28033L11.2803 13.2803C10.9874 13.5732 10.5126 13.5732 10.2197 13.2803C9.92678 12.9874 9.92678 12.5126 10.2197 12.2197L12.9393 9.5H9.75C7.40279 9.5 5.5 11.4028 5.5 13.75C5.5 16.0972 7.40279 18 9.75 18H19.25C19.6642 18 20 18.3358 20 18.75C20 19.1642 19.6642 19.5 19.25 19.5H9.75C6.57436 19.5 4 16.9256 4 13.75C4 10.5744 6.57436 8 9.75 8H12.9393L10.2197 5.28033Z" fill="#464E53"/>
</svg>
