<svg width="24" height="24" viewBox="0 0 24 24" fill="none" xmlns="http://www.w3.org/2000/svg">
<path fill-rule="evenodd" clip-rule="evenodd" d="M12 21C16.9706 21 21 16.9706 21 12C21 7.02944 16.9706 3 12 3C7.02944 3 3 7.02944 3 12C3 16.9706 7.02944 21 12 21ZM11.6258 6.96235C11.9187 6.66945 12.3936 6.66945 12.6865 6.96235L16.4867 10.7626C17.1701 11.446 17.1701 12.554 16.4867 13.2374L12.6865 17.0377C12.3936 17.3305 11.9187 17.3305 11.6258 17.0377C11.3329 16.7448 11.3329 16.2699 11.6258 15.977L14.8528 12.75L7.40982 12.75C6.99561 12.75 6.65982 12.4142 6.65982 12C6.65982 11.5858 6.99561 11.25 7.40982 11.25L14.8528 11.25L11.6258 8.02301C11.3329 7.73011 11.3329 7.25524 11.6258 6.96235Z" fill="#464E53"/>
</svg>
