<svg width="24" height="24" viewBox="0 0 24 24" fill="none" xmlns="http://www.w3.org/2000/svg">
<path d="M9.49048 19H14.5095C14.5095 20.1046 13.6141 21 12.5095 21H11.4905C10.3859 21 9.49048 20.1046 9.49048 19Z" fill="#464E53"/>
<rect x="11" y="3" width="2" height="4" rx="1" fill="#464E53"/>
<path d="M6.5 10.5C6.5 7.46243 8.96243 5 12 5Lnan nanL12 5C15.0376 5 17.5 7.46243 17.5 10.5V12.8158C17.5 13.8247 17.9869 14.7716 18.8074 15.3585L19.1667 15.6155C19.6897 15.9897 20 16.5932 20 17.2362V17.4149C20 17.7381 19.7381 18 19.4149 18H4.58506C4.26194 18 4 17.7381 4 17.4149V17.2362C4 16.5932 4.31032 15.9897 4.83333 15.6155L5.1926 15.3585C6.01314 14.7716 6.5 13.8247 6.5 12.8158V10.5Z" fill="#464E53"/>
</svg>
