<svg width="24" height="24" viewBox="0 0 24 24" fill="none" xmlns="http://www.w3.org/2000/svg">
<path fill-rule="evenodd" clip-rule="evenodd" d="M11.1926 5.66567C11.6586 5.27131 12.3414 5.27131 12.8074 5.66567L15.5662 8H8.43382L11.1926 5.66567ZM6.11163 8L10.2237 4.52059C11.249 3.65301 12.751 3.65301 13.7763 4.52059L17.8884 8H18C19.1046 8 20 8.89543 20 10V18C20 19.1046 19.1046 20 18 20H6C4.89543 20 4 19.1046 4 18V10C4 8.89543 4.89543 8 6 8H6.11163ZM7.72222 11.5555C7.32335 11.5555 7 11.854 7 12.2222C7 12.5904 7.32335 12.8889 7.72222 12.8889H16.2778C16.6766 12.8889 17 12.5904 17 12.2222C17 11.854 16.6766 11.5555 16.2778 11.5555H7.72222ZM7 15.7778C7 15.4096 7.32335 15.1111 7.72222 15.1111H12.2778C12.6766 15.1111 13 15.4096 13 15.7778C13 16.146 12.6766 16.4444 12.2778 16.4444H7.72222C7.32335 16.4444 7 16.146 7 15.7778Z" fill="#464E53"/>
</svg>
