<svg width="24" height="24" viewBox="0 0 24 24" fill="none" xmlns="http://www.w3.org/2000/svg">
<path fill-rule="evenodd" clip-rule="evenodd" d="M3.5 9.2785C3.5 8.26433 4.25909 7.4107 5.26632 7.2922L7.21384 7.06308C7.54846 7.02371 7.84075 6.81849 7.99143 6.51714L8.44721 5.60557C8.786 4.92801 9.47852 4.5 10.2361 4.5H13.7639C14.5215 4.5 15.214 4.928 15.5528 5.60557L16.0086 6.51714C16.1592 6.81849 16.4515 7.02371 16.7862 7.06308L18.7337 7.2922C19.7409 7.4107 20.5 8.26433 20.5 9.2785V17.5C20.5 18.6046 19.6046 19.5 18.5 19.5H5.5C4.39543 19.5 3.5 18.6046 3.5 17.5V9.2785ZM12 16C13.6569 16 15 14.6569 15 13C15 11.3431 13.6569 10 12 10C10.3431 10 9 11.3431 9 13C9 14.6569 10.3431 16 12 16ZM12 17.5C14.4853 17.5 16.5 15.4853 16.5 13C16.5 10.5147 14.4853 8.5 12 8.5C9.51472 8.5 7.5 10.5147 7.5 13C7.5 15.4853 9.51472 17.5 12 17.5ZM6.27549 4.75597C6.6864 4.70375 7.06183 4.99453 7.11405 5.40544C7.16627 5.81635 6.87549 6.19179 6.46459 6.24401L5.09459 6.4181C4.68368 6.47032 4.30824 6.17955 4.25602 5.76864C4.2038 5.35773 4.49458 4.98229 4.90549 4.93007L6.27549 4.75597Z" fill="#464E53"/>
</svg>
