<svg width="24" height="24" viewBox="0 0 24 24" fill="none" xmlns="http://www.w3.org/2000/svg">
<path fill-rule="evenodd" clip-rule="evenodd" d="M6 4C4.89543 4 4 4.89543 4 6V18C4 19.1046 4.89543 20 6 20H18C19.1046 20 20 19.1046 20 18V6C20 4.89543 19.1046 4 18 4H6ZM17.6365 9.63637C17.988 9.2849 17.988 8.71505 17.6365 8.36358C17.285 8.01211 16.7152 8.01211 16.3637 8.36358L10.5001 14.2272L7.63649 11.3636C7.28502 11.0121 6.71517 11.0121 6.3637 11.3636C6.01223 11.7151 6.01223 12.2849 6.3637 12.6364L9.8637 16.1364C10.2152 16.4878 10.785 16.4878 11.1365 16.1364L17.6365 9.63637Z" fill="#464E53"/>
</svg>
