<svg width="24" height="24" viewBox="0 0 24 24" fill="none" xmlns="http://www.w3.org/2000/svg">
<path fill-rule="evenodd" clip-rule="evenodd" d="M3.48231 11.3913C3.78202 11.1054 4.25676 11.1166 4.54267 11.4163L7.89528 14.9307L7.92492 14.9015C8.21995 14.6108 8.69481 14.6142 8.98555 14.9093C9.2763 15.2043 9.27282 15.6792 8.9778 15.9699L8.40522 16.5342C8.26204 16.6753 8.06821 16.753 7.86721 16.7499C7.66621 16.7468 7.47487 16.6631 7.33611 16.5177L3.45733 12.4517C3.17141 12.152 3.1826 11.6773 3.48231 11.3913ZM10.7724 13.0278C10.4747 12.7398 10.4668 12.265 10.7548 11.9673L15.0973 7.47851C15.3853 7.18081 15.8601 7.17294 16.1578 7.46094C16.4555 7.74894 16.4634 8.22375 16.1754 8.52146L11.8329 13.0102C11.5449 13.3079 11.0701 13.3158 10.7724 13.0278Z" fill="#464E53"/>
<path fill-rule="evenodd" clip-rule="evenodd" d="M7.10282 11.4073C7.39373 11.1124 7.86859 11.1092 8.16346 11.4001L11.7622 14.9506L19.478 7.4618C19.7752 7.17331 20.25 7.1804 20.5385 7.47763C20.827 7.77486 20.8199 8.24968 20.5227 8.53817L12.2803 16.5382C11.9876 16.8222 11.5215 16.8203 11.2312 16.5339L7.10998 12.4679C6.81512 12.177 6.81191 11.7021 7.10282 11.4073Z" fill="#464E53"/>
</svg>
