<svg width="24" height="24" viewBox="0 0 24 24" fill="none" xmlns="http://www.w3.org/2000/svg">
<path fill-rule="evenodd" clip-rule="evenodd" d="M12.0253 4C7.59303 4 4 7.58172 4 12C4 16.4183 7.59303 20 12.0253 20C13.0295 20 13.9907 19.8161 14.8768 19.4803L11.4566 16.3977C10.6347 15.6569 10.5708 14.3922 11.3139 13.5729C12.057 12.7535 13.3257 12.6898 14.1477 13.4306L15.9122 15.021L19.7435 11.3082C19.8244 11.2298 19.9102 11.1596 20 11.0975C19.5502 7.10409 16.1514 4 12.0253 4Z" fill="#464E53"/>
<path fill-rule="evenodd" clip-rule="evenodd" d="M21.6258 12.2195C21.9145 12.5165 21.9078 12.9913 21.6108 13.2801L16.4471 18.2998C16.1635 18.5755 15.7147 18.5836 15.4213 18.3184L12.2714 15.4705C11.9642 15.1927 11.9403 14.7184 12.2181 14.4112C12.4959 14.1039 12.9702 14.08 13.2774 14.3578L15.9057 16.7342L20.5652 12.2045C20.8622 11.9158 21.3371 11.9225 21.6258 12.2195Z" fill="#464E53"/>
</svg>
