<svg width="24" height="24" viewBox="0 0 24 24" fill="none" xmlns="http://www.w3.org/2000/svg">
<path fill-rule="evenodd" clip-rule="evenodd" d="M12 5.37143C8.33914 5.37143 5.37143 8.33914 5.37143 12C5.37143 15.6609 8.33914 18.6286 12 18.6286C15.6609 18.6286 18.6286 15.6609 18.6286 12C18.6286 8.33914 15.6609 5.37143 12 5.37143ZM4 12C4 7.58172 7.58172 4 12 4C16.4183 4 20 7.58172 20 12C20 16.4183 16.4183 20 12 20C7.58172 20 4 16.4183 4 12Z" fill="#464E53"/>
<path fill-rule="evenodd" clip-rule="evenodd" d="M11.1897 12.9342C11.1897 13.3817 11.5525 13.7445 12.0001 13.7445C12.4476 13.7445 12.8104 13.3817 12.8104 12.9342L12.8103 7.81033C12.8103 7.3628 12.4475 7 12 7C11.5525 7 11.1897 7.3628 11.1897 7.81033L11.1897 12.9342ZM12 17.0062C12.66 17.0062 13.1951 16.4711 13.1951 15.8111C13.1951 15.1511 12.66 14.6161 12 14.6161C11.34 14.6161 10.8049 15.1511 10.8049 15.8111C10.8049 16.4711 11.34 17.0062 12 17.0062Z" fill="#464E53"/>
</svg>
