<svg width="24" height="24" viewBox="0 0 24 24" fill="none" xmlns="http://www.w3.org/2000/svg">
<path fill-rule="evenodd" clip-rule="evenodd" d="M8.36988 17.7514C9.49094 18.2051 10.7163 18.4549 12 18.4549C15.9659 18.4549 19.3748 16.0706 20.8716 12.6573C21.0553 12.2384 21.0553 11.7616 20.8716 11.3427C20.2777 9.98824 19.3826 8.79582 18.2712 7.85012L15.6835 10.4378C15.8873 10.9178 16 11.4457 16 12C16 14.2091 14.2091 16 12 16C11.4457 16 10.9178 15.8873 10.4378 15.6835L8.36988 17.7514ZM13.5621 8.31653C13.0822 8.11273 12.5543 8 12 8C9.79086 8 8 9.79086 8 12C8 12.5543 8.11273 13.0822 8.31652 13.5621L5.72883 16.1498C4.61743 15.2041 3.72243 14.0117 3.12849 12.6573C2.9448 12.2384 2.9448 11.7616 3.12849 11.3427C4.62529 7.92936 8.03423 5.54507 12 5.54507C13.2837 5.54507 14.5091 5.79489 15.6301 6.24855L13.5621 8.31653Z" fill="#464E53"/>
<path d="M3.45462 18.9545C3.01528 19.3938 3.01528 20.1062 3.45462 20.5455C3.89396 20.9848 4.60627 20.9848 5.04561 20.5455L20.5456 5.0455C20.9849 4.60616 20.9849 3.89385 20.5456 3.45451C20.1063 3.01517 19.394 3.01517 18.9546 3.45451L3.45462 18.9545Z" fill="#464E53" stroke="white" stroke-width="0.75" stroke-linecap="round"/>
<circle cx="12" cy="12" r="1.8" fill="#464E53"/>
</svg>
