<svg width="24" height="24" viewBox="0 0 24 24" fill="none" xmlns="http://www.w3.org/2000/svg">
<path fill-rule="evenodd" clip-rule="evenodd" d="M3.12849 11.3427C2.9448 11.7616 2.9448 12.2384 3.12849 12.6573C4.62529 16.0706 8.03423 18.4549 12 18.4549C15.9659 18.4549 19.3748 16.0706 20.8716 12.6573C21.0553 12.2384 21.0553 11.7616 20.8716 11.3427C19.3748 7.92937 15.9659 5.54507 12 5.54507C8.03423 5.54507 4.62529 7.92936 3.12849 11.3427ZM13.8 12C13.8 12.9941 12.9941 13.8 12 13.8C11.0059 13.8 10.2 12.9941 10.2 12C10.2 11.0059 11.0059 10.2 12 10.2C12.9941 10.2 13.8 11.0059 13.8 12ZM16 12C16 14.2091 14.2091 16 12 16C9.79086 16 8 14.2091 8 12C8 9.79086 9.79086 8 12 8C14.2091 8 16 9.79086 16 12Z" fill="#464E53"/>
</svg>
