<svg width="24" height="24" viewBox="0 0 24 24" fill="none" xmlns="http://www.w3.org/2000/svg">
<mask id="path-1-inside-1_897_144026" fill="white">
<path d="M3.5 6.5C3.5 4.84315 4.84315 3.5 6.5 3.5H17.5C19.1569 3.5 20.5 4.84315 20.5 6.5V17.5C20.5 19.1569 19.1569 20.5 17.5 20.5H6.5C4.84315 20.5 3.5 19.1569 3.5 17.5V6.5Z"/>
</mask>
<path d="M6.5 5H17.5V2H6.5V5ZM19 6.5V17.5H22V6.5H19ZM17.5 19H6.5V22H17.5V19ZM5 17.5V6.5H2V17.5H5ZM6.5 19C5.67157 19 5 18.3284 5 17.5H2C2 19.9853 4.01472 22 6.5 22V19ZM19 17.5C19 18.3284 18.3284 19 17.5 19V22C19.9853 22 22 19.9853 22 17.5H19ZM17.5 5C18.3284 5 19 5.67157 19 6.5H22C22 4.01472 19.9853 2 17.5 2V5ZM6.5 2C4.01472 2 2 4.01472 2 6.5H5C5 5.67157 5.67157 5 6.5 5V2Z" fill="#464E53" mask="url(#path-1-inside-1_897_144026)"/>
<path d="M10.721 11.7685V14.6116C10.6151 14.7144 10.4592 14.836 10.2534 14.9763C10.0477 15.1166 9.78896 15.2397 9.47722 15.3457C9.16861 15.4486 8.80388 15.5 8.38303 15.5C7.99337 15.5 7.64267 15.4408 7.33093 15.3223C7.0192 15.2039 6.75266 15.0246 6.53133 14.7846C6.31312 14.5414 6.14478 14.2375 6.02632 13.8727C5.90786 13.5049 5.84863 13.07 5.84863 12.5681V11.4412C5.84863 10.9424 5.90786 10.5076 6.02632 10.1366C6.1479 9.76564 6.31779 9.46014 6.53601 9.22011C6.75422 8.98007 7.01296 8.80082 7.31223 8.68236C7.61149 8.56079 7.94349 8.5 8.30822 8.5C8.85375 8.5 9.30109 8.59196 9.65024 8.77589C10.0025 8.95981 10.2659 9.22478 10.4405 9.57081C10.6151 9.91372 10.707 10.3299 10.7164 10.8193H9.18263C9.17016 10.5606 9.13276 10.3533 9.07041 10.1974C9.00806 10.0415 8.91922 9.93086 8.80388 9.8654C8.68853 9.79682 8.54202 9.76253 8.36433 9.76253C8.22093 9.76253 8.09312 9.79058 7.9809 9.84669C7.87179 9.90281 7.77827 9.99633 7.70034 10.1273C7.62552 10.2551 7.56785 10.4265 7.52732 10.6416C7.48992 10.8567 7.47121 11.1201 7.47121 11.4319V12.5681C7.47121 12.8768 7.48992 13.1386 7.52732 13.3537C7.56473 13.5688 7.6224 13.7403 7.70034 13.8681C7.77827 13.9959 7.8827 14.0894 8.01363 14.1486C8.14456 14.2079 8.30666 14.2375 8.49994 14.2375C8.61839 14.2375 8.71659 14.2219 8.79452 14.1907C8.87246 14.1595 8.93792 14.1237 8.99092 14.0832C9.04391 14.0426 9.08756 14.0146 9.12185 13.999V12.8955H8.30822V11.7685H10.721Z" fill="#464E53"/>
<path d="M13.2601 8.5982V15.4065H11.6656V8.5982H13.2601Z" fill="#464E53"/>
<path d="M15.8693 8.5982V15.4065H14.2701V8.5982H15.8693ZM17.9595 11.4319V12.6944H15.4345V11.4319H17.9595ZM18.1512 8.5982V9.8654H15.4345V8.5982H18.1512Z" fill="#464E53"/>
</svg>
