<svg width="24" height="24" viewBox="0 0 24 24" fill="none" xmlns="http://www.w3.org/2000/svg">
<path fill-rule="evenodd" clip-rule="evenodd" d="M15.6502 12C14.159 12 12.9502 13.2088 12.9502 14.7V14.8679C12.2869 15.023 11.793 15.6181 11.793 16.3286V19.5C11.793 20.3284 12.4645 21 13.293 21H18.0073C18.8357 21 19.5073 20.3284 19.5073 19.5V16.3286C19.5073 15.6181 19.0133 15.0231 18.3502 14.868V14.7C18.3502 13.2088 17.1413 12 15.6502 12ZM17.5787 14.8286V14.7C17.5787 13.6349 16.7153 12.7714 15.6502 12.7714C14.585 12.7714 13.7216 13.6349 13.7216 14.7V14.8286H17.5787ZM16.0358 17.8111C16.2664 17.6778 16.4216 17.4284 16.4216 17.1429C16.4216 16.7168 16.0762 16.3714 15.6502 16.3714C15.2241 16.3714 14.8787 16.7168 14.8787 17.1429C14.8787 17.4284 15.0338 17.6776 15.2644 17.811V19.0714C15.2644 19.2844 15.4371 19.4571 15.6501 19.4571C15.8631 19.4571 16.0358 19.2844 16.0358 19.0714V17.8111Z" fill="#464E53"/>
<path fill-rule="evenodd" clip-rule="evenodd" d="M16.5236 3.02425C17.2204 3.16082 17.6746 3.83638 17.538 4.53316L16.7629 8.18129L19.2941 8.18129C20.0041 8.18129 20.5797 8.75689 20.5797 9.46692C20.5797 10.177 20.0041 10.7526 19.2941 10.7526H15.3827C15.2635 10.7526 15.1481 10.7363 15.0385 10.706C15.0046 10.7021 14.9705 10.6968 14.9364 10.6901C14.2397 10.5535 13.7855 9.87799 13.9221 9.18121L15.0147 4.03859C15.1513 3.34181 15.8269 2.88768 16.5236 3.02425ZM10.9977 3.02547C11.6938 3.16541 12.1447 3.84316 12.0047 4.53926L11.2726 8.18129H11.953C12.6631 8.18129 13.2387 8.75689 13.2387 9.46692C13.2387 10.177 12.6631 10.7526 11.953 10.7526H5.84305C5.13302 10.7526 4.55742 10.177 4.55742 9.46692C4.55742 8.75689 5.13302 8.18129 5.84305 8.18129H8.64986L9.48391 4.03249C9.62385 3.33639 10.3016 2.88553 10.9977 3.02547ZM9.37211 11.3034C10.0688 11.4402 10.5227 12.116 10.3858 12.8127L8.9816 19.9619C8.84475 20.6586 8.16901 21.1125 7.47229 20.9757C6.77556 20.8388 6.3217 20.1631 6.45855 19.4663L7.12704 16.0629H4.70604C3.99601 16.0629 3.42041 15.4873 3.42041 14.7773C3.42041 14.0673 3.99601 13.4917 4.70604 13.4917H7.63209L7.86279 12.3171C7.99964 11.6204 8.67539 11.1665 9.37211 11.3034Z" fill="#464E53"/>
</svg>
