<svg width="24" height="24" viewBox="0 0 24 24" fill="none" xmlns="http://www.w3.org/2000/svg">
<path fill-rule="evenodd" clip-rule="evenodd" d="M18.5 6.5H5.5C5.22386 6.5 5 6.72386 5 7V17C5 17.2761 5.22386 17.5 5.5 17.5H18.5C18.7761 17.5 19 17.2761 19 17V7C19 6.72386 18.7761 6.5 18.5 6.5ZM5.5 5C4.39543 5 3.5 5.89543 3.5 7V17C3.5 18.1046 4.39543 19 5.5 19H18.5C19.6046 19 20.5 18.1046 20.5 17V7C20.5 5.89543 19.6046 5 18.5 5H5.5Z" fill="#464E53"/>
<path d="M12.692 11.907L6.78174 17.6209H19.0786V15.5129L15.4963 11.9306C14.7246 11.1589 13.4766 11.1484 12.692 11.907Z" fill="#464E53"/>
<circle cx="8.5" cy="9.5" r="1.5" fill="#464E53"/>
</svg>
