<svg width="24" height="24" viewBox="0 0 24 24" fill="none" xmlns="http://www.w3.org/2000/svg">
<path fill-rule="evenodd" clip-rule="evenodd" d="M4.54907 11.3995C4.54907 7.61613 7.61613 4.54907 11.3995 4.54907C15.1829 4.54907 18.25 7.61613 18.25 11.3995C18.25 15.1829 15.1829 18.25 11.3995 18.25C7.61613 18.25 4.54907 15.1829 4.54907 11.3995ZM11.3995 3.04907C6.7877 3.04907 3.04907 6.7877 3.04907 11.3995C3.04907 16.0114 6.7877 19.75 11.3995 19.75C13.4354 19.75 15.3011 19.0214 16.7502 17.8108L19.9697 21.0303C20.2626 21.3232 20.7374 21.3232 21.0303 21.0303C21.3232 20.7374 21.3232 20.2626 21.0303 19.9697L17.8108 16.7502C19.0214 15.3011 19.75 13.4354 19.75 11.3995C19.75 6.7877 16.0114 3.04907 11.3995 3.04907Z" fill="#464E53"/>
</svg>
