<svg width="24" height="24" viewBox="0 0 24 24" fill="none" xmlns="http://www.w3.org/2000/svg">
<path fill-rule="evenodd" clip-rule="evenodd" d="M8 7C8 4.79086 9.79086 3 12 3C14.2091 3 16 4.79086 16 7V12C16 14.2091 14.2091 16 12 16C9.79086 16 8 14.2091 8 12V7ZM6 10.25C6.41421 10.25 6.75 10.5858 6.75 11V12C6.75 14.8995 9.10051 17.25 12 17.25C14.8995 17.25 17.25 14.8995 17.25 12V11C17.25 10.5858 17.5858 10.25 18 10.25C18.4142 10.25 18.75 10.5858 18.75 11V12C18.75 15.4744 16.125 18.3357 12.75 18.7088V20.25C12.75 20.6642 12.4142 21 12 21C11.5858 21 11.25 20.6642 11.25 20.25V18.7088C7.87504 18.3357 5.25 15.4744 5.25 12V11C5.25 10.5858 5.58579 10.25 6 10.25Z" fill="#464E53"/>
</svg>
