<svg width="24" height="24" viewBox="0 0 24 24" fill="none" xmlns="http://www.w3.org/2000/svg">
<path fill-rule="evenodd" clip-rule="evenodd" d="M12 4C9.51472 4 7.5 6.01472 7.5 8.5V11.5C7.5 13.9853 9.51472 16 12 16C14.4853 16 16.5 13.9853 16.5 11.5V8.5C16.5 6.01472 14.4853 4 12 4ZM12 10.0199C12.6904 10.0199 13.25 9.46025 13.25 8.7699C13.25 8.07954 12.6904 7.5199 12 7.5199C11.3096 7.5199 10.75 8.07954 10.75 8.7699C10.75 9.46025 11.3096 10.0199 12 10.0199Z" fill="#464E53"/>
<path fill-rule="evenodd" clip-rule="evenodd" d="M19.2565 11.4532C19.2565 11.0114 18.8984 10.6532 18.4565 10.6532C18.0147 10.6532 17.6565 11.0114 17.6565 11.4532C17.6565 14.4705 15.2105 16.9166 12.1931 16.9166H11.7963C8.78476 16.9166 6.34341 14.4752 6.34341 11.4637C6.34341 11.0218 5.98524 10.6637 5.54341 10.6637C5.10158 10.6637 4.74341 11.0218 4.74341 11.4637C4.74341 15.158 7.58384 18.189 11.2 18.4917V19.4503C11.2 19.8921 11.5581 20.2503 12 20.2503C12.4418 20.2503 12.8 19.8921 12.8 19.4503V18.4909C16.4169 18.1831 19.2565 15.1498 19.2565 11.4532Z" fill="#464E53"/>
</svg>
