<svg width="24" height="24" viewBox="0 0 24 24" fill="none" xmlns="http://www.w3.org/2000/svg">
<path fill-rule="evenodd" clip-rule="evenodd" d="M7.5 8.5C7.5 6.01472 9.51472 4 12 4C14.4853 4 16.5 6.01472 16.5 8.5V11.5C16.5 13.9853 14.4853 16 12 16C9.51472 16 7.5 13.9853 7.5 11.5V8.5ZM13.25 8.7699C13.25 9.46025 12.6904 10.0199 12 10.0199C11.3096 10.0199 10.75 9.46025 10.75 8.7699C10.75 8.07954 11.3096 7.5199 12 7.5199C12.6904 7.5199 13.25 8.07954 13.25 8.7699ZM18.4565 10.6532C18.8984 10.6532 19.2565 11.0114 19.2565 11.4532C19.2565 15.1498 16.4169 18.1831 12.8 18.4909V19.4503C12.8 19.8921 12.4418 20.2503 12 20.2503C11.5581 20.2503 11.2 19.8921 11.2 19.4503V18.4917C7.58384 18.189 4.74341 15.158 4.74341 11.4637C4.74341 11.0218 5.10158 10.6637 5.54341 10.6637C5.98524 10.6637 6.34341 11.0218 6.34341 11.4637C6.34341 14.4752 8.78476 16.9166 11.7963 16.9166H12.1931C15.2105 16.9166 17.6565 14.4705 17.6565 11.4532C17.6565 11.0114 18.0147 10.6532 18.4565 10.6532Z" fill="#464E53"/>
<path fill-rule="evenodd" clip-rule="evenodd" d="M13.0983 13.1906C13.3696 11.358 14.9491 9.95187 16.8571 9.95187C18.7651 9.95187 20.3447 11.3581 20.6159 13.1906C21.3365 13.6526 21.8142 14.46 21.8142 15.3805V18.5519C21.8142 19.9878 20.6501 21.1519 19.2142 21.1519H14.4999C13.064 21.1519 11.8999 19.9878 11.8999 18.5519V15.3805C11.8999 14.4599 12.3777 13.6525 13.0983 13.1906Z" fill="white"/>
<path fill-rule="evenodd" clip-rule="evenodd" d="M16.8572 11.0519C15.366 11.0519 14.1572 12.2607 14.1572 13.7519V13.9198C13.494 14.0749 13 14.67 13 15.3805V18.5519C13 19.3803 13.6716 20.0519 14.5 20.0519H19.2143C20.0427 20.0519 20.7143 19.3803 20.7143 18.5519V15.3805C20.7143 14.67 20.2204 14.0749 19.5572 13.9198V13.7519C19.5572 12.2607 18.3484 11.0519 16.8572 11.0519ZM18.7858 13.8805V13.7519C18.7858 12.6868 17.9223 11.8233 16.8572 11.8233C15.7921 11.8233 14.9286 12.6868 14.9286 13.7519V13.8805H18.7858ZM17.2428 16.863C17.4735 16.7296 17.6286 16.4803 17.6286 16.1947C17.6286 15.7687 17.2832 15.4233 16.8572 15.4233C16.4311 15.4233 16.0858 15.7687 16.0858 16.1947C16.0858 16.4802 16.2409 16.7295 16.4714 16.8629V18.1233C16.4714 18.3363 16.6441 18.509 16.8571 18.509C17.0701 18.509 17.2428 18.3363 17.2428 18.1233V16.863Z" fill="#464E53"/>
</svg>
