<svg width="24" height="24" viewBox="0 0 24 24" fill="none" xmlns="http://www.w3.org/2000/svg">
<path fill-rule="evenodd" clip-rule="evenodd" d="M3.80694 20.1909C3.51405 19.8981 3.51405 19.4232 3.80694 19.1303L19.1323 3.80906C19.4252 3.51616 19.9001 3.51616 20.1929 3.80906C20.4858 4.10195 20.4858 4.57682 20.1929 4.86972L4.8676 20.1909C4.57471 20.4838 4.09983 20.4838 3.80694 20.1909Z" fill="#464E53"/>
<path fill-rule="evenodd" clip-rule="evenodd" d="M8.48343 17.7627C9.30606 18.2658 10.2448 18.5977 11.25 18.7088V20.25C11.25 20.6642 11.5858 21 12 21C12.4142 21 12.75 20.6642 12.75 20.25V18.7088C16.125 18.3357 18.75 15.4744 18.75 12V11C18.75 10.5858 18.4142 10.25 18 10.25C17.5858 10.25 17.25 10.5858 17.25 11V12C17.25 14.8995 14.8995 17.25 12 17.25C11.1288 17.25 10.3071 17.0378 9.58393 16.6622L8.48343 17.7627ZM10.5264 15.7198C10.9824 15.9006 11.4796 16 12 16C14.2091 16 16 14.2091 16 12V10.2462L10.5264 15.7198ZM15.8484 5.90554L8.28023 13.4737C8.09939 13.0177 8 12.5204 8 12V7C8 4.79086 9.79086 3 12 3C13.8297 3 15.3724 4.22845 15.8484 5.90554ZM7.3378 14.4162L6.2373 15.5167C5.61097 14.4925 5.25 13.2884 5.25 12V11C5.25 10.5858 5.58579 10.25 6 10.25C6.41421 10.25 6.75 10.5858 6.75 11V12C6.75 12.8712 6.96223 13.6929 7.3378 14.4162Z" fill="#464E53"/>
</svg>
