<svg width="24" height="24" viewBox="0 0 24 24" fill="none" xmlns="http://www.w3.org/2000/svg">
<path fill-rule="evenodd" clip-rule="evenodd" d="M13.0126 3.43137C13.4655 3.14379 13.9613 3 14.4999 3C15.0385 3 15.5342 3.14379 15.9871 3.43137C16.4401 3.70588 16.7951 4.08497 17.0521 4.56863C17.3214 5.05229 17.4561 5.5817 17.4561 6.15686V8.05882C17.4561 8.62091 17.3214 9.14379 17.0521 9.62745C16.7951 10.1111 16.4401 10.4967 15.9871 10.7843C15.5342 11.0719 15.0385 11.2157 14.4999 11.2157C14.2058 11.2157 13.9245 11.1728 13.656 11.0871C13.6561 11.0777 13.6561 11.0683 13.6561 11.0588V9.15685C13.6561 8.38957 13.4751 7.66156 13.1063 6.99505C12.7538 6.33606 12.2563 5.80021 11.6208 5.41224C11.6844 5.11707 11.7872 4.83586 11.9292 4.56863C12.1985 4.08497 12.5596 3.70588 13.0126 3.43137Z" fill="#464E53"/>
<path fill-rule="evenodd" clip-rule="evenodd" d="M8.01271 6.43137C8.46563 6.14379 8.96139 6 9.5 6C10.0386 6 10.5344 6.14379 10.9873 6.43137C11.4402 6.70588 11.7952 7.08497 12.0523 7.56863C12.3216 8.05229 12.4562 8.5817 12.4562 9.15686V11.0588C12.4562 11.6209 12.3216 12.1438 12.0523 12.6275C11.7952 13.1111 11.4402 13.4967 10.9873 13.7843C10.5344 14.0719 10.0386 14.2157 9.5 14.2157C8.96139 14.2157 8.46563 14.0719 8.01271 13.7843C7.55979 13.4967 7.19868 13.1111 6.92938 12.6275C6.67232 12.1438 6.54379 11.6209 6.54379 11.0588V9.15686C6.54379 8.5817 6.67232 8.05229 6.92938 7.56863C7.19868 7.08497 7.55979 6.70588 8.01271 6.43137ZM4.54237 21H9.5H11.7181C11.655 20.8142 11.6208 20.615 11.6208 20.4079C11.6208 19.7378 11.9786 19.1513 12.5136 18.8289C11.9786 18.5066 11.6208 17.9201 11.6208 17.25C11.6208 16.6794 11.8803 16.1694 12.2876 15.8315C11.4476 15.5909 10.5184 15.4706 9.5 15.4706C8.3371 15.4706 7.29049 15.6275 6.36017 15.9412C5.57674 16.2026 4.89736 16.5686 4.32203 17.0392C3.84463 17.4183 3.4774 17.8301 3.22034 18.2745C3.07345 18.549 3 18.9085 3 19.3529C3 19.7974 3.14689 20.183 3.44068 20.5098C3.7467 20.8366 4.11394 21 4.54237 21Z" fill="#464E53"/>
<path fill-rule="evenodd" clip-rule="evenodd" d="M13 17.25C13 16.8358 13.3358 16.5 13.75 16.5H20.25C20.6642 16.5 21 16.8358 21 17.25C21 17.6642 20.6642 18 20.25 18H13.75C13.3358 18 13 17.6642 13 17.25Z" fill="#464E53"/>
<path fill-rule="evenodd" clip-rule="evenodd" d="M13 14.25C13 13.8358 13.3358 13.5 13.75 13.5H20.25C20.6642 13.5 21 13.8358 21 14.25C21 14.6642 20.6642 15 20.25 15H13.75C13.3358 15 13 14.6642 13 14.25Z" fill="#464E53"/>
<path fill-rule="evenodd" clip-rule="evenodd" d="M13 20.25C13 19.8358 13.3358 19.5 13.75 19.5H20.25C20.6642 19.5 21 19.8358 21 20.25C21 20.6642 20.6642 21 20.25 21H13.75C13.3358 21 13 20.6642 13 20.25Z" fill="#464E53"/>
</svg>
