<svg width="24" height="24" viewBox="0 0 24 24" fill="none" xmlns="http://www.w3.org/2000/svg">
<path fill-rule="evenodd" clip-rule="evenodd" d="M11.0052 5.47768L10.9946 5.48415C10.6872 5.67258 10.4351 5.93293 10.2358 6.29125C10.0526 6.6437 9.95602 7.03451 9.95602 7.48364V9.02996C9.95602 9.46019 10.0505 9.84447 10.2358 10.2007C10.4376 10.5637 10.6961 10.8375 11.0156 11.0426C11.3192 11.2375 11.6385 11.3312 12 11.3312C12.3615 11.3312 12.6809 11.2375 12.9845 11.0426C13.3019 10.8388 13.5509 10.5685 13.7389 10.2108L13.7443 10.2007L13.7498 10.1906C13.9457 9.83484 14.044 9.45454 14.044 9.02996V7.48364C14.044 7.03975 13.9434 6.65296 13.7498 6.30135L13.7443 6.2913L13.7389 6.28115C13.5533 5.92801 13.3107 5.67124 13.0054 5.48415L12.9949 5.47768L12.9845 5.471C12.6809 5.27609 12.3615 5.18237 12 5.18237C11.6385 5.18237 11.3192 5.27609 11.0156 5.471L11.0052 5.47768ZM9.19453 10.7609C8.91398 10.2272 8.77371 9.65022 8.77371 9.02996V7.48364C8.77371 6.84895 8.91398 6.26475 9.19453 5.73103C9.48844 5.19731 9.88255 4.77899 10.3768 4.47607C10.8711 4.15873 11.4122 4.00006 12 4.00006C12.5878 4.00006 13.1289 4.15873 13.6232 4.47607C14.1175 4.77899 14.5049 5.19731 14.7855 5.73103C15.0794 6.26475 15.2263 6.84895 15.2263 7.48364V9.02996C15.2263 9.65022 15.0794 10.2272 14.7855 10.7609C14.5049 11.2946 14.1175 11.7202 13.6232 12.0375C13.1289 12.3549 12.5878 12.5135 12 12.5135C11.4122 12.5135 10.8711 12.3549 10.3768 12.0375C9.88255 11.7202 9.48844 11.2946 9.19453 10.7609ZM15.4267 14.4176C14.4114 14.0714 13.2692 13.8983 12 13.8983C10.7309 13.8983 9.58864 14.0714 8.57331 14.4176C7.7183 14.7061 6.97685 15.11 6.34896 15.6293C5.82793 16.0476 5.42715 16.502 5.1466 16.9924C4.98629 17.2954 4.90613 17.692 4.90613 18.1825C4.90613 18.6729 5.06644 19.0985 5.38707 19.4591C5.72106 19.8197 6.12184 20 6.58943 20H17.4106C17.8782 20 18.2723 19.8197 18.5929 19.4591C18.9269 19.0985 19.0939 18.6729 19.0939 18.1825C19.0939 17.692 19.0138 17.2954 18.8535 16.9924C18.5729 16.502 18.1721 16.0476 17.6511 15.6293C17.0232 15.11 16.2818 14.7061 15.4267 14.4176ZM17.8149 17.5583C17.62 17.2244 17.3283 16.8863 16.9109 16.5512L16.9042 16.5459L16.8976 16.5404C16.3924 16.1226 15.7815 15.7851 15.0487 15.5379L15.0452 15.5367C14.1729 15.2392 13.1625 15.0806 12 15.0806C10.8375 15.0806 9.8272 15.2392 8.95488 15.5367L8.95131 15.5379C8.21852 15.7851 7.60767 16.1226 7.10246 16.5404L7.09585 16.5459L7.08916 16.5512C6.6718 16.8863 6.38008 17.2244 6.18513 17.5583C6.14539 17.6407 6.08844 17.8269 6.08844 18.1825C6.08844 18.3841 6.14348 18.527 6.26276 18.6645C6.38179 18.7899 6.47236 18.8177 6.58943 18.8177H17.4106C17.5284 18.8177 17.6049 18.791 17.7094 18.6735L17.7173 18.6645L17.7255 18.6557C17.8576 18.5131 17.9116 18.3743 17.9116 18.1825C17.9116 17.8268 17.8547 17.6407 17.8149 17.5583Z" fill="#464E53"/>
</svg>
