<svg width="24" height="24" viewBox="0 0 24 24" fill="none" xmlns="http://www.w3.org/2000/svg">
<path fill-rule="evenodd" clip-rule="evenodd" d="M13.0126 3.43137C13.4655 3.14379 13.9612 3 14.4999 3C15.0385 3 15.5342 3.14379 15.9871 3.43137C16.4401 3.70588 16.7951 4.08497 17.0521 4.56863C17.3214 5.05229 17.4561 5.5817 17.4561 6.15686V8.05882C17.4561 8.62092 17.3214 9.14379 17.0521 9.62745C16.7951 10.1111 16.4401 10.4967 15.9871 10.7843C15.5342 11.0719 15.0385 11.2157 14.4999 11.2157C14.2058 11.2157 13.9245 11.1728 13.656 11.0871C13.6561 11.0777 13.6561 11.0683 13.6561 11.0588V9.15685C13.6561 8.38957 13.4751 7.66156 13.1063 6.99505C12.7538 6.33606 12.2563 5.80021 11.6208 5.41224C11.6844 5.11707 11.7872 4.83586 11.9292 4.56863C12.1985 4.08497 12.5596 3.70588 13.0126 3.43137ZM16.9717 18H19.4575C19.8859 18 20.247 17.8366 20.5408 17.5098C20.8468 17.183 20.9999 16.7974 20.9999 16.3529C20.9999 15.9085 20.9264 15.549 20.7795 15.2745C20.5225 14.8301 20.1552 14.4183 19.6778 14.0392C19.1025 13.5686 18.4231 13.2026 17.6397 12.9412C16.7094 12.6275 15.6628 12.4706 14.4999 12.4706C14.1251 12.4706 13.7625 12.4869 13.4119 12.5195C13.3304 12.7527 13.2285 12.9801 13.1063 13.201C12.8287 13.7201 12.4623 14.1648 12.0115 14.5254C12.3576 14.6008 12.6944 14.6933 13.0215 14.8035C13.9242 15.105 14.7329 15.5354 15.4309 16.1048C16.0015 16.5591 16.4746 17.0793 16.8183 17.6737L16.8283 17.6909L16.8376 17.7083C16.8885 17.8034 16.933 17.9008 16.9717 18Z" fill="#464E53"/>
<path d="M9.5 6C8.96139 6 8.46563 6.14379 8.01271 6.43137C7.55979 6.70588 7.19868 7.08497 6.92938 7.56863C6.67232 8.05229 6.54379 8.5817 6.54379 9.15686V11.0588C6.54379 11.6209 6.67232 12.1438 6.92938 12.6275C7.19868 13.1111 7.55979 13.4967 8.01271 13.7843C8.46563 14.0719 8.96139 14.2157 9.5 14.2157C10.0386 14.2157 10.5344 14.0719 10.9873 13.7843C11.4402 13.4967 11.7952 13.1111 12.0523 12.6275C12.3216 12.1438 12.4562 11.6209 12.4562 11.0588V9.15686C12.4562 8.5817 12.3216 8.05229 12.0523 7.56863C11.7952 7.08497 11.4402 6.70588 10.9873 6.43137C10.5344 6.14379 10.0386 6 9.5 6ZM9.5 21H4.54237C4.11394 21 3.7467 20.8366 3.44068 20.5098C3.14689 20.183 3 19.7974 3 19.3529C3 18.9085 3.07345 18.549 3.22034 18.2745C3.4774 17.8301 3.84463 17.4183 4.32203 17.0392C4.89736 16.5686 5.57674 16.2026 6.36017 15.9412C7.29049 15.6275 8.3371 15.4706 9.5 15.4706C10.6629 15.4706 11.7095 15.6275 12.6398 15.9412C13.4233 16.2026 14.1026 16.5686 14.678 17.0392C15.1554 17.4183 15.5226 17.8301 15.7797 18.2745C15.9266 18.549 16 18.9085 16 19.3529C16 19.7974 15.847 20.183 15.541 20.5098C15.2472 20.8366 14.8861 21 14.4576 21H9.5Z" fill="#464E53"/>
</svg>
