<svg width="24" height="24" viewBox="0 0 24 24" fill="none" xmlns="http://www.w3.org/2000/svg">
<path fill-rule="evenodd" clip-rule="evenodd" d="M12.8935 15.1993C12.7912 15.2788 12.6889 15.3582 12.6618 15.3582C12.3207 15.6155 11.2974 14.5348 10.0792 12.5793C8.81217 10.7267 8.32487 9.33729 8.61725 9.13145C8.61725 9.07998 8.95836 8.87414 9.05582 8.82268C10.3228 7.94784 10.5177 7.02154 9.54313 5.06604C9.10455 4.13974 8.51979 3.62513 7.88629 3.52221C7.2528 3.41928 6.71678 3.67659 5.83963 4.24266L5.59598 4.39705L5.35233 4.55143C3.64678 5.68356 4.37772 10.2636 7.15535 14.5348C9.93296 18.8575 13.7826 21.3277 15.4395 20.247C15.5857 20.1955 15.9755 19.9382 16.0242 19.8868C16.7064 19.4751 17.145 19.0634 17.3399 18.5488C17.5836 17.8283 17.3887 17.0564 16.6577 16.1301C15.4882 14.6377 14.6111 14.329 13.5877 14.7921C13.4933 14.8254 13.3989 14.88 13.2914 14.9423C13.2324 14.9765 13.1695 15.013 13.1004 15.0494C13.0571 15.0723 12.9753 15.1358 12.8935 15.1993ZM13.4143 10.3134C13.1214 10.0205 13.161 9.50603 13.5027 9.16432L14.8285 7.83856L13.5026 6.51269C13.1609 6.17098 13.1213 5.65653 13.4142 5.36364C13.7071 5.07074 14.2216 5.11032 14.5633 5.45203L15.8891 6.7779L17.215 5.45201C17.5567 5.1103 18.0712 5.07073 18.3641 5.36362C18.657 5.65651 18.6174 6.17096 18.2757 6.51267L16.9498 7.83856L18.2756 9.16434C18.6173 9.50605 18.6569 10.0205 18.364 10.3134C18.0711 10.6063 17.5566 10.5667 17.2149 10.225L15.8891 8.89922L14.5634 10.225C14.2217 10.5667 13.7072 10.6063 13.4143 10.3134Z" fill="#464E53"/>
</svg>
