<svg width="24" height="24" viewBox="0 0 24 24" fill="none" xmlns="http://www.w3.org/2000/svg">
<path fill-rule="evenodd" clip-rule="evenodd" d="M12.75 15.4536C15.7097 15.0845 18 12.5597 18 9.5C18 6.18629 15.3137 3.5 12 3.5C8.68629 3.5 6 6.18629 6 9.5C6 12.5597 8.29027 15.0845 11.25 15.4536V19.75C11.25 20.1642 11.5858 20.5 12 20.5C12.4142 20.5 12.75 20.1642 12.75 19.75V15.4536ZM15 8C15 8.82843 14.3284 9.5 13.5 9.5C12.6716 9.5 12 8.82843 12 8C12 7.17157 12.6716 6.5 13.5 6.5C14.3284 6.5 15 7.17157 15 8Z" fill="#464E53"/>
</svg>
