<svg width="24" height="24" viewBox="0 0 24 24" fill="none" xmlns="http://www.w3.org/2000/svg">
<path fill-rule="evenodd" clip-rule="evenodd" d="M14.4622 5.76993C14.4622 4.80343 15.2457 4.01993 16.2122 4.01993H20C20.4142 4.01993 20.75 4.35571 20.75 4.76993C20.75 5.18414 20.4142 5.51993 20 5.51993H16.2122C16.0741 5.51993 15.9622 5.63186 15.9622 5.76993V18.2362C15.9622 18.3743 16.0741 18.4862 16.2122 18.4862H20C20.4142 18.4862 20.75 18.822 20.75 19.2362C20.75 19.6504 20.4142 19.9862 20 19.9862H16.2122C15.2457 19.9862 14.4622 19.2027 14.4622 18.2362V5.76993Z" fill="#464E53"/>
<path fill-rule="evenodd" clip-rule="evenodd" d="M3.25 4.76993C3.25 4.35571 3.58579 4.01993 4 4.01993H11.2417C12.2082 4.01993 12.9917 4.80343 12.9917 5.76993V18.2362C12.9917 19.2027 12.2082 19.9862 11.2417 19.9862H4C3.58579 19.9862 3.25 19.6504 3.25 19.2362C3.25 18.822 3.58579 18.4862 4 18.4862H11.2417C11.3798 18.4862 11.4917 18.3743 11.4917 18.2362V5.76993C11.4917 5.63186 11.3798 5.51993 11.2417 5.51993H4C3.58579 5.51993 3.25 5.18414 3.25 4.76993Z" fill="#464E53"/>
</svg>
