<svg width="24" height="24" viewBox="0 0 24 24" fill="none" xmlns="http://www.w3.org/2000/svg">
<path fill-rule="evenodd" clip-rule="evenodd" d="M5.5 3.75928C4.39543 3.75928 3.5 4.65471 3.5 5.75928V15.7593C3.5 16.8638 4.39543 17.7593 5.5 17.7593H7.57852L11.9999 12.4202L16.4213 17.7593H18.5C19.6046 17.7593 20.5 16.8638 20.5 15.7593V5.75928C20.5 4.65471 19.6046 3.75928 18.5 3.75928H5.5ZM6.7502 6.49609C6.30148 6.49609 6.00391 6.83188 6.00391 7.24609C6.00391 7.6603 6.30148 7.99608 6.7502 7.99608H17.1914C17.6401 7.99608 18.0039 7.6603 18.0039 7.24609C18.0039 6.83188 17.6401 6.49609 17.1914 6.49609H6.7502ZM6.01184 10.2415C6.01184 9.82733 6.37561 9.49155 6.82434 9.49155L10.7136 9.49156C11.1624 9.49156 11.5261 9.82735 11.5261 10.2416C11.5261 10.6558 11.1624 10.9916 10.7136 10.9916L6.82434 10.9915C6.37561 10.9915 6.01184 10.6558 6.01184 10.2415ZM11.9999 14.4277L7.18604 20.2407H16.8137L11.9999 14.4277Z" fill="#464E53"/>
</svg>
