<svg width="24" height="24" viewBox="0 0 24 24" fill="none" xmlns="http://www.w3.org/2000/svg">
<path d="M4 9C4 8.44772 4.44772 8 5 8H7.61626C7.86331 8 8.1016 7.90856 8.28523 7.74329L11.6648 4.70166C12.1796 4.23832 13 4.60367 13 5.29629V18.7037C13 19.3963 12.1796 19.7617 11.6648 19.2983L8.28523 16.2567C8.1016 16.0914 7.86331 16 7.61626 16H5C4.44772 16 4 15.5523 4 15V9Z" fill="#464E53"/>
<path d="M14.2695 12C14.2695 11.5858 14.6053 11.25 15.0195 11.25H20.25C20.6642 11.25 21 11.5858 21 12C21 12.4142 20.6642 12.75 20.25 12.75H15.0195C14.6053 12.75 14.2695 12.4142 14.2695 12Z" fill="#464E53"/>
</svg>
