<svg width="24" height="24" viewBox="0 0 24 24" fill="none" xmlns="http://www.w3.org/2000/svg">
<path d="M4 9C4 8.44772 4.44772 8 5 8H7.61626C7.86331 8 8.1016 7.90856 8.28523 7.74329L11.6648 4.70166C12.1796 4.23832 13 4.60367 13 5.29629V18.7037C13 19.3963 12.1796 19.7617 11.6648 19.2983L8.28523 16.2567C8.1016 16.0914 7.86331 16 7.61626 16H5C4.44772 16 4 15.5523 4 15V9Z" fill="#464E53"/>
<path d="M17.8604 16.6397C20.6988 13.8371 20.6988 9.2931 17.8604 6.49048" stroke="#464E53" stroke-width="1.5" stroke-linecap="round"/>
<path d="M15.8032 14.3331C17.3515 12.8044 17.3515 10.3258 15.8032 8.79715" stroke="#464E53" stroke-width="1.5" stroke-linecap="round"/>
</svg>
