<svg width="24" height="24" viewBox="0 0 24 24" fill="none" xmlns="http://www.w3.org/2000/svg">
<path d="M9.1875 15.3957V8.60429C9.1875 8.18891 9.61871 7.92849 9.96527 8.13458L15.6756 11.5303C16.0248 11.738 16.0248 12.262 15.6756 12.4697L9.96527 15.8654C9.61871 16.0715 9.1875 15.8111 9.1875 15.3957Z" fill="#464E53"/>
<path fill-rule="evenodd" clip-rule="evenodd" d="M12 20C16.4183 20 20 16.4183 20 12C20 7.58172 16.4183 4 12 4C7.58172 4 4 7.58172 4 12C4 16.4183 7.58172 20 12 20ZM12 21C16.9706 21 21 16.9706 21 12C21 7.02944 16.9706 3 12 3C7.02944 3 3 7.02944 3 12C3 16.9706 7.02944 21 12 21Z" fill="#464E53"/>
</svg>
