<svg width="24" height="24" viewBox="0 0 24 24" fill="none" xmlns="http://www.w3.org/2000/svg">
<path fill-rule="evenodd" clip-rule="evenodd" d="M3.5 6.88144C3.5 5.83873 4.34568 4.99344 5.38889 4.99344H14.3611C15.4043 4.99344 16.25 5.83873 16.25 6.88144V8.69605L19.5178 6.88144C19.9585 6.63675 20.5 6.95524 20.5 7.45909V16.541C20.5 17.0449 19.9585 17.3634 19.5178 17.1187L16.25 15.3041V17.1054C16.25 18.1482 15.4043 18.9934 14.3611 18.9934H5.38889C4.34568 18.9934 3.5 18.1482 3.5 17.1054V6.88144ZM13.0396 9.21769C13.3325 9.51045 13.3325 9.9851 13.0396 10.2779L11.0699 12.2466L13.0396 14.2154C13.3325 14.5081 13.3325 14.9828 13.0396 15.2755C12.7467 15.5683 12.2718 15.5683 11.9789 15.2755L10.0093 13.3068L8.03961 15.2755C7.74671 15.5683 7.27184 15.5683 6.97895 15.2755C6.68605 14.9828 6.68605 14.5081 6.97895 14.2153L8.94861 12.2466L6.97895 10.2779C6.68605 9.98511 6.68605 9.51046 6.97895 9.21771C7.27184 8.92495 7.74671 8.92495 8.03961 9.21771L10.0093 11.1864L11.9789 9.21769C12.2718 8.92493 12.7467 8.92493 13.0396 9.21769Z" fill="#464E53"/>
</svg>
