<svg width="24" height="24" viewBox="0 0 24 24" fill="none" xmlns="http://www.w3.org/2000/svg">
<path fill-rule="evenodd" clip-rule="evenodd" d="M3.71954 19.2197C3.42665 19.5126 3.42665 19.9874 3.71954 20.2803C4.01243 20.5732 4.48731 20.5732 4.7802 20.2803L20.2802 4.78033C20.5731 4.48744 20.5731 4.01256 20.2802 3.71967C19.9873 3.42678 19.5124 3.42678 19.2195 3.71967L3.71954 19.2197ZM16.8341 14.8936C15.8743 13.9338 14.6321 13.2587 13.2425 13.0037L14.5595 11.6867C15.8601 12.1004 17.024 12.8208 17.9655 13.7622C18.2779 14.0747 18.2779 14.5812 17.9655 14.8936C17.6531 15.206 17.1465 15.206 16.8341 14.8936ZM20.4343 11.2936C19.5069 10.3662 18.428 9.59104 17.2378 9.00837L18.4255 7.82068C19.5846 8.44746 20.6418 9.23844 21.5656 10.1622C21.8781 10.4747 21.8781 10.9812 21.5656 11.2936C21.2532 11.606 20.7467 11.606 20.4343 11.2936ZM13.8166 7.93739L15.1783 6.57563C14.1589 6.33011 13.0946 6.20001 12 6.20001C8.26454 6.20001 4.88146 7.71505 2.43427 10.1622C2.12185 10.4747 2.12185 10.9812 2.43427 11.2936C2.74669 11.606 3.25322 11.606 3.56564 11.2936C5.72504 9.13421 8.70593 7.80001 12 7.80001C12.6176 7.80001 13.2243 7.84692 13.8166 7.93739ZM6.62649 15.1275L10.2892 11.4648C8.64551 11.8035 7.17614 12.6202 6.03412 13.7622C5.7217 14.0747 5.7217 14.5812 6.03412 14.8936C6.19712 15.0566 6.41295 15.1346 6.62649 15.1275ZM10.7656 18.4936C11.0824 18.1769 11.5177 17.9824 11.9999 17.9824C12.4822 17.9824 12.9175 18.1769 13.2342 18.4936C13.5466 18.806 14.0532 18.806 14.3656 18.4936C14.678 18.1812 14.678 17.6747 14.3656 17.3623C13.761 16.7577 12.9235 16.3824 11.9999 16.3824C11.0763 16.3824 10.2388 16.7577 9.63422 17.3623C9.3218 17.6747 9.3218 18.1812 9.63422 18.4936C9.94664 18.806 10.4532 18.806 10.7656 18.4936Z" fill="#464E53"/>
</svg>
