<svg width="24" height="24" viewBox="0 0 24 24" fill="none" xmlns="http://www.w3.org/2000/svg">
<path fill-rule="evenodd" clip-rule="evenodd" d="M6.56066 4.43931C5.97487 3.85352 5.02513 3.85352 4.43934 4.43931C3.85355 5.0251 3.85355 5.97484 4.43934 6.56063L9.87882 12.0001L4.4396 17.4393C3.85382 18.0251 3.85381 18.9749 4.4396 19.5606C5.02539 20.1464 5.97514 20.1464 6.56092 19.5606L12.0001 14.1214L17.4393 19.5606C18.0251 20.1464 18.9749 20.1464 19.5607 19.5606C20.1464 18.9748 20.1464 18.0251 19.5607 17.4393L14.1215 12.0001L19.5609 6.56065C20.1467 5.97486 20.1467 5.02511 19.5609 4.43933C18.9751 3.85354 18.0254 3.85354 17.4396 4.43933L12.0001 9.87879L6.56066 4.43931Z" fill="#464E53"/>
</svg>
