<svg width="24" height="24" viewBox="0 0 24 24" fill="none" xmlns="http://www.w3.org/2000/svg">
<path fill-rule="evenodd" clip-rule="evenodd" d="M4.54286 12C4.54286 7.88153 7.88153 4.54286 12 4.54286C16.1185 4.54286 19.4571 7.88153 19.4571 12C19.4571 16.1185 16.1185 19.4571 12 19.4571C7.88153 19.4571 4.54286 16.1185 4.54286 12ZM12 3C7.02944 3 3 7.02944 3 12C3 16.9706 7.02944 21 12 21C16.9706 21 21 16.9706 21 12C21 7.02944 16.9706 3 12 3ZM15.8199 15.8198C15.5035 16.1363 14.9904 16.1363 14.6739 15.8198L12 13.1459L9.32591 15.8199C9.00946 16.1364 8.49639 16.1364 8.17993 15.8199C7.86348 15.5035 7.86348 14.9904 8.17993 14.674L10.854 11.9999L8.18004 9.32593C7.86358 9.00947 7.86358 8.4964 8.18004 8.17994C8.49649 7.86349 9.00957 7.86349 9.32602 8.17994L12 10.8539L14.6738 8.18005C14.9903 7.8636 15.5034 7.8636 15.8198 8.18005C16.1363 8.49651 16.1363 9.00958 15.8198 9.32604L13.146 11.9999L15.8199 14.6739C16.1364 14.9903 16.1364 15.5034 15.8199 15.8198Z" fill="#464E53"/>
</svg>
