<svg xmlns="http://www.w3.org/2000/svg" width="24" height="24" viewBox="0 0 24 24" >
<rect x="3" y="5" width="10" height="2" rx="1" />
<rect x="3" y="11" width="6" height="2" rx="1" />
<rect x="3" y="17" width="17" height="2" rx="1" />
<path d="M17.0485 5.09435L21.7836 9.55434C22.0721 9.82613 22.0721 10.2848 21.7836 10.5566L17.0485 15.0166C16.8288 15.2235 16.4681 15.0678 16.4681 14.766V12.114C14.0819 12.0034 12.4847 12.865 11 14.5947C10.7736 14.8585 10.3094 14.7069 10.3472 14.3614C10.8322 9.92017 13.6187 7.98672 16.4681 7.98672V5.34492C16.4681 5.04317 16.8288 4.88744 17.0485 5.09435Z" />
</svg>