<svg xmlns="http://www.w3.org/2000/svg" width="20" height="20" viewBox="0 0 20 20" >
<path fill-rule="evenodd" clip-rule="evenodd" d="M10 3.78571C6.56795 3.78571 3.78571 6.56795 3.78571 10C3.78571 13.4321 6.56795 16.2143 10 16.2143C13.4321 16.2143 16.2143 13.4321 16.2143 10C16.2143 6.56795 13.4321 3.78571 10 3.78571ZM2.5 10C2.5 5.85786 5.85786 2.5 10 2.5C14.1421 2.5 17.5 5.85786 17.5 10C17.5 14.1421 14.1421 17.5 10 17.5C5.85786 17.5 2.5 14.1421 2.5 10ZM10.5172 10V6.17343C10.5172 5.80048 10.2149 5.49815 9.84194 5.49815C9.469 5.49815 9.16667 5.80048 9.16667 6.17343V10.6724C9.16667 10.8734 9.25455 11.054 9.394 11.1777C9.51359 11.2852 9.67176 11.3506 9.8452 11.3506H13.8267C14.1996 11.3506 14.5019 11.0482 14.5019 10.6753C14.5019 10.3023 14.1996 10 13.8267 10L10.5172 10Z" />
</svg>