<svg width="24" height="24" viewBox="0 0 24 24" xmlns="http://www.w3.org/2000/svg">
<path fill-rule="evenodd" clip-rule="evenodd" d="M4.22724 9.46055C5.43006 5.76511 9.13999 3.34793 13.1244 3.9004C17.1089 4.45288 20.0211 7.78828 20.1731 11.6716C20.184 11.9502 20.0394 12.2119 19.7978 12.351C19.5561 12.49 19.2572 12.4835 19.0218 12.3341L16.9759 11.0355C16.6262 10.8136 16.5227 10.3501 16.7447 10.0004C16.9666 9.6507 17.4301 9.54715 17.7798 9.76912L18.4277 10.1804C17.7268 7.71007 15.6247 5.76143 12.9184 5.38619C9.66629 4.93526 6.63548 6.90813 5.65358 9.92481C5.52538 10.3187 5.10216 10.5341 4.70828 10.4059C4.31441 10.2777 4.09904 9.85443 4.22724 9.46055ZM19.2557 13.7633C19.6464 13.9007 19.8519 14.3288 19.7145 14.7196C18.4514 18.313 14.7977 20.6431 10.8783 20.0996C6.95884 19.5562 4.07702 16.3199 3.83924 12.5184C3.82214 12.2451 3.95536 11.9842 4.18676 11.8378C4.41817 11.6913 4.71098 11.6827 4.95063 11.8152L6.98771 12.9413C7.35022 13.1417 7.48163 13.598 7.28123 13.9606C7.08083 14.3231 6.6245 14.4545 6.26199 14.2541L5.59381 13.8847C6.31294 16.3242 8.40192 18.2419 11.0843 18.6138C14.2832 19.0574 17.2681 17.1558 18.2994 14.2222C18.4367 13.8314 18.8649 13.626 19.2557 13.7633ZM11.9999 7.12973C12.3126 7.12973 12.5924 7.32366 12.7022 7.61638L15.5552 15.2244C15.7006 15.6122 15.5041 16.0445 15.1163 16.19C14.7284 16.3354 14.2961 16.1389 14.1507 15.7511L13.6199 14.3357H10.3799L9.84917 15.7511C9.70373 16.1389 9.27142 16.3354 8.88358 16.19C8.49574 16.0445 8.29924 15.6122 8.44468 15.2244L11.2977 7.61638C11.4075 7.32366 11.6873 7.12973 11.9999 7.12973ZM11.9999 10.0157L10.9424 12.8357H13.0574L11.9999 10.0157Z" />
</svg>
