<svg xmlns="http://www.w3.org/2000/svg" width="24" height="24" viewBox="0 0 24 24" >
<path fill-rule="evenodd" clip-rule="evenodd" d="M2.17471 10.0045C3.10176 5.43748 7.13908 2 11.9798 2C16.4062 2 20.1606 4.87418 21.4797 8.85736C21.6447 9.35551 21.3547 9.86602 20.8786 10.0278C20.3323 10.2134 19.7702 9.88486 19.5913 9.36855C18.4993 6.2156 15.5035 3.95224 11.9798 3.95224C8.46338 3.95224 5.47284 6.20627 4.37521 9.34869L5.60804 8.77631C6.06623 8.56359 6.60979 8.76833 6.81378 9.23047C7.01427 9.68471 6.81021 10.2156 6.35709 10.4186L3.00579 11.9199C2.52855 12.1337 1.9615 11.7869 2.00206 11.2345C2.0449 10.651 2.12739 10.2376 2.17471 10.0045ZM21.8253 14.006C20.8982 18.573 16.8609 22.0105 12.0202 22.0105C7.59384 22.0105 3.83944 19.1363 2.52025 15.1531C2.35527 14.655 2.64533 14.1445 3.12142 13.9827C3.66769 13.7971 4.22985 14.1256 4.40868 14.6419C5.50072 17.7949 8.49645 20.0582 12.0202 20.0582C15.5366 20.0582 18.5272 17.8042 19.6248 14.6618L18.392 15.2342C17.9338 15.4469 17.3902 15.2422 17.1862 14.78C16.9857 14.3258 17.1898 13.7949 17.6429 13.5919L20.9942 12.0906C21.4715 11.8768 22.0385 12.2236 21.9979 12.776C21.9551 13.3595 21.8726 13.7729 21.8253 14.006ZM10.8573 6.52918C11.2799 5.50219 12.7202 5.5022 13.1428 6.52918L16.9201 15.7085C17.1405 16.244 16.8893 16.8585 16.3592 17.0811C15.829 17.3037 15.2206 17.05 15.0002 16.5145L14.1918 14.55H9.80817L8.99975 16.5145C8.77939 17.05 8.17098 17.3037 7.64083 17.0811C7.11067 16.8585 6.85953 16.244 7.07989 15.7085L10.8573 6.52918ZM12 9.22358L13.3277 12.45H10.6723L12 9.22358Z" />
</svg>