<svg width="24" height="24" viewBox="0 0 24 24" fill="none" xmlns="http://www.w3.org/2000/svg">
<path d="M4 5C4 4.44772 4.44772 4 5 4H19C19.5523 4 20 4.44772 20 5V7C20 7.55228 19.5523 8 19 8H5C4.44772 8 4 7.55228 4 7V5Z" fill="#464E53"/>
<path fill-rule="evenodd" clip-rule="evenodd" d="M6 9C5.72386 9 5.5 9.22386 5.5 9.5V18C5.5 19.1046 6.39543 20 7.5 20H16.5C17.6046 20 18.5 19.1046 18.5 18V9.5C18.5 9.22386 18.2761 9 18 9H6ZM12.75 11.3049C12.75 10.8907 12.4142 10.5549 12 10.5549C11.5858 10.5549 11.25 10.8907 11.25 11.3049V13.5549H9C8.58579 13.5549 8.25 13.8907 8.25 14.3049C8.25 14.7191 8.58579 15.0549 9 15.0549H11.25V17.3049C11.25 17.7191 11.5858 18.0549 12 18.0549C12.4142 18.0549 12.75 17.7191 12.75 17.3049V15.0549H15C15.4142 15.0549 15.75 14.7191 15.75 14.3049C15.75 13.8907 15.4142 13.5549 15 13.5549H12.75V11.3049Z" fill="#464E53"/>
</svg>
