<svg width="24" height="24" viewBox="0 0 24 24" fill="none" xmlns="http://www.w3.org/2000/svg">
<path d="M4 5C4 4.44772 4.44772 4 5 4H19C19.5523 4 20 4.44772 20 5V7C20 7.55228 19.5523 8 19 8H5C4.44772 8 4 7.55228 4 7V5Z" fill="#464E53"/>
<path fill-rule="evenodd" clip-rule="evenodd" d="M6 9C5.72386 9 5.5 9.22386 5.5 9.5V18C5.5 19.1046 6.39543 20 7.5 20H16.5C17.6046 20 18.5 19.1046 18.5 18V9.5C18.5 9.22386 18.2761 9 18 9H6ZM9.25 11.5C8.83579 11.5 8.5 11.8358 8.5 12.25C8.5 12.6642 8.83579 13 9.25 13H14.75C15.1642 13 15.5 12.6642 15.5 12.25C15.5 11.8358 15.1642 11.5 14.75 11.5H9.25Z" fill="#464E53"/>
</svg>
