<svg xmlns="http://www.w3.org/2000/svg" width="24" height="24" viewBox="0 0 24 24" >
<path fill-rule="evenodd" clip-rule="evenodd" d="M13.7803 5.28033C14.0732 4.98744 14.0732 4.51256 13.7803 4.21967C13.4874 3.92678 13.0126 3.92678 12.7197 4.21967L8.71967 8.21967C8.42678 8.51256 8.42678 8.98744 8.71967 9.28033L12.7197 13.2803C13.0126 13.5732 13.4874 13.5732 13.7803 13.2803C14.0732 12.9874 14.0732 12.5126 13.7803 12.2197L11.0607 9.5H14.25C16.5972 9.5 18.5 11.4028 18.5 13.75C18.5 16.0972 16.5972 18 14.25 18H4.75C4.33579 18 4 18.3358 4 18.75C4 19.1642 4.33579 19.5 4.75 19.5H14.25C17.4256 19.5 20 16.9256 20 13.75C20 10.5744 17.4256 8 14.25 8H11.0607L13.7803 5.28033Z" />
</svg>