<svg width="24" height="24" viewBox="0 0 24 24" fill="none" xmlns="http://www.w3.org/2000/svg">
<path fill-rule="evenodd" clip-rule="evenodd" d="M17.0377 10.7963C17.3305 11.0892 17.3305 11.5641 17.0377 11.8569L13.2374 15.6572C13.0182 15.8764 12.7552 16.0253 12.4766 16.1039C12.347 16.2107 12.181 16.2748 12 16.2748C11.819 16.2748 11.653 16.2107 11.5234 16.1039C11.2448 16.0253 10.9818 15.8764 10.7626 15.6572L6.96235 11.8569C6.66945 11.5641 6.66945 11.0892 6.96235 10.7963C7.25524 10.5034 7.73011 10.5034 8.02301 10.7963L11.25 14.0233L11.25 4.75C11.25 4.33579 11.5858 4 12 4C12.4142 4 12.75 4.33579 12.75 4.75L12.75 14.0233L15.977 10.7963C16.2699 10.5034 16.7448 10.5034 17.0377 10.7963ZM5.75 15C5.75 14.5858 5.41421 14.25 5 14.25C4.58579 14.25 4.25 14.5858 4.25 15V17.5C4.25 18.7426 5.25736 19.75 6.5 19.75H17.5C18.7426 19.75 19.75 18.7426 19.75 17.5V15C19.75 14.5858 19.4142 14.25 19 14.25C18.5858 14.25 18.25 14.5858 18.25 15V17.5C18.25 17.9142 17.9142 18.25 17.5 18.25H6.5C6.08579 18.25 5.75 17.9142 5.75 17.5V15Z" fill="#464E53"/>
</svg>
