<svg xmlns="http://www.w3.org/2000/svg" width="24" height="24" viewBox="0 0 24 24" >
<path fill-rule="evenodd" clip-rule="evenodd" d="M3.99854 19.7694C3.99854 19.3552 4.33432 19.0194 4.74854 19.0194L20.2485 19.0194C20.6627 19.0194 20.9985 19.3552 20.9985 19.7694C20.9985 20.1837 20.6627 20.5194 20.2485 20.5194L4.74854 20.5194C4.33432 20.5194 3.99854 20.1837 3.99854 19.7694Z" />
<path d="M11.463 4.85131C11.8132 4.9486 12.1834 4.9486 12.5336 4.85131L18.6334 3.15692C19.4972 2.91697 20.216 3.84728 19.7658 4.62257L12.8631 16.5106C12.4776 17.1745 11.519 17.1745 11.1335 16.5106L4.23076 4.62257C3.78059 3.84728 4.49939 2.91697 5.3632 3.15692L11.463 4.85131Z" />
</svg>
