<svg xmlns="http://www.w3.org/2000/svg" width="18" height="18" viewBox="0 0 18 18" >
<path d="M2.9087 6.11383C4.13881 3.52085 6.94734 1.90564 9.94409 2.32066C13.2369 2.77668 15.6433 5.52972 15.7689 8.73497C15.7803 9.02647 15.6289 9.30023 15.3758 9.44572C15.1226 9.59122 14.8095 9.58443 14.563 9.4281L12.3426 8.07353C11.9763 7.84131 11.8678 7.35646 12.1004 6.9906C12.3329 6.62474 12.8183 6.51641 13.1846 6.74864L13.8453 7.11441C13.1817 5.42921 11.6512 4.14135 9.7283 3.87505C7.44902 3.55939 5.30943 4.77485 4.35311 6.73473C4.18026 7.08896 3.78194 7.29701 3.4071 7.17515C2.95683 7.02877 2.70577 6.5416 2.9087 6.11383Z" />
<path d="M2.63508 8.72148C2.87747 8.56831 3.18417 8.55925 3.4352 8.69785L5.56889 9.84201C5.9486 10.0517 6.08625 10.5291 5.87634 10.9083C5.66643 11.2876 5.18845 11.425 4.80874 11.2154L4.19109 10.9083C4.85697 12.5882 6.38507 13.871 8.30372 14.1367C10.5409 14.4465 12.6437 13.2812 13.6249 11.3845C13.806 11.0344 14.209 10.8357 14.5809 10.9663C15.0277 11.1231 15.2673 11.616 15.0544 12.0389C13.7906 14.5491 11.0301 16.0985 8.08793 15.6911C4.84878 15.2425 2.46757 12.5712 2.27107 9.43353C2.25316 9.1476 2.3927 8.87466 2.63508 8.72148Z" />
</svg>