<svg width="24" height="24" viewBox="0 0 24 24" fill="none" xmlns="http://www.w3.org/2000/svg">
<path fill-rule="evenodd" clip-rule="evenodd" d="M6.96235 9.47849C6.66945 9.1856 6.66945 8.71072 6.96235 8.41783L10.7626 4.61761C10.9818 4.39836 11.2448 4.24944 11.5234 4.17087C11.653 4.06412 11.819 4 12 4C12.181 4 12.347 4.06411 12.4766 4.17087C12.7552 4.24944 13.0182 4.39836 13.2374 4.61761L17.0377 8.41783C17.3305 8.71072 17.3305 9.1856 17.0377 9.47849C16.7448 9.77138 16.2699 9.77138 15.977 9.47849L12.75 6.2515L12.75 15.5248C12.75 15.939 12.4142 16.2748 12 16.2748C11.5858 16.2748 11.25 15.939 11.25 15.5248L11.25 6.2515L8.02301 9.47849C7.73011 9.77138 7.25524 9.77138 6.96235 9.47849ZM5.75 15C5.75 14.5858 5.41421 14.25 5 14.25C4.58579 14.25 4.25 14.5858 4.25 15V17.5C4.25 18.7426 5.25736 19.75 6.5 19.75H17.5C18.7426 19.75 19.75 18.7426 19.75 17.5V15C19.75 14.5858 19.4142 14.25 19 14.25C18.5858 14.25 18.25 14.5858 18.25 15V17.5C18.25 17.9142 17.9142 18.25 17.5 18.25H6.5C6.08579 18.25 5.75 17.9142 5.75 17.5V15Z" fill="#464E53"/>
</svg>
