<svg width="24" height="24" viewBox="0 0 24 24"  xmlns="http://www.w3.org/2000/svg">
<path fill-rule="evenodd" clip-rule="evenodd" d="M5 18.7694C5 18.3552 5.33579 18.0194 5.75 18.0194L18.25 18.0194C18.6642 18.0194 19 18.3552 19 18.7694C19 19.1837 18.6642 19.5194 18.25 19.5194L5.75 19.5194C5.33579 19.5194 5 19.1837 5 18.7694Z" />
<path d="M12.3806 5.04332L17.7528 4.02693C18.6056 3.86558 19.245 4.79283 18.7909 5.53259L12.8511 15.2107C12.4611 15.8461 11.5379 15.8467 11.1471 15.2117L5.18618 5.52515C4.73095 4.78541 5.37042 3.85694 6.22385 4.01851L11.6368 5.04328C11.8826 5.0898 12.1349 5.08982 12.3806 5.04332Z" />
</svg>
