<svg width="24" height="24" viewBox="0 0 24 24" fill="none" xmlns="http://www.w3.org/2000/svg">
<path fill-rule="evenodd" clip-rule="evenodd" d="M7 4C5.34315 4 4 5.34315 4 7V17C4 18.6569 5.34315 20 7 20H17C18.6569 20 20 18.6569 20 17V7C20 5.34315 18.6569 4 17 4H7ZM12.0332 17.0377C11.7403 17.3305 11.2655 17.3305 10.9726 17.0377L7.17235 13.2374C6.48894 12.554 6.48893 11.446 7.17235 10.7626L10.9726 6.96235C11.2655 6.66945 11.7403 6.66945 12.0332 6.96235C12.3261 7.25524 12.3261 7.73011 12.0332 8.02301L8.80623 11.25L16.2492 11.25C16.6635 11.25 16.9992 11.5858 16.9992 12C16.9992 12.4142 16.6635 12.75 16.2492 12.75L8.80624 12.75L12.0332 15.977C12.3261 16.2699 12.3261 16.7448 12.0332 17.0377Z" fill="#464E53"/>
</svg>
