<svg xmlns="http://www.w3.org/2000/svg" width="18" height="18" viewBox="0 0 18 18" >
<path fill-rule="evenodd" clip-rule="evenodd" d="M8.25 2.25C8.25 1.83579 8.58579 1.5 9 1.5C9.41421 1.5 9.75 1.83579 9.75 2.25V3.0487C12.3092 3.38798 13.875 5.44631 13.875 7.52817V10.3619C13.875 11.1185 14.2401 11.8287 14.8556 12.2689L15.125 12.4616C15.5173 12.7422 15.75 13.1949 15.75 13.6772V13.8112C15.75 14.0535 15.5535 14.25 15.3112 14.25H2.6888C2.44646 14.25 2.25 14.0535 2.25 13.8112V13.6772C2.25 13.1949 2.48274 12.7422 2.875 12.4616L3.14445 12.2689C3.75986 11.8287 4.125 11.1185 4.125 10.3619V7.875C4.125 5.4762 5.69078 3.39055 8.25 3.04892V2.25ZM10.8821 15C10.8821 15.8284 10.2106 16.5 9.38214 16.5H8.61786C7.78943 16.5 7.11786 15.8284 7.11786 15H10.8821Z" />
</svg>
