<svg xmlns="http://www.w3.org/2000/svg" width="24" height="24" viewBox="0 0 24 24" >
<path d="M9.5 20H14.5C14.5 21.1046 13.6046 22 12.5 22H11.5C10.3954 22 9.5 21.1046 9.5 20Z" />
<rect x="11" y="2" width="2" height="4" rx="1" />
<path d="M5.5 10.4872C5.5 6.99626 8.01418 4 12 4C15.9858 4 18.5 6.99058 18.5 10.4872V13.8158C18.5 14.8247 18.9869 15.7716 19.8074 16.3585L20.1667 16.6155C20.6897 16.9897 21 17.5932 21 18.2362V18.4149C21 18.7381 20.7381 19 20.4149 19H3.58506C3.26194 19 3 18.7381 3 18.4149V18.2362C3 17.5932 3.31032 16.9897 3.83333 16.6155L4.1926 16.3585C5.01314 15.7716 5.5 14.8247 5.5 13.8158V10.4872Z" />
</svg>
