<svg width="24" height="24" viewBox="0 0 24 24" fill="none" xmlns="http://www.w3.org/2000/svg">
<path d="M9.5 19H14.5C14.5 20.1046 13.6046 21 12.5 21H11.5C10.3954 21 9.5 20.1046 9.5 19Z" fill="#464E53"/>
<rect x="11" y="3" width="2" height="4" rx="1" fill="#464E53"/>
<path d="M4 17.2362V17.4149C4 17.5466 4.04349 17.6681 4.11688 17.7659L15.562 6.30915C14.6024 5.49269 13.3587 5 12 5C8.96243 5 6.5 7.46243 6.5 10.5V12.8158C6.5 13.8247 6.01314 14.7716 5.1926 15.3585L4.83333 15.6155C4.31032 15.9897 4 16.5932 4 17.2362Z" fill="#464E53"/>
<path d="M20 17.4149V17.2362C20 16.5932 19.6897 15.9897 19.1667 15.6155L18.8074 15.3585C17.9869 14.7715 17.5 13.8247 17.5 12.8158V10.5C17.5 9.92977 17.4132 9.37981 17.2522 8.86261L8.125 18H19.4149C19.7381 18 20 17.7381 20 17.4149Z" fill="#464E53"/>
<path fill-rule="evenodd" clip-rule="evenodd" d="M3.26849 20.7381C2.9756 20.4452 2.9756 19.9703 3.26849 19.6774L18.7685 4.17743C19.0614 3.88454 19.5363 3.88454 19.8291 4.17743C20.122 4.47033 20.122 4.9452 19.8291 5.23809L4.32915 20.7381C4.03626 21.031 3.56138 21.031 3.26849 20.7381Z" fill="#464E53"/>
</svg>
