<svg xmlns="http://www.w3.org/2000/svg" width="24" height="24" viewBox="0 0 24 24" >
<path fill-rule="evenodd" clip-rule="evenodd" d="M2.21661 21.7835C1.92372 21.4906 1.92372 21.0157 2.21661 20.7228L20.7229 2.21652C21.0158 1.92363 21.4907 1.92363 21.7836 2.21652C22.0765 2.50942 22.0765 2.98429 21.7836 3.27718L3.27727 21.7835C2.98438 22.0764 2.5095 22.0764 2.21661 21.7835Z" />
<path fill-rule="evenodd" clip-rule="evenodd" d="M12 2C11.4477 2 11 2.44772 11 3V4.06556C7.59829 4.52172 5.5 7.29803 5.5 10.4872V13.8158C5.5 14.8247 5.01314 15.7716 4.1926 16.3585L3.83333 16.6155C3.31032 16.9897 3 17.5932 3 18.2362V18.4149C3 18.5469 3.04367 18.6686 3.11735 18.7665C3.14027 18.7401 3.16426 18.7144 3.18932 18.6893L16.3368 5.54184C15.454 4.77249 14.326 4.24295 13 4.06544V3C13 2.44772 12.5523 2 12 2ZM18.0664 8.05492L7.1213 19H20.4149C20.7381 19 21 18.7381 21 18.4149V18.2362C21 17.5932 20.6897 16.9897 20.1667 16.6155L19.8074 16.3585C18.9869 15.7716 18.5 14.8247 18.5 13.8158V10.4872C18.5 9.63429 18.3504 8.81153 18.0664 8.05492ZM12.5 22C13.6046 22 14.5 21.1046 14.5 20H9.5C9.5 21.1046 10.3954 22 11.5 22H12.5Z" />
</svg>