<svg width="24" height="24" viewBox="0 0 24 24" fill="none" xmlns="http://www.w3.org/2000/svg">
<path fill-rule="evenodd" clip-rule="evenodd" d="M3.83936 7.60405C3.83936 5.2179 5.77371 3.28354 8.15987 3.28354C10.546 3.28354 12.4804 5.2179 12.4804 7.60405C12.4804 8.71657 12.0599 9.73087 11.3692 10.4967L11.8306 11.6503C11.8832 11.7817 11.7864 11.9246 11.6449 11.9246H8.15987C5.77371 11.9246 3.83936 9.9902 3.83936 7.60405ZM6.03677 8.20403C6.36814 8.20403 6.63677 7.9354 6.63677 7.60403C6.63677 7.27266 6.36814 7.00403 6.03677 7.00403C5.7054 7.00403 5.43677 7.27266 5.43677 7.60403C5.43677 7.9354 5.7054 8.20403 6.03677 8.20403ZM8.15981 8.20403C8.49119 8.20403 8.75981 7.9354 8.75981 7.60403C8.75981 7.27266 8.49119 7.00403 8.15981 7.00403C7.82844 7.00403 7.55981 7.27266 7.55981 7.60403C7.55981 7.9354 7.82844 8.20403 8.15981 8.20403ZM10.8831 7.60403C10.8831 7.9354 10.6145 8.20403 10.2831 8.20403C9.95173 8.20403 9.68311 7.9354 9.68311 7.60403C9.68311 7.27266 9.95173 7.00403 10.2831 7.00403C10.6145 7.00403 10.8831 7.27266 10.8831 7.60403Z" fill="#464E53"/>
<path fill-rule="evenodd" clip-rule="evenodd" d="M16.5244 3.02425C17.2211 3.16082 17.6753 3.83638 17.5387 4.53316L16.8236 8.18129L19.2941 8.18129C20.0041 8.18129 20.5797 8.75689 20.5797 9.46692C20.5797 10.177 20.0041 10.7526 19.2941 10.7526H16.3197L16.0855 11.9472C15.9489 12.6439 15.2734 13.0981 14.5766 12.9615C13.8798 12.8249 13.4257 12.1494 13.5623 11.4526L15.0155 4.03859C15.152 3.34181 15.8276 2.88768 16.5244 3.02425ZM15.2786 16.0629L18.1568 16.0629C18.8668 16.0629 19.4424 15.4874 19.4424 14.7773C19.4424 14.0673 18.8668 13.4917 18.1568 13.4917L11.8344 13.4917C11.1244 13.4917 10.5488 14.0673 10.5488 14.7773C10.5488 15.4873 11.1244 16.0629 11.8344 16.0629L12.6584 16.0629L11.9912 19.4668C11.8546 20.1636 12.3088 20.8392 13.0055 20.9757C13.7023 21.1123 14.3779 20.6582 14.5145 19.9614L15.2786 16.0629ZM4.70604 16.0629H7.10017L6.45855 19.4663C6.3217 20.1631 6.77556 20.8388 7.47229 20.9757C8.16901 21.1125 8.84475 20.6586 8.9816 19.9619L9.90129 15.0835C9.99279 14.6177 9.82021 14.1612 9.48751 13.8689C9.2548 13.6359 8.93311 13.4917 8.57774 13.4917H4.70604C3.99601 13.4917 3.42041 14.0673 3.42041 14.7773C3.42041 15.4873 3.99601 16.0629 4.70604 16.0629Z" fill="#464E53"/>
</svg>
