<svg width="24" height="24" viewBox="0 0 24 24" fill="none" xmlns="http://www.w3.org/2000/svg">
<path fill-rule="evenodd" clip-rule="evenodd" d="M7.93727 18.3054C9.10801 19.0613 10.5028 19.5 12 19.5H17.824C18.1777 19.5 18.4196 19.1427 18.2882 18.8143L17.5711 17.0214C18.7701 15.692 19.5 13.9312 19.5 12C19.5 10.5028 19.0613 9.10801 18.3054 7.93727L7.93727 18.3054ZM16.2087 5.7913C15.0087 4.97626 13.56 4.5 12 4.5C7.85786 4.5 4.5 7.85786 4.5 12C4.5 13.56 4.97626 15.0087 5.7913 16.2087L16.2087 5.7913Z" fill="#464E53"/>
<path fill-rule="evenodd" clip-rule="evenodd" d="M3.70489 20.3516C3.412 20.0587 3.412 19.5838 3.70489 19.2909L19.0302 3.96967C19.3231 3.67678 19.798 3.67678 20.0909 3.96967C20.3838 4.26256 20.3838 4.73744 20.0909 5.03033L4.76555 20.3516C4.47266 20.6445 3.99778 20.6445 3.70489 20.3516Z" fill="#464E53"/>
</svg>
