<svg width="24" height="24" viewBox="0 0 24 24" fill="none" xmlns="http://www.w3.org/2000/svg">
<path fill-rule="evenodd" clip-rule="evenodd" d="M7 3.75C7 3.33579 7.33579 3 7.75 3C8.16421 3 8.5 3.33579 8.5 3.75V5H7V3.75ZM17 5H18.5C19.6046 5 20.5 5.89543 20.5 7V18C20.5 19.1046 19.6046 20 18.5 20H5.5C4.39543 20 3.5 19.1046 3.5 18V7C3.5 5.89543 4.39543 5 5.5 5H7V5.75C7 6.16421 7.33579 6.5 7.75 6.5C8.16421 6.5 8.5 6.16421 8.5 5.75V5H15.5V5.75C15.5 6.16421 15.8358 6.5 16.25 6.5C16.6642 6.5 17 6.16421 17 5.75V5ZM17 5V3.75C17 3.33579 16.6642 3 16.25 3C15.8358 3 15.5 3.33579 15.5 3.75V5H17ZM5 9C5 8.44772 5.44772 8 6 8H18C18.5523 8 19 8.44772 19 9V17.5C19 18.0523 18.5523 18.5 18 18.5H6C5.44772 18.5 5 18.0523 5 17.5V9ZM7.7 9.75C7.3134 9.75 7 10.0634 7 10.45V10.55C7 10.9366 7.3134 11.25 7.7 11.25H8.8C9.1866 11.25 9.5 10.9366 9.5 10.55V10.45C9.5 10.0634 9.1866 9.75 8.8 9.75H7.7ZM7 13.2C7 12.8134 7.3134 12.5 7.7 12.5H8.8C9.1866 12.5 9.5 12.8134 9.5 13.2V13.3C9.5 13.6866 9.1866 14 8.8 14H7.7C7.3134 14 7 13.6866 7 13.3V13.2ZM7.7 15.25C7.3134 15.25 7 15.5634 7 15.95V16.05C7 16.4366 7.3134 16.75 7.7 16.75H8.8C9.1866 16.75 9.5 16.4366 9.5 16.05V15.95C9.5 15.5634 9.1866 15.25 8.8 15.25H7.7ZM14.5 10.45C14.5 10.0634 14.8134 9.75 15.2 9.75H16.3C16.6866 9.75 17 10.0634 17 10.45V10.55C17 10.9366 16.6866 11.25 16.3 11.25H15.2C14.8134 11.25 14.5 10.9366 14.5 10.55V10.45ZM15.2 12.5C14.8134 12.5 14.5 12.8134 14.5 13.2V13.3C14.5 13.6866 14.8134 14 15.2 14H16.3C16.6866 14 17 13.6866 17 13.3V13.2C17 12.8134 16.6866 12.5 16.3 12.5H15.2ZM14.5 15.95C14.5 15.5634 14.8134 15.25 15.2 15.25H16.3C16.6866 15.25 17 15.5634 17 15.95V16.05C17 16.4366 16.6866 16.75 16.3 16.75H15.2C14.8134 16.75 14.5 16.4366 14.5 16.05V15.95ZM11.45 9.75C11.0634 9.75 10.75 10.0634 10.75 10.45V10.55C10.75 10.9366 11.0634 11.25 11.45 11.25H12.55C12.9366 11.25 13.25 10.9366 13.25 10.55V10.45C13.25 10.0634 12.9366 9.75 12.55 9.75H11.45ZM10.75 13.2C10.75 12.8134 11.0634 12.5 11.45 12.5H12.55C12.9366 12.5 13.25 12.8134 13.25 13.2V13.3C13.25 13.6866 12.9366 14 12.55 14H11.45C11.0634 14 10.75 13.6866 10.75 13.3V13.2ZM11.45 15.25C11.0634 15.25 10.75 15.5634 10.75 15.95V16.05C10.75 16.4366 11.0634 16.75 11.45 16.75H12.55C12.9366 16.75 13.25 16.4366 13.25 16.05V15.95C13.25 15.5634 12.9366 15.25 12.55 15.25H11.45Z" fill="#464E53"/>
</svg>
