<svg width="24" height="24" viewBox="0 0 24 24" fill="none" xmlns="http://www.w3.org/2000/svg">
<path fill-rule="evenodd" clip-rule="evenodd" d="M12 21C16.9706 21 21 16.9706 21 12C21 7.02944 16.9706 3 12 3C7.02944 3 3 7.02944 3 12C3 16.9706 7.02944 21 12 21ZM12 16.5C14.4853 16.5 16.5 14.4853 16.5 12C16.5 9.51472 14.4853 7.5 12 7.5C9.51472 7.5 7.5 9.51472 7.5 12C7.5 14.4853 9.51472 16.5 12 16.5ZM17.4565 7.43903C17.4565 7.90502 17.0787 8.28278 16.6127 8.28278C16.1467 8.28278 15.769 7.90502 15.769 7.43903C15.769 6.97304 16.1467 6.59528 16.6127 6.59528C17.0787 6.59528 17.4565 6.97304 17.4565 7.43903ZM12 15.0938C13.7086 15.0938 15.0938 13.7086 15.0938 12C15.0938 10.2914 13.7086 8.90625 12 8.90625C10.2914 8.90625 8.90625 10.2914 8.90625 12C8.90625 13.7086 10.2914 15.0938 12 15.0938Z" fill="#464E53"/>
</svg>
