<svg width="24" height="24" viewBox="0 0 24 24" fill="none" xmlns="http://www.w3.org/2000/svg">
<path fill-rule="evenodd" clip-rule="evenodd" d="M19 17.5V9.2785C19 9.02496 18.8102 8.81155 18.5584 8.78192L16.6109 8.5528C15.7744 8.45439 15.0436 7.94134 14.6669 7.18796L14.2111 6.27639C14.1264 6.107 13.9533 6 13.7639 6H10.2361C10.0467 6 9.87355 6.107 9.78885 6.27639L9.33307 7.18796C8.95638 7.94134 8.22564 8.45439 7.38911 8.5528L5.44158 8.78192C5.18977 8.81155 5 9.02496 5 9.2785V17.5C5 17.7761 5.22386 18 5.5 18H18.5C18.7761 18 19 17.7761 19 17.5ZM5.26632 7.2922C4.25909 7.4107 3.5 8.26433 3.5 9.2785V17.5C3.5 18.6046 4.39543 19.5 5.5 19.5H18.5C19.6046 19.5 20.5 18.6046 20.5 17.5V9.2785C20.5 8.26433 19.7409 7.4107 18.7337 7.2922L16.7862 7.06308C16.4515 7.02371 16.1592 6.81849 16.0086 6.51714L15.5528 5.60557C15.214 4.928 14.5215 4.5 13.7639 4.5H10.2361C9.47852 4.5 8.786 4.92801 8.44721 5.60557L7.99143 6.51714C7.84075 6.81849 7.54846 7.02371 7.21384 7.06308L5.26632 7.2922ZM7.11405 5.40544C7.06183 4.99453 6.6864 4.70375 6.27549 4.75597L4.90549 4.93007C4.49458 4.98229 4.2038 5.35773 4.25602 5.76864C4.30824 6.17955 4.68368 6.47032 5.09459 6.4181L6.46459 6.24401C6.87549 6.19179 7.16627 5.81635 7.11405 5.40544ZM15 12.6757C15 14.3325 13.6569 15.6757 12 15.6757C10.3431 15.6757 9 14.3325 9 12.6757C9 11.0188 10.3431 9.67566 12 9.67566C13.6569 9.67566 15 11.0188 15 12.6757ZM16.5 12.6757C16.5 15.1609 14.4853 17.1757 12 17.1757C9.51472 17.1757 7.5 15.1609 7.5 12.6757C7.5 10.1904 9.51472 8.17566 12 8.17566C14.4853 8.17566 16.5 10.1904 16.5 12.6757Z" fill="#464E53"/>
</svg>
