<svg width="24" height="24" viewBox="0 0 24 24" fill="none" xmlns="http://www.w3.org/2000/svg">
<path fill-rule="evenodd" clip-rule="evenodd" d="M3.80694 20.1909C3.51405 19.8981 3.51405 19.4232 3.80694 19.1303L19.1323 3.80906C19.4252 3.51616 19.9001 3.51616 20.1929 3.80906C20.4858 4.10195 20.4858 4.57682 20.1929 4.86972L4.8676 20.1909C4.57471 20.4838 4.09983 20.4838 3.80694 20.1909Z" fill="#464E53"/>
<path fill-rule="evenodd" clip-rule="evenodd" d="M6.85845 19.3877C8.31599 20.404 10.0884 21 12 21C16.9706 21 21 16.9706 21 12C21 10.0884 20.404 8.31599 19.3877 6.85845L16.1011 10.1451C16.3573 10.7107 16.5 11.3387 16.5 12C16.5 14.4853 14.4853 16.5 12 16.5C11.3387 16.5 10.7107 16.3573 10.1451 16.1011L6.85845 19.3877ZM11.2452 15.001C11.4868 15.0616 11.7396 15.0938 12 15.0938C13.7086 15.0938 15.0938 13.7086 15.0938 12C15.0938 11.7396 15.0616 11.4868 15.001 11.2452L11.2452 15.001ZM12.755 8.99902L8.99902 12.755C8.93843 12.5133 8.90625 12.2604 8.90625 12C8.90625 10.2914 10.2914 8.90625 12 8.90625C12.2604 8.90625 12.5133 8.93843 12.755 8.99902ZM13.855 7.89893C13.2894 7.64268 12.6614 7.5 12 7.5C9.51472 7.5 7.5 9.51472 7.5 12C7.5 12.6614 7.64268 13.2894 7.89893 13.855L4.61233 17.1416C3.596 15.6841 3 13.9116 3 12C3 7.02944 7.02944 3 12 3C13.9116 3 15.6841 3.596 17.1416 4.61233L13.855 7.89893Z" fill="#464E53"/>
</svg>
