<svg width="24" height="24" viewBox="0 0 24 24"  xmlns="http://www.w3.org/2000/svg">
<path fill-rule="evenodd" clip-rule="evenodd" d="M12 5.37143C8.33914 5.37143 5.37143 8.33914 5.37143 12C5.37143 15.6609 8.33914 18.6286 12 18.6286C15.6609 18.6286 18.6286 15.6609 18.6286 12C18.6286 8.33914 15.6609 5.37143 12 5.37143ZM4 12C4 7.58172 7.58172 4 12 4C16.4183 4 20 7.58172 20 12C20 16.4183 16.4183 20 12 20C7.58172 20 4 16.4183 4 12Z" />
<path fill-rule="evenodd" clip-rule="evenodd" d="M12.8103 11.072C12.8103 10.6245 12.4475 10.2617 11.9999 10.2617C11.5524 10.2617 11.1896 10.6245 11.1896 11.072L11.1897 16.1959C11.1897 16.6434 11.5525 17.0062 12 17.0062C12.4475 17.0062 12.8103 16.6434 12.8103 16.1959L12.8103 11.072ZM12 7C11.34 7 10.8049 7.53505 10.8049 8.19507C10.8049 8.85509 11.34 9.39014 12 9.39014C12.66 9.39014 13.1951 8.85509 13.1951 8.19507C13.1951 7.53505 12.66 7 12 7Z" />
</svg>
