<svg width="24" height="24" viewBox="0 0 24 24" fill="none" xmlns="http://www.w3.org/2000/svg">
<path fill-rule="evenodd" clip-rule="evenodd" d="M12 4C7.58172 4 4 7.58172 4 12C4 16.4183 7.58172 20 12 20C16.4183 20 20 16.4183 20 12C20 7.58172 16.4183 4 12 4ZM11.9999 10.2617C12.4475 10.2617 12.8103 10.6245 12.8103 11.072L12.8103 16.1959C12.8103 16.6434 12.4475 17.0062 12 17.0062C11.5525 17.0062 11.1897 16.6434 11.1897 16.1959L11.1896 11.072C11.1896 10.6245 11.5524 10.2617 11.9999 10.2617ZM10.8049 8.19507C10.8049 7.53505 11.34 7 12 7C12.66 7 13.1951 7.53505 13.1951 8.19507C13.1951 8.85509 12.66 9.39014 12 9.39014C11.34 9.39014 10.8049 8.85509 10.8049 8.19507Z" fill="#464E53"/>
</svg>
