<svg xmlns="http://www.w3.org/2000/svg" width="24" height="24" viewBox="0 0 24 24" >
<path fill-rule="evenodd" clip-rule="evenodd" d="M3 5C3 3.89543 3.89543 3 5 3H19C20.1046 3 21 3.89543 21 5V19C21 20.1046 20.1046 21 19 21H5C3.89543 21 3 20.1046 3 19V5ZM17.7285 9.53972C18.0818 9.19009 18.0848 8.62025 17.7351 8.26694C17.3855 7.91364 16.8157 7.91065 16.4624 8.26028L10.5868 14.0897L7.53306 11.0601C7.17975 10.7104 6.60991 10.7134 6.26028 11.0667C5.91065 11.42 5.91364 11.9899 6.26694 12.3395L9.95378 15.9956C10.3045 16.3427 10.8692 16.3427 11.2199 15.9956L17.7285 9.53972Z" />
</svg>