<svg width="24" height="24" viewBox="0 0 24 24"  xmlns="http://www.w3.org/2000/svg">
<path fill-rule="evenodd" clip-rule="evenodd" d="M12 20C16.4183 20 20 16.4183 20 12C20 7.58172 16.4183 4 12 4C7.58172 4 4 7.58172 4 12C4 16.4183 7.58172 20 12 20ZM16.6332 10.6397C16.9865 10.2901 16.9894 9.72023 16.6398 9.36692C16.2902 9.01361 15.7203 9.01063 15.367 9.36026L10.9475 13.7338L8.63315 11.4436C8.27985 11.094 7.71001 11.0969 7.36038 11.4503C7.01075 11.8036 7.01374 12.3734 7.36704 12.723L10.3144 15.6397C10.6651 15.9867 11.2298 15.9867 11.5805 15.6397L16.6332 10.6397Z"/>
</svg>
