<svg xmlns="http://www.w3.org/2000/svg" width="24" height="24" viewBox="0 0 24 24" >
<path fill-rule="evenodd" clip-rule="evenodd" d="M22 12C22 17.5228 17.5228 22 12 22C6.47715 22 2 17.5228 2 12C2 6.47715 6.47715 2 12 2C17.5228 2 22 6.47715 22 12ZM17.7426 10.2838C18.0959 9.93417 18.0989 9.36433 17.7493 9.01102C17.3997 8.65772 16.8298 8.65473 16.4765 9.00436L10.601 14.8338L7.54722 11.8041C7.19391 11.4545 6.62407 11.4575 6.27444 11.8108C5.92481 12.1641 5.9278 12.734 6.2811 13.0836L9.96794 16.7397C10.3186 17.0868 10.8834 17.0868 11.2341 16.7397L17.7426 10.2838Z" />
</svg>
