<svg xmlns="http://www.w3.org/2000/svg" width="24" height="24" viewBox="0 0 24 24" >
<path fill-rule="evenodd" clip-rule="evenodd" d="M12 3C7.02944 3 3 7.02944 3 12C3 16.9706 7.02944 21 12 21C16.9706 21 21 16.9706 21 12C21 7.02944 16.9706 3 12 3ZM8.27674 11.3584C7.98188 11.0674 7.50701 11.0707 7.2161 11.3655C6.92519 11.6604 6.9284 12.1352 7.22326 12.4262L10.6364 15.7839C10.9267 16.0704 11.3928 16.0723 11.6854 15.7882L17.2158 10.5C17.513 10.2115 17.5201 9.73669 17.2316 9.43946C16.9431 9.14223 16.4683 9.13514 16.1711 9.42363L11.1674 14.2007L8.27674 11.3584Z" />
</svg>