<svg width="24" height="24" viewBox="0 0 24 24"  xmlns="http://www.w3.org/2000/svg">
<path fill-rule="evenodd" clip-rule="evenodd" d="M4 12C4 7.58172 7.58172 4 12 4C16.4183 4 20 7.58172 20 12C20 12.734 19.9012 13.4448 19.7161 14.1201C19.0505 13.6258 18.2261 13.3333 17.3335 13.3333C15.1243 13.3333 13.3335 15.1242 13.3335 17.3333C13.3335 18.2261 13.6259 19.0505 14.1202 19.716C13.445 19.9011 12.734 20 12 20C7.58172 20 4 16.4183 4 12ZM17.3333 20C18.8061 20 20 18.8061 20 17.3333C20 15.8606 18.8061 14.6667 17.3333 14.6667C15.8606 14.6667 14.6667 15.8606 14.6667 17.3333C14.6667 18.8061 15.8606 20 17.3333 20Z" />
</svg>
