<svg width="24" height="24" viewBox="0 0 24 24" xmlns="http://www.w3.org/2000/svg">
<path fill-rule="evenodd" clip-rule="evenodd" d="M6.78571 3.5C5.52335 3.5 4.5 4.50736 4.5 5.75V18.25C4.5 19.4926 5.52335 20.5 6.78571 20.5H17.2143C18.4767 20.5 19.5 19.4926 19.5 18.25V8.93198C19.5 8.33524 19.2592 7.76295 18.8305 7.34099L15.598 4.15901C15.1694 3.73705 14.588 3.5 13.9818 3.5H6.78571ZM8.25 7.5C7.83579 7.5 7.5 7.83579 7.5 8.25C7.5 8.66421 7.83579 9 8.25 9H12.75C13.1642 9 13.5 8.66421 13.5 8.25C13.5 7.83579 13.1642 7.5 12.75 7.5H8.25ZM7.5 11.75C7.5 11.3358 7.83579 11 8.25 11H15.75C16.1642 11 16.5 11.3358 16.5 11.75C16.5 12.1642 16.1642 12.5 15.75 12.5H8.25C7.83579 12.5 7.5 12.1642 7.5 11.75ZM8.25 14.5C7.83579 14.5 7.5 14.8358 7.5 15.25C7.5 15.6642 7.83579 16 8.25 16H15.75C16.1642 16 16.5 15.6642 16.5 15.25C16.5 14.8358 16.1642 14.5 15.75 14.5H8.25Z"/>
</svg>
