<svg xmlns="http://www.w3.org/2000/svg" width="24" height="24" viewBox="0 0 24 24" >
<path fill-rule="evenodd" clip-rule="evenodd" d="M6.28571 2.00001C5.02335 2.00001 4 3.00737 4 4.25001V19.75C4 20.9926 5.02335 22 6.28571 22H17.7143C18.9767 22 20 20.9926 20 19.75V7.43199C20 6.83525 19.7592 6.26296 19.3305 5.841L16.098 2.65902C15.6694 2.23706 15.088 2.00001 14.4818 2.00001H6.28571ZM7.75 6.00001C7.33579 6.00001 7 6.33579 7 6.75001C7 7.16422 7.33579 7.50001 7.75 7.50001H12.25C12.6642 7.50001 13 7.16422 13 6.75001C13 6.33579 12.6642 6.00001 12.25 6.00001H7.75ZM7 11.25C7 10.8358 7.33579 10.5 7.75 10.5H16.25C16.6642 10.5 17 10.8358 17 11.25C17 11.6642 16.6642 12 16.25 12H7.75C7.33579 12 7 11.6642 7 11.25ZM7.75 15C7.33579 15 7 15.3358 7 15.75C7 16.1642 7.33579 16.5 7.75 16.5H16.25C16.6642 16.5 17 16.1642 17 15.75C17 15.3358 16.6642 15 16.25 15H7.75Z" />
</svg>