<svg width="24" height="24" viewBox="0 0 24 24" xmlns="http://www.w3.org/2000/svg">
<path fill-rule="evenodd" clip-rule="evenodd" d="M18.5832 7.77517V15.8958C18.5832 16.1042 18.4194 16.25 18.2459 16.25H16.2221V10.6085C16.2221 10.1389 16.0373 9.68844 15.7084 9.35634L13.2279 6.85201C12.899 6.51991 12.4528 6.33334 11.9877 6.33334H9.13875V5.27083C9.13875 5.06242 9.30252 4.91667 9.47605 4.91667H15.7654C15.8505 4.91667 15.9348 4.95065 15.9991 5.0156L18.4796 7.51993C18.5444 7.58533 18.5832 7.67689 18.5832 7.77517ZM16.2221 17.6667V18.7292C16.2221 19.7072 15.4368 20.5 14.4681 20.5H5.6983C4.72961 20.5 3.94434 19.7072 3.94434 18.7292V8.10418C3.94434 7.12617 4.72961 6.33334 5.6983 6.33334H7.72209V5.27083C7.72209 4.29283 8.50736 3.5 9.47605 3.5H15.7654C16.2306 3.5 16.6767 3.68657 17.0057 4.01867L19.4861 6.523C19.8151 6.8551 19.9999 7.30552 19.9999 7.77517V15.8958C19.9999 16.8738 19.2146 17.6667 18.2459 17.6667H16.2221Z" />
</svg>
