<svg xmlns="http://www.w3.org/2000/svg" width="24" height="24" viewBox="0 0 24 24" >
<path fill-rule="evenodd" clip-rule="evenodd" d="M19.5833 7.27517V17.2292C19.5833 17.4376 19.4196 17.5833 19.246 17.5833H16L16 9.95377C16 9.66541 15.8755 9.39108 15.6585 9.20119L12.2828 6.24742C12.1005 6.08792 11.8665 6 11.6243 6H9.41667V4.77083C9.41667 4.56242 9.58043 4.41667 9.75397 4.41667H16.7655C16.8506 4.41667 16.9349 4.45065 16.9993 4.5156L19.4798 7.01993C19.5445 7.08533 19.5833 7.17689 19.5833 7.27517ZM16 19L16 21C16 21.5523 15.5523 22 15 22H4C3.44772 22 3 21.5523 3 21V7C3 6.44772 3.44772 6 4 6H8V4.77083C8 3.79283 8.78528 3 9.75397 3H16.7655C17.2307 3 17.6769 3.18657 18.0058 3.51867L20.4863 6.023C20.8152 6.3551 21 6.80552 21 7.27517V17.2292C21 18.2072 20.2147 19 19.246 19H16Z" />
</svg>
