<svg xmlns="http://www.w3.org/2000/svg" width="24" height="24" viewBox="0 0 24 24" >
<path fill-rule="evenodd" clip-rule="evenodd" d="M4.3335 4C3.22893 4 2.3335 4.89543 2.3335 6V18C2.3335 19.1046 3.22893 20 4.3335 20H20.3335C21.4381 20 22.3335 19.1046 22.3335 18V6C22.3335 4.89543 21.4381 4 20.3335 4H4.3335ZM6.32126 7.36589C5.97105 7.0965 5.46878 7.16202 5.19939 7.51222C4.93 7.86243 4.99552 8.3647 5.34572 8.63409L11.236 13.1651C11.883 13.6628 12.784 13.6628 13.431 13.1651L19.3213 8.63409C19.6715 8.3647 19.737 7.86243 19.4676 7.51222C19.1982 7.16202 18.6959 7.0965 18.3457 7.36589L12.4554 11.8969C12.3835 11.9522 12.2834 11.9522 12.2115 11.8969L6.32126 7.36589Z" />
</svg>