<svg xmlns="http://www.w3.org/2000/svg" width="18" height="18" viewBox="0 0 18 18" >
<path fill-rule="evenodd" clip-rule="evenodd" d="M4.25 3.75C3.14543 3.75 2.25 4.64543 2.25 5.75V12.25C2.25 13.3546 3.14543 14.25 4.25 14.25H13.75C14.8546 14.25 15.75 13.3546 15.75 12.25V5.75C15.75 4.64543 14.8546 3.75 13.75 3.75H4.25ZM9.60016 9.26766C9.25249 9.55738 8.74748 9.55738 8.39981 9.26766L4.86009 6.31789C4.62143 6.11901 4.26674 6.15126 4.06786 6.38991C3.86898 6.62857 3.90123 6.98326 4.13988 7.18214L7.67961 10.1319C8.44447 10.7693 9.5555 10.7693 10.3204 10.1319L13.8601 7.18214C14.0987 6.98326 14.131 6.62857 13.9321 6.38991C13.7332 6.15126 13.3785 6.11901 13.1399 6.31789L9.60016 9.26766Z" />
</svg>