<svg width="24" height="24" viewBox="0 0 24 24" fill="none" xmlns="http://www.w3.org/2000/svg">
<path fill-rule="evenodd" clip-rule="evenodd" d="M12 4C7.58172 4 4 7.58172 4 12C4 16.4183 7.58172 20 12 20C16.4183 20 20 16.4183 20 12C20 7.58172 16.4183 4 12 4ZM12.0001 13.7445C11.5525 13.7445 11.1897 13.3817 11.1897 12.9342L11.1897 7.81033C11.1897 7.3628 11.5525 7 12 7C12.4475 7 12.8103 7.3628 12.8103 7.81033L12.8104 12.9342C12.8104 13.3817 12.4476 13.7445 12.0001 13.7445ZM13.1951 15.8111C13.1951 16.4711 12.66 17.0062 12 17.0062C11.34 17.0062 10.8049 16.4711 10.8049 15.8111C10.8049 15.1511 11.34 14.6161 12 14.6161C12.66 14.6161 13.1951 15.1511 13.1951 15.8111Z" fill="#464E53"/>
</svg>
