<svg xmlns="http://www.w3.org/2000/svg" width="24" height="24" viewBox="0 0 24 24" >
<path fill-rule="evenodd" clip-rule="evenodd" d="M12 2C6.47715 2 2 6.47715 2 12C2 17.5228 6.47715 22 12 22C17.5228 22 22 17.5228 22 12C22 6.47715 17.5228 2 12 2ZM13.5 16.7996C13.5 17.628 12.8284 18.2996 12 18.2996C11.1716 18.2996 10.5 17.628 10.5 16.7996C10.5 15.9712 11.1716 15.2996 12 15.2996C12.8284 15.2996 13.5 15.9712 13.5 16.7996ZM12 14.2004C11.4477 14.2004 11 13.7534 11 13.2019V6.69881C11 6.14739 11.4477 5.70038 12 5.70038C12.5523 5.70038 13 6.14739 13 6.69881V13.2019C13 13.7534 12.5523 14.2004 12 14.2004Z" />
</svg>
