<svg xmlns="http://www.w3.org/2000/svg" width="24" height="24" viewBox="0 0 24 24" >
<path fill-rule="evenodd" clip-rule="evenodd" d="M20.5 12C20.5 16.6944 16.6944 20.5 12 20.5C7.30558 20.5 3.5 16.6944 3.5 12C3.5 7.30558 7.30558 3.5 12 3.5C16.6944 3.5 20.5 7.30558 20.5 12ZM22 12C22 17.5228 17.5228 22 12 22C6.47715 22 2 17.5228 2 12C2 6.47715 6.47715 2 12 2C17.5228 2 22 6.47715 22 12ZM15.8456 8.87143C15.8456 8.44539 15.5002 8.10001 15.0742 8.10001C14.6481 8.10001 14.3027 8.44539 14.3027 8.87143V10.3951C14.3027 10.8212 14.6481 11.1665 15.0742 11.1665C15.5002 11.1665 15.8456 10.8212 15.8456 10.3951V8.87143ZM9.69813 8.87144C9.69813 8.44539 9.35275 8.10001 8.9267 8.10001C8.50065 8.10001 8.15527 8.44539 8.15527 8.87144V10.3951C8.15527 10.8212 8.50065 11.1665 8.9267 11.1665C9.35275 11.1665 9.69813 10.8212 9.69813 10.3951V8.87144ZM16.132 13.7847C16.5149 13.9427 16.6972 14.3812 16.5391 14.7641C15.8047 16.5436 14.0513 17.8009 12.0003 17.8009C9.95007 17.8009 8.19724 16.5444 7.46232 14.7659C7.30413 14.3831 7.48622 13.9445 7.86904 13.7864C8.25186 13.6282 8.69043 13.8103 8.84862 14.1931C9.35998 15.4305 10.5787 16.3009 12.0003 16.3009C13.4225 16.3009 14.6416 15.4299 15.1526 14.1918C15.3106 13.8089 15.7491 13.6266 16.132 13.7847Z" />
</svg>
