<svg width="24" height="24" viewBox="0 0 24 24" xmlns="http://www.w3.org/2000/svg">
<path fill-rule="evenodd" clip-rule="evenodd" d="M4.54286 12C4.54286 7.88153 7.88153 4.54286 12 4.54286C16.1185 4.54286 19.4571 7.88153 19.4571 12C19.4571 16.1185 16.1185 19.4571 12 19.4571C7.88153 19.4571 4.54286 16.1185 4.54286 12ZM12 3C7.02944 3 3 7.02944 3 12C3 16.9706 7.02944 21 12 21C16.9706 21 21 16.9706 21 12C21 7.02944 16.9706 3 12 3ZM15.8457 14.4779C16.0083 14.0841 15.8208 13.6331 15.427 13.4705C15.0332 13.308 14.5821 13.4955 14.4196 13.8893C14.0269 14.8407 13.0906 15.508 12.0002 15.508C10.9102 15.508 9.97419 14.8412 9.58124 13.8902C9.41853 13.4965 8.96742 13.3092 8.57367 13.4719C8.17992 13.6346 7.99262 14.0857 8.15533 14.4795C8.77846 15.9874 10.2642 17.0509 12.0002 17.0509C13.7368 17.0509 15.223 15.9867 15.8457 14.4779ZM9.02227 8.28436C9.44831 8.28436 9.79369 8.62974 9.79369 9.05579V10.5795C9.79369 11.0055 9.44831 11.3509 9.02227 11.3509C8.59622 11.3509 8.25084 11.0055 8.25084 10.5795V9.05579C8.25084 8.62974 8.59622 8.28436 9.02227 8.28436ZM15.4996 9.05579C15.4996 8.62974 15.1542 8.28436 14.7281 8.28436C14.3021 8.28436 13.9567 8.62974 13.9567 9.05579V10.5795C13.9567 11.0055 14.3021 11.3509 14.7281 11.3509C15.1542 11.3509 15.4996 11.0055 15.4996 10.5795V9.05579Z" />
</svg>
