<svg xmlns="http://www.w3.org/2000/svg" width="24" height="24" viewBox="0 0 24 24" >
<path fill-rule="evenodd" clip-rule="evenodd" d="M3.5 12C3.5 7.30558 7.30558 3.5 12 3.5C12.3112 3.5 12.6183 3.51669 12.9203 3.54918C13.3322 3.59348 13.702 3.29553 13.7462 2.88369C13.7905 2.47185 13.4926 2.10208 13.0808 2.05779C12.7255 2.01958 12.3649 2 12 2C6.47715 2 2 6.47715 2 12C2 17.5228 6.47715 22 12 22C17.5228 22 22 17.5228 22 12C22 11.6324 21.9801 11.2692 21.9414 10.9113C21.8967 10.4995 21.5267 10.2019 21.1149 10.2465C20.7031 10.2911 20.4055 10.6611 20.4501 11.0729C20.4831 11.3772 20.5 11.6865 20.5 12C20.5 16.6944 16.6944 20.5 12 20.5C7.30558 20.5 3.5 16.6944 3.5 12ZM18.5 2C18.9134 2 19.2485 2.33513 19.2485 2.74854V4.75146H21.2515C21.6649 4.75146 22 5.0866 22 5.5C22 5.91341 21.6649 6.24854 21.2515 6.24854H19.2485V8.25146C19.2485 8.66487 18.9134 9 18.5 9C18.0866 9 17.7515 8.66487 17.7515 8.25146V6.24854H15.7485C15.3351 6.24854 15 5.91341 15 5.5C15 5.0866 15.3351 4.75146 15.7485 4.75146H17.7515V2.74854C17.7515 2.33513 18.0866 2 18.5 2ZM16.5391 14.7641C16.6972 14.3812 16.5149 13.9427 16.132 13.7847C15.7491 13.6266 15.3106 13.8089 15.1526 14.1918C14.6416 15.4299 13.4225 16.3009 12.0003 16.3009C10.5787 16.3009 9.35998 15.4305 8.84862 14.1931C8.69043 13.8103 8.25186 13.6282 7.86904 13.7864C7.48622 13.9445 7.30413 14.3831 7.46232 14.7659C8.19724 16.5444 9.95007 17.8009 12.0003 17.8009C14.0513 17.8009 15.8047 16.5436 16.5391 14.7641ZM15.8456 8.87143C15.8456 8.44539 15.5002 8.10001 15.0742 8.10001C14.6481 8.10001 14.3027 8.44539 14.3027 8.87143V10.3951C14.3027 10.8212 14.6481 11.1665 15.0742 11.1665C15.5002 11.1665 15.8456 10.8212 15.8456 10.3951V8.87143ZM9.69813 8.87144C9.69813 8.44539 9.35275 8.10001 8.9267 8.10001C8.50065 8.10001 8.15527 8.44539 8.15527 8.87144V10.3951C8.15527 10.8212 8.50065 11.1665 8.9267 11.1665C9.35275 11.1665 9.69813 10.8212 9.69813 10.3951V8.87144Z" />
</svg>
