<svg width="24" height="24" viewBox="0 0 24 24"  xmlns="http://www.w3.org/2000/svg">
<path fill-rule="evenodd" clip-rule="evenodd" d="M18.9893 3.62238C18.9893 3.20816 18.6535 2.87238 18.2393 2.87238C17.825 2.87238 17.4893 3.20816 17.4893 3.62238V5.07623H16.0034C15.5892 5.07623 15.2534 5.41202 15.2534 5.82623C15.2534 6.24045 15.5892 6.57623 16.0034 6.57623H17.4893V8.13409C17.4893 8.54831 17.825 8.88409 18.2393 8.88409C18.6535 8.88409 18.9893 8.54831 18.9893 8.13409V6.57623H20.5151C20.9293 6.57623 21.2651 6.24045 21.2651 5.82623C21.2651 5.41202 20.9293 5.07623 20.5151 5.07623H18.9893V3.62238ZM4.75 12C4.75 7.99594 7.99594 4.75 12 4.75C12.3116 4.75 12.6183 4.76962 12.9189 4.8076C13.3299 4.85952 13.7051 4.56848 13.757 4.15753C13.8089 3.74659 13.5179 3.37136 13.1069 3.31943C12.7441 3.27359 12.3746 3.25 12 3.25C7.16751 3.25 3.25 7.16751 3.25 12C3.25 16.8325 7.16751 20.75 12 20.75C16.8325 20.75 20.75 16.8325 20.75 12C20.75 11.6366 20.7278 11.278 20.6846 10.9257C20.6342 10.5145 20.2601 10.2221 19.849 10.2724C19.4378 10.3228 19.1454 10.697 19.1958 11.1081C19.2315 11.4001 19.25 11.6977 19.25 12C19.25 16.0041 16.0041 19.25 12 19.25C7.99594 19.25 4.75 16.0041 4.75 12ZM15.7389 14.4091C15.8969 14.0262 15.7147 13.5877 15.3318 13.4297C14.9489 13.2716 14.5104 13.4539 14.3524 13.8368C13.9706 14.7618 13.0603 15.4106 12.0002 15.4106C10.9405 15.4106 10.0305 14.7623 9.64843 13.8377C9.49024 13.4549 9.05166 13.2728 8.66885 13.431C8.28603 13.5892 8.10393 14.0278 8.26212 14.4106C8.86795 15.8767 10.3125 16.9106 12.0002 16.9106C13.6885 16.9106 15.1334 15.876 15.7389 14.4091ZM9.10498 8.38757C9.51919 8.38757 9.85498 8.72336 9.85498 9.13757V10.6189C9.85498 11.0331 9.51919 11.3689 9.10498 11.3689C8.69077 11.3689 8.35498 11.0331 8.35498 10.6189V9.13757C8.35498 8.72336 8.69077 8.38757 9.10498 8.38757ZM15.4023 9.13757C15.4023 8.72336 15.0666 8.38757 14.6523 8.38757C14.2381 8.38757 13.9023 8.72336 13.9023 9.13757V10.6189C13.9023 11.0331 14.2381 11.3689 14.6523 11.3689C15.0666 11.3689 15.4023 11.0331 15.4023 10.6189V9.13757Z" />
</svg>
