<svg xmlns="http://www.w3.org/2000/svg" width="18" height="18" viewBox="0 0 18 18" >
<path fill-rule="evenodd" clip-rule="evenodd" d="M3.25 3C2.69772 3 2.25 3.44772 2.25 4V13.5C2.25 14.3284 2.92157 15 3.75 15L14.25 15C15.0784 15 15.75 14.3284 15.75 13.5V6C15.75 5.17157 15.0784 4.5 14.25 4.5L7.95235 4.5C7.56874 4.5 7.21893 4.28056 7.052 3.93517L6.873 3.56483C6.70607 3.21945 6.35626 3 5.97265 3H3.25ZM4.185 6.75C3.94476 6.75 3.75 6.94476 3.75 7.185C3.75 7.42524 3.94476 7.62 4.185 7.62H13.815C14.0552 7.62 14.25 7.42524 14.25 7.185C14.25 6.94476 14.0552 6.75 13.815 6.75H4.185Z" />
</svg>