<svg xmlns="http://www.w3.org/2000/svg" width="24" height="24" viewBox="0 0 24 24" >
<path fill-rule="evenodd" clip-rule="evenodd" d="M4 4C3.44772 4 3 4.44772 3 5V18.5C3 19.3284 3.67157 20 4.5 20L19.5 20C20.3284 20 21 19.3284 21 18.5V7.5C21 6.67157 20.3284 6 19.5 6L10.394 6.00001C10.0104 6.00001 9.6606 5.78056 9.49366 5.43517L9.073 4.56483C8.90607 4.21945 8.55626 4 8.17265 4H4ZM5.58 9C5.25967 9 5 9.25968 5 9.58C5 9.90033 5.25967 10.16 5.58 10.16H18.42C18.7403 10.16 19 9.90033 19 9.58C19 9.25968 18.7403 9 18.42 9H5.58Z" />
</svg>