<svg xmlns="http://www.w3.org/2000/svg" width="24" height="24" viewBox="0 0 24 24" >
<path fill-rule="evenodd" clip-rule="evenodd" d="M8.53496 3.16182H15.4824C16.5526 3.16182 17.5417 3.7319 18.0782 4.6579L21.5659 10.6777C22.1052 11.6085 22.1048 12.7569 21.5648 13.6874L18.0785 19.6949C17.5417 20.6198 16.5532 21.1891 15.4837 21.1891H8.53639C7.46359 21.1891 6.47245 20.6162 5.93691 19.6867L2.46888 13.6669C1.93447 12.7392 1.93488 11.5971 2.46994 10.6699L5.93654 4.66241C6.47235 3.73387 7.46292 3.16182 8.53496 3.16182ZM12 17.1891C14.7614 17.1891 17 14.9505 17 12.1891C17 9.42768 14.7614 7.1891 12 7.1891C9.23858 7.1891 7 9.42768 7 12.1891C7 14.9505 9.23858 17.1891 12 17.1891Z" />
</svg>
