<svg width="24" height="24" viewBox="0 0 24 24" fill="none" xmlns="http://www.w3.org/2000/svg">
<path fill-rule="evenodd" clip-rule="evenodd" d="M20.134 13.5C20.6699 12.5718 20.6699 11.4282 20.134 10.5L17.366 5.70575C16.8301 4.77755 15.8398 4.20575 14.768 4.20575H9.23206C8.16026 4.20575 7.16988 4.77755 6.63398 5.70575L3.86604 10.5C3.33014 11.4282 3.33014 12.5718 3.86604 13.5L6.63398 18.2942C7.16988 19.2224 8.16026 19.7942 9.23206 19.7942H14.768C15.8398 19.7942 16.8301 19.2224 17.366 18.2942L20.134 13.5ZM12 15.75C14.0711 15.75 15.75 14.0711 15.75 12C15.75 9.92893 14.0711 8.25 12 8.25C9.92893 8.25 8.25 9.92893 8.25 12C8.25 14.0711 9.92893 15.75 12 15.75Z" fill="#464E53"/>
</svg>
