<svg xmlns="http://www.w3.org/2000/svg" width="24" height="24" viewBox="0 0 24 24" >
<path fill-rule="evenodd" clip-rule="evenodd" d="M13.8739 20.2928C13.271 20.4284 12.6439 20.5 12 20.5C9.23258 20.5 6.77405 19.1775 5.22197 17.1299C6.00575 17.2505 6.78612 17.2111 7.15971 16.7558C7.5594 16.2686 7.66327 15.4954 7.75984 14.7764C7.86966 13.9587 7.97006 13.2112 8.48535 13.0344C8.86945 12.9027 9.4269 13.2273 10.0752 13.605C11.0615 14.1794 12.2581 14.8763 13.3745 14.2749C14.3726 13.7372 14.2246 12.7546 14.0809 11.8002C13.9582 10.9855 13.8386 10.1913 14.4377 9.71183C14.9722 9.28414 15.5124 9.24689 15.9941 9.21368C16.685 9.16604 17.2556 9.12669 17.5167 7.95575C17.7793 6.77759 17.2655 6.49017 16.7562 6.20524C16.4064 6.00953 16.0587 5.81499 15.9661 5.33378C15.8921 4.94921 15.8071 4.62236 15.7255 4.35779C18.5526 5.73855 20.5 8.64186 20.5 12C20.5 13.4139 20.1548 14.7471 19.5441 15.9201C18.5037 15.1003 16.3045 14.028 15.3731 14.6057C14.5109 15.1405 14.4807 15.7966 14.4566 16.3194C14.4504 16.455 14.4446 16.5816 14.4248 16.6948C14.3833 16.9316 14.2858 17.0103 14.1486 17.1209C13.9673 17.2671 13.7169 17.4691 13.4352 18.1653C13.0611 19.0902 13.5415 19.9324 13.8739 20.2928ZM22 12C22 17.5228 17.5228 22 12 22C6.47715 22 2 17.5228 2 12C2 6.47715 6.47715 2 12 2C17.5228 2 22 6.47715 22 12Z" />
</svg>