<svg width="24" height="24" viewBox="0 0 24 24" fill="none" xmlns="http://www.w3.org/2000/svg">
<path fill-rule="evenodd" clip-rule="evenodd" d="M12 18.5C12.4457 18.5 12.881 18.4551 13.3015 18.3697C13.0899 18.024 12.9196 17.4974 13.1482 16.9322C13.3736 16.3753 13.5739 16.2137 13.7189 16.0967C13.8287 16.0082 13.9067 15.9453 13.9399 15.7558C13.9557 15.6652 13.9604 15.564 13.9654 15.4555V15.4555C13.9846 15.0373 14.0088 14.5124 14.6985 14.0846C15.5089 13.5819 17.0658 14.4574 17.7173 15.0949C18.2165 14.1747 18.5 13.1205 18.5 12C18.5 9.3058 16.8608 6.99444 14.5254 6.00881C14.5712 6.17434 14.6168 6.36473 14.658 6.57861C14.7284 6.9443 14.9926 7.09214 15.2584 7.24087C15.6455 7.4574 16.0359 7.67582 15.8363 8.57115C15.638 9.46099 15.2043 9.49089 14.6793 9.52709C14.3132 9.55234 13.9027 9.58064 13.4965 9.90566C13.0412 10.27 13.1321 10.8736 13.2253 11.4927C13.3346 12.218 13.447 12.9647 12.6885 13.3733C11.8401 13.8304 10.9308 13.3007 10.1813 12.8642C9.68859 12.5772 9.26496 12.3305 8.97307 12.4306C8.58149 12.565 8.50519 13.133 8.42173 13.7544C8.34834 14.3008 8.26941 14.8884 7.96567 15.2586C7.69168 15.5926 7.12981 15.6321 6.55554 15.5521C7.71598 17.3272 9.72102 18.5 12 18.5ZM12 20C16.4183 20 20 16.4183 20 12C20 7.58172 16.4183 4 12 4C7.58172 4 4 7.58172 4 12C4 16.4183 7.58172 20 12 20Z" fill="#464E53"/>
</svg>
