<svg width="24" height="24" viewBox="0 0 24 24"  xmlns="http://www.w3.org/2000/svg">
<path fill-rule="evenodd" clip-rule="evenodd" d="M17.6883 18.3845L18.3142 17.6906C19.674 16.1828 20.5 14.1896 20.5 12C20.5 7.30558 16.6944 3.5 12 3.5C7.30558 3.5 3.5 7.30558 3.5 12C3.5 16.6944 7.30558 20.5 12 20.5H18.5345L17.6883 18.3845ZM19.0144 21.7C19.0143 21.6996 19.0142 21.6993 19.014 21.6989L19.0144 21.7ZM22 12C22 14.575 21.0268 16.9226 19.4281 18.6952L20.4072 21.1429C20.5714 21.5534 20.269 22 19.8269 22H12C6.47715 22 2 17.5228 2 12C2 6.47715 6.47715 2 12 2C17.5228 2 22 6.47715 22 12Z" />
<path fill-rule="evenodd" clip-rule="evenodd" d="M7.00195 14.256C7.00195 13.834 7.33964 13.4919 7.7562 13.4919L15.6027 13.4919C16.0192 13.4919 16.3569 13.834 16.3569 14.256C16.3569 14.678 16.0192 15.0201 15.6027 15.0201H7.7562C7.33964 15.0201 7.00195 14.678 7.00195 14.256Z" />
<path fill-rule="evenodd" clip-rule="evenodd" d="M7.64331 9.96243C7.64331 9.54041 7.981 9.1983 8.39756 9.1983L16.244 9.1983C16.6606 9.1983 16.9983 9.54041 16.9983 9.96243C16.9983 10.3844 16.6606 10.7266 16.244 10.7266H8.39756C7.981 10.7266 7.64331 10.3844 7.64331 9.96243Z" />
<path fill-rule="evenodd" clip-rule="evenodd" d="M12.6159 17.5535C12.2079 17.4684 11.9454 17.0643 12.0294 16.651L14.0041 7.04095C14.0882 6.62761 14.487 6.36155 14.895 6.44669C15.3029 6.53182 15.5655 6.93591 15.4815 7.34925L13.5068 16.9593C13.4227 17.3726 13.0239 17.6387 12.6159 17.5535Z" />
<path fill-rule="evenodd" clip-rule="evenodd" d="M8.94526 17.5535C8.5373 17.4684 8.27471 17.0643 8.35875 16.651L10.3335 7.04095C10.4175 6.62761 10.8164 6.36155 11.2243 6.44669C11.6323 6.53182 11.8949 6.93591 11.8108 7.34925L9.83611 16.9593C9.75206 17.3726 9.35322 17.6387 8.94526 17.5535Z" />
</svg>
