<svg width="24" height="24" viewBox="0 0 24 24" fill="none" xmlns="http://www.w3.org/2000/svg">
<path fill-rule="evenodd" clip-rule="evenodd" d="M17.5387 4.53316C17.6753 3.83638 17.2211 3.16082 16.5244 3.02425C15.8276 2.88768 15.152 3.34181 15.0155 4.03859L13.5623 11.4526C13.4257 12.1494 13.8798 12.8249 14.5766 12.9615C15.2734 13.0981 15.9489 12.6439 16.0855 11.9472L16.3197 10.7526H19.2941C20.0041 10.7526 20.5797 10.177 20.5797 9.46692C20.5797 8.75689 20.0041 8.18129 19.2941 8.18129L16.8236 8.18129L17.5387 4.53316ZM12.6584 16.0629L11.8344 16.0629C11.1244 16.0629 10.5488 15.4873 10.5488 14.7773C10.5488 14.0673 11.1244 13.4917 11.8344 13.4917L18.1568 13.4917C18.8668 13.4917 19.4424 14.0673 19.4424 14.7773C19.4424 15.4874 18.8668 16.0629 18.1568 16.0629L15.2786 16.0629L14.5145 19.9614C14.3779 20.6582 13.7023 21.1123 13.0055 20.9757C12.3088 20.8392 11.8546 20.1636 11.9912 19.4668L12.6584 16.0629ZM12.0047 4.53926C12.1447 3.84316 11.6938 3.16541 10.9977 3.02547C10.3016 2.88553 9.62385 3.33639 9.48391 4.03249L8.64986 8.18129H5.84305C5.13302 8.18129 4.55742 8.75689 4.55742 9.46692C4.55742 10.177 5.13302 10.7526 5.84305 10.7526H11.953C12.6631 10.7526 13.2387 10.177 13.2387 9.46692C13.2387 8.75689 12.6631 8.18129 11.953 8.18129H11.2726L12.0047 4.53926ZM10.3858 12.8127C10.5227 12.116 10.0688 11.4402 9.37211 11.3034C8.67539 11.1665 7.99964 11.6204 7.86279 12.3171L7.63209 13.4917H4.70604C3.99601 13.4917 3.42041 14.0673 3.42041 14.7773C3.42041 15.4873 3.99601 16.0629 4.70604 16.0629H7.12704L6.45855 19.4663C6.3217 20.1631 6.77556 20.8388 7.47229 20.9757C8.16901 21.1125 8.84475 20.6586 8.9816 19.9619L10.3858 12.8127Z" fill="#464E53"/>
</svg>
