<svg width="24" height="24" viewBox="0 0 24 24" xmlns="http://www.w3.org/2000/svg">
<path fill-rule="evenodd" clip-rule="evenodd" d="M16.8906 17.6515L17.5096 16.9653C18.6962 15.6496 19.4168 13.9107 19.4168 12C19.4168 7.90389 16.0962 4.58334 12.0001 4.58334C7.90399 4.58334 4.58343 7.90389 4.58343 12C4.58343 16.0961 7.90399 19.4167 12.0001 19.4167H17.5967L16.8906 17.6515ZM18.6111 17.9587C20.0339 16.3811 20.9001 14.2917 20.9001 12C20.9001 7.08467 16.9154 3.10001 12.0001 3.10001C7.08476 3.10001 3.1001 7.08467 3.1001 12C3.1001 16.9153 7.08476 20.9 12.0001 20.9H18.966C19.3595 20.9 19.6286 20.5025 19.4825 20.1372L18.6111 17.9587Z" />
<path fill-rule="evenodd" clip-rule="evenodd" d="M9.12655 17.0842C8.71851 16.9993 8.45568 16.5953 8.5395 16.182L8.7571 15.1088H7.85435C7.43779 15.1088 7.1001 14.7667 7.1001 14.3447C7.1001 13.9227 7.43779 13.5806 7.85435 13.5806H9.067L9.6899 10.5087H8.66606C8.2495 10.5087 7.91181 10.1666 7.91181 9.74456C7.91181 9.32255 8.2495 8.98044 8.66606 8.98044H9.9998L10.2573 7.71052C10.3411 7.29714 10.7399 7.03087 11.1479 7.11579C11.5559 7.20071 11.8188 7.60467 11.7349 8.01805L11.5398 8.98044H13.683L13.9412 7.71013C14.0253 7.29679 14.4242 7.03074 14.8322 7.11588C15.2402 7.20102 15.5028 7.60512 15.4187 8.01846L15.2231 8.98044H16.1458C16.5624 8.98044 16.9001 9.32255 16.9001 9.74456C16.9001 10.1666 16.5624 10.5087 16.1458 10.5087H14.9124L14.2878 13.5806H15.3341C15.7507 13.5806 16.0884 13.9227 16.0884 14.3447C16.0884 14.7667 15.7507 15.1088 15.3341 15.1088H13.9771L13.6979 16.482C13.6138 16.8953 13.215 17.1613 12.807 17.0762C12.399 16.9911 12.1364 16.587 12.2204 16.1736L12.4369 15.1088H10.2971L10.0171 16.4895C9.93332 16.9029 9.53459 17.1691 9.12655 17.0842ZM12.7476 13.5806L13.3722 10.5087H11.2299L10.607 13.5806H12.7476Z" />
</svg>
