<svg width="24" height="24" viewBox="0 0 24 24" xmlns="http://www.w3.org/2000/svg">
<g id="icons/hashtag_in_bubble_fill">
<path id="Subtract" fill-rule="evenodd" clip-rule="evenodd" d="M2 12C2 6.47715 6.47715 2 12 2C17.5228 2 22 6.47715 22 12C22 14.5749 21.0268 16.9226 19.4281 18.6951L20.4758 21.3143C20.6072 21.6427 20.3653 22 20.0115 22H12.0001L12 22C6.47715 22 2 17.5228 2 12ZM12.0322 17.1029C11.94 17.5564 12.2281 17.9997 12.6757 18.0931C13.1233 18.1865 13.5609 17.8946 13.6531 17.4411L14.0903 15.3135H15.9526C16.4097 15.3135 16.7802 14.9382 16.7802 14.4751C16.7802 14.0121 16.4097 13.6368 15.9526 13.6368H14.4349L15.0583 10.6028H16.6563C17.1134 10.6028 17.4839 10.2275 17.4839 9.76443C17.4839 9.30141 17.1134 8.92606 16.6563 8.92606H15.4028L15.8197 6.89735C15.9119 6.44385 15.6238 6.0005 15.1762 5.90709C14.7286 5.81368 14.291 6.1056 14.1988 6.5591L13.7124 8.92606H11.3755L11.7924 6.89735C11.8846 6.44385 11.5965 6.0005 11.1489 5.90709C10.7013 5.81368 10.2637 6.1056 10.1715 6.5591L9.68513 8.92606H8.0475C7.59046 8.92606 7.21996 9.30141 7.21996 9.76443C7.21996 10.2275 7.59046 10.6028 8.0475 10.6028H9.34058L8.71715 13.6368H7.34382C6.88679 13.6368 6.51629 14.0121 6.51629 14.4751C6.51629 14.9382 6.88679 15.3135 7.34382 15.3135H8.3726L8.00492 17.1029C7.91271 17.5564 8.20081 17.9997 8.64841 18.0931C9.09601 18.1865 9.53361 17.8946 9.62582 17.4411L10.063 15.3135H12.3999L12.0322 17.1029ZM10.4075 13.6368L11.031 10.6028H13.3679L12.7444 13.6368H10.4075Z" />
</g>
</svg>
