<svg width="24" height="24" viewBox="0 0 24 24" fill="none" xmlns="http://www.w3.org/2000/svg">
<path d="M5.5 6.5C5.22386 6.5 5 6.72386 5 7V17C5 17.2761 5.22386 17.5 5.5 17.5H18.5C18.7761 17.5 19 17.2761 19 17V12.25C19 11.8358 19.3358 11.5 19.75 11.5C20.1642 11.5 20.5 11.8358 20.5 12.25V17C20.5 18.1046 19.6046 19 18.5 19H5.5C4.39543 19 3.5 18.1046 3.5 17V7C3.5 5.89543 4.39543 5 5.5 5H13.25C13.6642 5 14 5.33579 14 5.75C14 6.16421 13.6642 6.5 13.25 6.5H5.5Z" fill="#464E53"/>
<path d="M12.692 11.907L6.78174 17.6209H19.0786V15.5129L15.4963 11.9306C14.7246 11.1589 13.4766 11.1484 12.692 11.907Z" fill="#464E53"/>
<circle cx="8.5" cy="9.5" r="1.5" fill="#464E53"/>
<path fill-rule="evenodd" clip-rule="evenodd" d="M15.6136 8.77562C15.2719 9.11733 15.2323 9.63177 15.5252 9.92467C15.8181 10.2176 16.3325 10.178 16.6742 9.83628L18 8.51051L19.3258 9.83629C19.6675 10.178 20.1819 10.2176 20.4748 9.92468C20.7677 9.63179 20.7281 9.11734 20.3864 8.77563L19.0606 7.44985L20.3865 6.12397C20.7282 5.78226 20.7678 5.26781 20.4749 4.97492C20.182 4.68203 19.6676 4.7216 19.3259 5.06331L18 6.38919L16.6741 5.06332C16.3324 4.72162 15.818 4.68204 15.5251 4.97494C15.2322 5.26783 15.2717 5.78228 15.6135 6.12398L16.9393 7.44985L15.6136 8.77562Z" fill="#464E53"/>
</svg>
