<svg width="24" height="24" viewBox="0 0 24 24" fill="none" xmlns="http://www.w3.org/2000/svg">
<path fill-rule="evenodd" clip-rule="evenodd" d="M12 6.25564L10.2374 8.82755C9.90724 9.30923 9.42116 9.66239 8.86103 9.82751L5.87032 10.7091L7.77166 13.1802C8.12776 13.6431 8.31343 14.2145 8.29737 14.7982L8.21165 17.915L11.1494 16.8703C11.6996 16.6747 12.3004 16.6747 12.8506 16.8703L15.7883 17.915L15.7026 14.7982C15.6866 14.2145 15.8722 13.6431 16.2283 13.1802L18.1297 10.7091L15.139 9.82751C14.5788 9.66239 14.0928 9.30923 13.7626 8.82755L12 6.25564ZM12.8377 4.78337C12.4343 4.19481 11.5657 4.19481 11.1623 4.78337L8.98085 7.96641C8.8488 8.15908 8.65437 8.30035 8.43032 8.36639L4.72897 9.45749C4.04456 9.65924 3.77615 10.4853 4.21126 11.0508L6.56439 14.1091C6.70683 14.2943 6.78109 14.5228 6.77467 14.7563L6.66858 18.6137C6.64897 19.327 7.35168 19.8375 8.02396 19.5984L11.6598 18.3056C11.8798 18.2273 12.1202 18.2273 12.3402 18.3056L15.976 19.5984C16.6483 19.8375 17.351 19.327 17.3314 18.6137L17.2253 14.7563C17.2189 14.5228 17.2932 14.2943 17.4356 14.1091L19.7887 11.0508C20.2239 10.4853 19.9554 9.65924 19.271 9.45748L15.5697 8.36639C15.3456 8.30035 15.1512 8.15908 15.0191 7.96641L12.8377 4.78337Z" fill="#464E53"/>
</svg>
