<svg width="24" height="24" viewBox="0 0 24 24"  xmlns="http://www.w3.org/2000/svg">
<path fill-rule="evenodd" clip-rule="evenodd" d="M4 3.75C4 3.33579 4.33579 3 4.75 3L19.25 3C19.6642 3 20 3.33579 20 3.75C20 4.16421 19.6642 4.5 19.25 4.5L4.75 4.5C4.33579 4.5 4 4.16421 4 3.75Z" />
<path d="M5.48482 20.7852C4.60435 21.0303 3.84223 20.0556 4.3026 19.266L11.1702 7.48779C11.5569 6.82468 12.5156 6.82642 12.8998 7.49094L19.7727 19.3774C20.2213 20.1532 19.5015 21.082 18.6383 20.8412L12.5647 19.147C12.2197 19.0508 11.8575 19.0483 11.5117 19.1414C10.3749 19.4473 7.61904 20.1911 5.48482 20.7852Z" />
</svg>
