<svg width="24" height="24" viewBox="0 0 24 24" xmlns="http://www.w3.org/2000/svg">
<path fill-rule="evenodd" clip-rule="evenodd" d="M5 4.75C5 4.33579 5.33579 4 5.75 4L18.25 4C18.6642 4 19 4.33579 19 4.75C19 5.16421 18.6642 5.5 18.25 5.5L5.75 5.5C5.33579 5.5 5 5.16421 5 4.75Z" />
<path d="M11.3914 18.655L6.45799 20.2078C5.59083 20.4808 4.83881 19.5487 5.28893 18.7588L11.1324 8.50488C11.5158 7.83216 12.4853 7.83159 12.8695 8.50386L18.7345 18.7676C19.1857 19.5572 18.4341 20.4904 17.5665 20.2178L12.5913 18.6547C12.2007 18.532 11.7819 18.5321 11.3914 18.655Z" />
</svg>
