<svg width="24" height="24" viewBox="0 0 24 24" fill="none" xmlns="http://www.w3.org/2000/svg">
<path fill-rule="evenodd" clip-rule="evenodd" d="M4.77892 11.9833C2.7895 9.99385 2.7895 6.76836 4.77892 4.77894C6.76834 2.78952 9.99383 2.78952 11.9832 4.77894L12.768 5.56366C13.1585 5.95418 13.1585 6.58734 12.768 6.97787C12.3774 7.36839 11.7443 7.36839 11.3538 6.97787L10.569 6.19315C9.36066 4.98478 7.40151 4.98478 6.19313 6.19315C4.98476 7.40152 4.98476 9.36068 6.19314 10.5691L8.4969 12.8728C9.68555 14.0615 11.6127 14.0615 12.8014 12.8728L13.2507 12.4235C13.6412 12.033 14.2744 12.033 14.6649 12.4235C15.0554 12.8141 15.0554 13.4472 14.6649 13.8377L14.2156 14.287C12.2459 16.2567 9.05238 16.2567 7.08268 14.287L4.77892 11.9833Z" fill="#464E53"/>
<path fill-rule="evenodd" clip-rule="evenodd" d="M19.2208 12.0166C21.2103 14.006 21.2103 17.2315 19.2208 19.2209C17.2314 21.2103 14.0059 21.2103 12.0165 19.2209L11.2939 18.4983C10.9034 18.1078 10.9034 17.4746 11.2939 17.0841C11.6844 16.6936 12.3176 16.6936 12.7081 17.0841L13.4307 17.8067C14.6391 19.0151 16.5982 19.0151 17.8066 17.8067C19.015 16.5983 19.015 14.6392 17.8066 13.4308L15.5313 11.1555C14.3513 9.97547 12.4381 9.97547 11.2581 11.1555L10.7932 11.6204C10.4027 12.0109 9.7695 12.0109 9.37897 11.6204C8.98845 11.2299 8.98845 10.5967 9.37897 10.2062L9.84391 9.74127C11.805 7.78021 14.9845 7.78021 16.9455 9.74127L19.2208 12.0166Z" fill="#464E53"/>
</svg>
