<svg width="24" height="24" viewBox="0 0 24 24" fill="none" xmlns="http://www.w3.org/2000/svg">
<path fill-rule="evenodd" clip-rule="evenodd" d="M12.3841 15.1243C12.1842 15.3642 11.8158 15.3642 11.6159 15.1243L8.37629 11.2368C6.81446 9.36259 6.93947 6.60668 8.66457 4.88158C10.5067 3.03947 13.4933 3.03947 15.3354 4.88158C17.0605 6.60668 17.1855 9.36258 15.6237 11.2368L12.3841 15.1243ZM13.5108 8.15027C13.5108 8.98458 12.8344 9.66092 12.0001 9.66092C11.1658 9.66092 10.4895 8.98458 10.4895 8.15027C10.4895 7.31596 11.1658 6.63962 12.0001 6.63962C12.8344 6.63962 13.5108 7.31596 13.5108 8.15027ZM5.50781 12C5.50781 11.5858 5.17203 11.25 4.75781 11.25C4.3436 11.25 4.00781 11.5858 4.00781 12V17.8088C4.00781 18.9103 5.12454 19.6603 6.14419 19.2436L9.49005 17.8762C9.59722 17.8324 9.71715 17.8316 9.8249 17.874L14.0617 19.5393C14.4857 19.706 14.9546 19.7189 15.3871 19.5759L18.6892 18.4843C19.4878 18.2203 20.0271 17.4739 20.0271 16.6328V12C20.0271 11.5858 19.6913 11.25 19.2771 11.25C18.8629 11.25 18.5271 11.5858 18.5271 12V16.6328C18.5271 16.8269 18.4026 16.9992 18.2183 17.0601L14.9163 18.1517C14.8165 18.1847 14.7083 18.1817 14.6104 18.1433L10.3736 16.478C9.9067 16.2944 9.387 16.2979 8.92258 16.4877L5.57673 17.8551C5.56465 17.86 5.55762 17.8599 5.553 17.8594C5.54675 17.8587 5.53846 17.8561 5.52994 17.8503C5.52141 17.8446 5.51586 17.8379 5.51283 17.8324C5.51058 17.8283 5.50781 17.8219 5.50781 17.8088V12Z" fill="#464E53"/>
</svg>
