<svg width="24" height="24" viewBox="0 0 24 24" xmlns="http://www.w3.org/2000/svg">
<path fill-rule="evenodd" clip-rule="evenodd" d="M12 3C9.1005 3 6.75 5.35051 6.75 8.25V8.59451C5.45608 8.92755 4.5 10.1021 4.5 11.5V17.5C4.5 19.1569 5.84315 20.5 7.5 20.5H16.5C18.1569 20.5 19.5 19.1569 19.5 17.5V11.5C19.5 10.1021 18.5439 8.92755 17.25 8.59451V8.25C17.25 5.35051 14.8995 3 12 3ZM15.75 8.5V8.25C15.75 6.17893 14.0711 4.5 12 4.5C9.92893 4.5 8.25 6.17893 8.25 8.25V8.5H15.75ZM12.75 14.2993C13.1984 14.04 13.5 13.5552 13.5 13C13.5 12.1716 12.8284 11.5 12 11.5C11.1716 11.5 10.5 12.1716 10.5 13C10.5 13.5552 10.8016 14.04 11.25 14.2993V16.75C11.25 17.1642 11.5858 17.5 12 17.5C12.4142 17.5 12.75 17.1642 12.75 16.75V14.2993Z" />
</svg>
