<svg width="18" height="18" viewBox="0 0 18 18" fill="none" xmlns="http://www.w3.org/2000/svg">
<g id="icons/slash_in_box">
<path id="Rectangle 78 (Stroke)" fill-rule="evenodd" clip-rule="evenodd" d="M5.0625 4.125C4.54473 4.125 4.125 4.54473 4.125 5.0625V12.9375C4.125 13.4553 4.54473 13.875 5.0625 13.875H12.9375C13.4553 13.875 13.875 13.4553 13.875 12.9375V9C13.875 8.68934 14.1268 8.4375 14.4375 8.4375C14.7482 8.4375 15 8.68934 15 9V12.9375C15 14.0766 14.0766 15 12.9375 15H5.0625C3.92341 15 3 14.0766 3 12.9375V5.0625C3 3.92341 3.92341 3 5.0625 3H9C9.31066 3 9.5625 3.25184 9.5625 3.5625C9.5625 3.87316 9.31066 4.125 9 4.125H5.0625Z" fill="#464E53" stroke="#464E53" stroke-width="0.8" stroke-linecap="round"/>
<path id="Line 45 (Stroke)" fill-rule="evenodd" clip-rule="evenodd" d="M14.4538 3.53975C14.6735 3.75942 14.6735 4.11558 14.4538 4.33525L7.53518 11.2539C7.31551 11.4736 6.95936 11.4736 6.73969 11.2539C6.52002 11.0342 6.52002 10.6781 6.73969 10.4584L13.6583 3.53975C13.878 3.32008 14.2341 3.32008 14.4538 3.53975Z" fill="#464E53" stroke="#464E53" stroke-linecap="round"/>
</g>
</svg>
