<svg xmlns="http://www.w3.org/2000/svg" width="24" height="24" viewBox="0 0 24 24" >
<path fill-rule="evenodd" clip-rule="evenodd" d="M7.4943 10.9414C7.16477 10.3145 7 9.63672 7 8.90816V7.09184C7 6.34633 7.16477 5.66012 7.4943 5.03321C7.83953 4.40631 8.30245 3.91495 8.88305 3.55913C9.46366 3.18638 10.0992 3 10.7896 3C11.4801 3 12.1156 3.18638 12.6962 3.55913C13.2768 3.91495 13.7319 4.40631 14.0615 5.03321C14.4067 5.66012 14.5793 6.34633 14.5793 7.09184V8.90816C14.5793 9.63672 14.4067 10.3145 14.0615 10.9414C13.7319 11.5683 13.2768 12.0681 12.6962 12.4409C12.1156 12.8136 11.4801 13 10.7896 13C10.0992 13 9.46366 12.8136 8.88305 12.4409C8.30245 12.0681 7.83953 11.5683 7.4943 10.9414ZM14.8644 14.5957C13.7194 14.1986 12.4313 14 11 14C9.56874 14 8.2806 14.1986 7.13559 14.5957C6.17137 14.9267 5.33522 15.3901 4.62712 15.9858C4.03955 16.4657 3.58757 16.987 3.27119 17.5496C3.0904 17.8972 3 18.3522 3 18.9149C3 19.4775 3.18079 19.9657 3.54237 20.3794C3.91902 20.7931 4.371 21 4.89831 21H17.1017C17.629 21 18.0734 20.7931 18.435 20.3794C18.8117 19.9657 19 19.4775 19 18.9149C19 18.3522 18.9096 17.8972 18.7288 17.5496C18.4124 16.987 17.9605 16.4657 17.3729 15.9858C16.6648 15.3901 15.8286 14.9267 14.8644 14.5957ZM18.9833 11.2402C18.5525 11.2402 18.2032 10.891 18.2032 10.4602V8.90011H16.6432C16.2124 8.90011 15.8632 8.55088 15.8632 8.12009C15.8632 7.68929 16.2124 7.34006 16.6432 7.34006H18.2032V5.78003C18.2032 5.34923 18.5525 5.00001 18.9833 5.00001C19.4141 5.00001 19.7633 5.34923 19.7633 5.78003V7.34006L21.3234 7.34006C21.7542 7.34006 22.1034 7.68929 22.1034 8.12009C22.1034 8.55088 21.7542 8.90011 21.3234 8.90011H19.7633V10.4602C19.7633 10.891 19.4141 11.2402 18.9833 11.2402Z" />
</svg>
