<svg width="24" height="24" viewBox="0 0 24 24"  xmlns="http://www.w3.org/2000/svg">
<path fill-rule="evenodd" clip-rule="evenodd" d="M11.4804 12.5687C11.5526 12.5288 11.6241 12.4862 11.6948 12.4409C12.2754 12.0681 12.7305 11.5683 13.06 10.9414C13.4052 10.3145 13.5778 9.63672 13.5778 8.90816V7.09184C13.5778 6.34633 13.4052 5.66012 13.06 5.03321C12.7305 4.40631 12.2754 3.91495 11.6948 3.55913C11.1142 3.18638 10.4786 3 9.78818 3C9.09773 3 8.4622 3.18638 7.88159 3.55913C7.30098 3.91495 6.83806 4.40631 6.49284 5.03321C6.1633 5.66012 5.99854 6.34633 5.99854 7.09184V8.90816C5.99854 9.63672 6.1633 10.3145 6.49284 10.9414C6.83806 11.5683 7.30098 12.0681 7.88159 12.4409C7.97515 12.5009 8.07014 12.5562 8.16655 12.6065C8.66845 12.8688 9.20899 13 9.78818 13C9.85888 13 9.92899 12.998 9.99854 12.9941C10.5255 12.9645 11.0195 12.8227 11.4804 12.5687ZM11.7425 14.1072C11.187 14.0357 10.6056 14 9.99854 14C9.92807 14 9.85795 14.0005 9.78818 14.0014C9.14309 14.0103 8.52766 14.0604 7.94188 14.1516C7.30415 14.2509 6.70156 14.3989 6.13413 14.5957C5.16991 14.9267 4.33375 15.3901 3.62565 15.9858C3.03808 16.4657 2.58611 16.987 2.26972 17.5496C2.08893 17.8972 1.99854 18.3522 1.99854 18.9149C1.99854 19.4775 2.17933 19.9657 2.54091 20.3794C2.91756 20.7931 3.36953 21 3.89684 21H16.1002C16.6275 21 17.072 20.7931 17.4336 20.3794C17.8102 19.9657 17.9985 19.4775 17.9985 18.9149C17.9985 18.3522 17.9081 17.8972 17.7273 17.5496C17.411 16.987 16.959 16.4657 16.3714 15.9858C15.6633 15.3901 14.8272 14.9267 13.8629 14.5957C13.2036 14.367 12.4968 14.2042 11.7425 14.1072ZM16.4038 18.2566C16.1937 17.8922 15.8782 17.5197 15.4226 17.1476L15.4141 17.1407L15.4057 17.1336C14.8528 16.6685 14.1831 16.2915 13.376 16.0145L13.3714 16.0129C12.4101 15.6795 11.292 15.5 9.99854 15.5C8.70507 15.5 7.58694 15.6795 6.62569 16.0129L6.62112 16.0145L6.62111 16.0145C5.81402 16.2915 5.14423 16.6685 4.59134 17.1336L4.58298 17.1407L4.57452 17.1476C4.11886 17.5197 3.80334 17.8922 3.59324 18.2567C3.55924 18.3309 3.49854 18.5244 3.49854 18.9149C3.49854 19.1181 3.55078 19.2513 3.66052 19.3809C3.7657 19.493 3.82238 19.5 3.89684 19.5H16.1002C16.162 19.5 16.1868 19.4893 16.1961 19.4849C16.2069 19.4799 16.2444 19.4607 16.3041 19.3923L16.3141 19.3809L16.3244 19.3696C16.448 19.2338 16.4985 19.1064 16.4985 18.9149C16.4985 18.5244 16.4378 18.3308 16.4038 18.2566ZM7.81388 10.2306C8.04228 10.6409 8.33313 10.9482 8.69197 11.1786L7.88159 12.4409L8.69197 11.1786C9.03061 11.396 9.38484 11.5 9.78818 11.5C10.1915 11.5 10.5457 11.396 10.8844 11.1786C11.2407 10.9499 11.5201 10.647 11.7323 10.2434L11.739 10.2306L11.746 10.2178C11.9669 9.81667 12.0778 9.38847 12.0778 8.90816V7.09184C12.0778 6.5884 11.964 6.15265 11.746 5.75678L11.739 5.74403L11.7323 5.73114C11.5231 5.33334 11.2518 5.04694 10.911 4.83808L10.8976 4.82987L10.8844 4.82139C10.5458 4.60397 10.1915 4.5 9.78818 4.5C9.38483 4.5 9.03061 4.60397 8.69197 4.82139L8.67875 4.82987L8.66536 4.83808C8.32175 5.04865 8.03906 5.33964 7.81388 5.74396C7.6078 6.14091 7.49854 6.58179 7.49854 7.09184V8.90816C7.49854 9.39561 7.60522 9.82887 7.81388 10.2306Z" />
<path fill-rule="evenodd" clip-rule="evenodd" d="M15.9985 8.00002C15.9985 7.56922 16.3478 7.22 16.7786 7.22L21.2185 7.21997C21.6493 7.21997 21.9985 7.5692 21.9985 7.99999C21.9985 8.43079 21.6493 8.78002 21.2185 8.78002L16.7786 8.78004C16.3478 8.78004 15.9985 8.43081 15.9985 8.00002Z"/>
</svg>
