<svg xmlns="http://www.w3.org/2000/svg" width="24" height="24" viewBox="0 0 24 24" >
<path fill-rule="evenodd" clip-rule="evenodd" d="M11.4818 12.5687C11.5541 12.5288 11.6256 12.4862 11.6962 12.4409C12.2768 12.0681 12.7319 11.5683 13.0615 10.9414C13.4067 10.3145 13.5793 9.63672 13.5793 8.90816V7.09184C13.5793 6.34633 13.4067 5.66012 13.0615 5.03321C12.7319 4.40631 12.2768 3.91495 11.6962 3.55913C11.1156 3.18638 10.4801 3 9.78965 3C9.09919 3 8.46366 3.18638 7.88305 3.55913C7.30245 3.91495 6.83953 4.40631 6.4943 5.03321C6.16477 5.66012 6 6.34633 6 7.09184V8.90816C6 9.63672 6.16477 10.3145 6.4943 10.9414C6.83953 11.5683 7.30245 12.0681 7.88305 12.4409C7.97661 12.5009 8.0716 12.5562 8.16802 12.6065C8.66991 12.8688 9.21045 13 9.78965 13C9.86034 13 9.93046 12.998 10 12.9941C10.527 12.9645 11.0209 12.8227 11.4818 12.5687ZM11.744 14.1072C11.1884 14.0357 10.6071 14 10 14C9.92954 14 9.85942 14.0005 9.78965 14.0014C9.14456 14.0103 8.52913 14.0604 7.94335 14.1516C7.30561 14.2509 6.70303 14.3989 6.13559 14.5957C5.17137 14.9267 4.33522 15.3901 3.62712 15.9858C3.03955 16.4657 2.58757 16.987 2.27119 17.5496C2.0904 17.8972 2 18.3522 2 18.9149C2 19.4775 2.18079 19.9657 2.54237 20.3794C2.91902 20.7931 3.371 21 3.89831 21H16.1017C16.629 21 17.0734 20.7931 17.435 20.3794C17.8117 19.9657 18 19.4775 18 18.9149C18 18.3522 17.9096 17.8972 17.7288 17.5496C17.4124 16.987 16.9605 16.4657 16.3729 15.9858C15.6648 15.3901 14.8286 14.9267 13.8644 14.5957C13.2051 14.367 12.4983 14.2042 11.744 14.1072ZM16.4053 18.2566C16.1952 17.8922 15.8797 17.5197 15.424 17.1476L15.4156 17.1407L15.4072 17.1336C14.8543 16.6685 14.1845 16.2915 13.3774 16.0145L13.3728 16.0129C12.4116 15.6795 11.2935 15.5 10 15.5C8.70653 15.5 7.5884 15.6795 6.62716 16.0129L6.62258 16.0145L6.62258 16.0145C5.81549 16.2915 5.1457 16.6685 4.5928 17.1336L4.58444 17.1407L4.57599 17.1476C4.12032 17.5197 3.8048 17.8922 3.59471 18.2567C3.56071 18.3309 3.5 18.5244 3.5 18.9149C3.5 19.1181 3.55224 19.2513 3.66199 19.3809C3.76716 19.493 3.82385 19.5 3.89831 19.5H16.1017C16.1635 19.5 16.1883 19.4893 16.1976 19.4849C16.2084 19.4799 16.2458 19.4607 16.3056 19.3923L16.3156 19.3809L16.3258 19.3696C16.4495 19.2338 16.5 19.1064 16.5 18.9149C16.5 18.5244 16.4393 18.3308 16.4053 18.2566ZM7.81534 10.2306C8.04375 10.6409 8.3346 10.9482 8.69343 11.1786L7.88305 12.4409L8.69343 11.1786C9.03208 11.396 9.3863 11.5 9.78965 11.5C10.193 11.5 10.5472 11.396 10.8859 11.1786C11.2421 10.9499 11.5216 10.647 11.7337 10.2434L11.7405 10.2306L11.7475 10.2178C11.9684 9.81667 12.0793 9.38847 12.0793 8.90816V7.09184C12.0793 6.5884 11.9655 6.15265 11.7475 5.75678L11.7405 5.74403L11.7337 5.73114C11.5246 5.33334 11.2533 5.04694 10.9125 4.83808L10.8991 4.82987L10.8859 4.82139C10.5472 4.60397 10.193 4.5 9.78965 4.5C9.3863 4.5 9.03208 4.60397 8.69343 4.82139L8.68022 4.82987L8.66683 4.83808C8.32322 5.04865 8.04053 5.33964 7.81535 5.74396C7.60927 6.14091 7.5 6.58179 7.5 7.09184V8.90816C7.5 9.39561 7.60669 9.82887 7.81534 10.2306Z" />
<path fill-rule="evenodd" clip-rule="evenodd" d="M16 7.99977C16 7.56898 16.3492 7.21975 16.78 7.21975L21.22 7.21973C21.6508 7.21973 22 7.56896 22 7.99975C22 8.43055 21.6508 8.77977 21.22 8.77977L16.78 8.7798C16.3492 8.7798 16 8.43057 16 7.99977Z" />
</svg>