<svg width="24" height="24" viewBox="0 0 24 24"  xmlns="http://www.w3.org/2000/svg">
<path fill-rule="evenodd" clip-rule="evenodd" d="M8.2884 5.73098C8.58231 5.19726 8.97642 4.77894 9.47072 4.47602C9.96502 4.15867 10.5061 4 11.0939 4C11.6817 4 12.2228 4.15867 12.7171 4.47602C13.2114 4.77894 13.5988 5.19726 13.8794 5.73098C14.1733 6.2647 14.3202 6.8489 14.3202 7.4836V9.02992C14.3202 9.65019 14.1733 10.2272 13.8794 10.7609C13.5988 11.2946 13.2114 11.7201 12.7171 12.0375L11.9067 10.7752C12.1767 10.6019 12.3885 10.3734 12.5516 10.063L12.5584 10.0501L12.5654 10.0373C12.735 9.72938 12.8202 9.40193 12.8202 9.02992V7.4836C12.8202 7.09097 12.7321 6.75723 12.5654 6.45455L12.5584 6.44179L12.5516 6.42891C12.3915 6.12429 12.1878 5.91093 11.9333 5.75496L11.9199 5.74676L11.9067 5.73827C11.6544 5.57627 11.3946 5.5 11.0939 5.5C10.7932 5.5 10.5334 5.57627 10.2811 5.73827L10.2679 5.74676L10.2545 5.75496C9.9971 5.9127 9.78322 6.13075 9.60947 6.4417C9.45232 6.74551 9.36758 7.08448 9.36758 7.4836V9.02992C9.36758 9.40902 9.44977 9.74162 9.60947 10.0502C9.78647 10.3671 10.0085 10.6002 10.2811 10.7752C10.5334 10.9372 10.7932 11.0135 11.0939 11.0135C11.3946 11.0135 11.6544 10.9372 11.9067 10.7752L12.7171 12.0375C12.4445 12.2125 12.1576 12.3393 11.8566 12.4178C11.6118 12.4816 11.3575 12.5135 11.0939 12.5135C10.8303 12.5135 10.576 12.4816 10.3312 12.4178C10.0301 12.3393 9.74332 12.2125 9.47072 12.0375C8.97642 11.7201 8.58231 11.2946 8.2884 10.7609C8.00785 10.2272 7.86758 9.65019 7.86758 9.02992V7.4836C7.86758 6.8489 8.00785 6.2647 8.2884 5.73098ZM11.0939 13.8983C11.3963 13.8983 11.6915 13.9081 11.9795 13.9278C12.9002 13.9906 13.7472 14.1539 14.5206 14.4176C15.3756 14.7061 16.1171 15.11 16.745 15.6293C17.266 16.0476 17.6668 16.502 17.9473 16.9924C18.1076 17.2953 18.1878 17.692 18.1878 18.1825C18.1878 18.6729 18.0208 19.0984 17.6868 19.4591C17.3662 19.8197 16.9721 20 16.5045 20H5.6833C5.21572 20 4.81493 19.8197 4.48094 19.4591C4.16031 19.0984 4 18.6729 4 18.1825C4 17.692 4.08016 17.2953 4.24047 16.9924C4.52102 16.502 4.92181 16.0476 5.44283 15.6293C6.07072 15.11 6.81218 14.7061 7.66719 14.4176C8.44058 14.1539 9.28762 13.9906 10.2083 13.9278C10.4963 13.9081 10.7915 13.8983 11.0939 13.8983ZM15.8059 16.7989C16.1923 17.1092 16.4542 17.4142 16.6265 17.705C16.6427 17.744 16.6878 17.8813 16.6878 18.1825C16.6878 18.294 16.6641 18.3558 16.5863 18.4398L16.5759 18.451L16.5658 18.4624C16.5471 18.4834 16.5343 18.4943 16.5284 18.4989C16.5236 18.4994 16.5158 18.5 16.5045 18.5H5.6833C5.66331 18.5 5.65304 18.4981 5.65009 18.4975L5.64768 18.4969L5.64745 18.4968L5.64402 18.495C5.64192 18.4938 5.63833 18.4915 5.63324 18.4878C5.62468 18.4815 5.61057 18.47 5.59162 18.4505C5.52697 18.3743 5.5 18.3058 5.5 18.1825C5.5 17.8813 5.54506 17.744 5.56127 17.705C5.73361 17.4142 5.99551 17.1092 6.38192 16.7989L6.39041 16.7921L6.3988 16.7852C6.87105 16.3946 7.4468 16.075 8.14675 15.8389L8.14675 15.8389L8.15128 15.8373C8.98517 15.553 9.96005 15.3983 11.0939 15.3983C12.2278 15.3983 13.2026 15.553 14.0365 15.8373L14.0411 15.8389C14.741 16.075 15.3168 16.3946 15.789 16.7852L15.7974 16.7921L15.8059 16.7989ZM18.8977 11.5073C18.4693 11.5073 18.1221 11.1601 18.1221 10.7317V9.18059H16.571C16.1426 9.18059 15.7954 8.83336 15.7954 8.40503C15.7954 7.97669 16.1426 7.62946 16.571 7.62946L18.1221 7.62946V6.07833C18.1221 5.65 18.4693 5.30276 18.8977 5.30276C19.326 5.30276 19.6732 5.65 19.6732 6.07833V7.62946L21.2244 7.62946C21.6527 7.62946 21.9999 7.97669 21.9999 8.40503C21.9999 8.83336 21.6527 9.18059 21.2244 9.18059H19.6732V10.7317C19.6732 11.1601 19.326 11.5073 18.8977 11.5073Z" />
</svg>
