<svg width="24" height="24" viewBox="0 0 24 24"  xmlns="http://www.w3.org/2000/svg">
<path d="M12 4C11.4318 4 10.9088 4.15338 10.431 4.46013C9.95315 4.75294 9.5722 5.1573 9.2881 5.6732C9.01691 6.18911 8.88132 6.75381 8.88132 7.36732V9.39608C8.88132 9.99564 9.01691 10.5534 9.2881 11.0693C9.5722 11.5852 9.95315 11.9965 10.431 12.3033C10.9088 12.61 11.4318 12.7634 12 12.7634C12.5682 12.7634 13.0912 12.61 13.569 12.3033C14.0468 11.9965 14.4213 11.5852 14.6925 11.0693C14.9766 10.5534 15.1186 9.99564 15.1186 9.39608V7.36732C15.1186 6.75381 14.9766 6.18911 14.6925 5.6732C14.4213 5.1573 14.0468 4.75294 13.569 4.46013C13.0912 4.15338 12.5682 4 12 4ZM12 20H6.76994C6.31796 20 5.93055 19.8257 5.60771 19.4771C5.29779 19.1285 5.14282 18.7172 5.14282 18.2431C5.14282 17.7691 5.2203 17.3856 5.37527 17.0928C5.64645 16.6187 6.03386 16.1795 6.5375 15.7752C7.14444 15.2732 7.86114 14.8828 8.68762 14.6039C9.66905 14.2693 10.7732 14.102 12 14.102C13.2268 14.102 14.3309 14.2693 15.3123 14.6039C16.1388 14.8828 16.8555 15.2732 17.4624 15.7752C17.9661 16.1795 18.3535 16.6187 18.6247 17.0928C18.7796 17.3856 18.8571 17.7691 18.8571 18.2431C18.8571 18.7172 18.6957 19.1285 18.3728 19.4771C18.0629 19.8257 17.682 20 17.23 20H12Z" />
</svg>
