<svg xmlns="http://www.w3.org/2000/svg" width="24" height="24" viewBox="0 0 24 24" >
<path fill-rule="evenodd" clip-rule="evenodd" d="M8.4943 10.9414C8.16477 10.3145 8 9.63672 8 8.90816V7.09184C8 6.34633 8.16477 5.66012 8.4943 5.03321C8.83953 4.40631 9.30245 3.91495 9.88305 3.55913C10.4637 3.18638 11.0992 3 11.7896 3C12.4801 3 13.1156 3.18638 13.6962 3.55913C14.2768 3.91495 14.7319 4.40631 15.0615 5.03321C15.4067 5.66012 15.5793 6.34633 15.5793 7.09184V8.90816C15.5793 9.63672 15.4067 10.3145 15.0615 10.9414C14.7319 11.5683 14.2768 12.0681 13.6962 12.4409C13.1156 12.8136 12.4801 13 11.7896 13C11.0992 13 10.4637 12.8136 9.88305 12.4409C9.30245 12.0681 8.83953 11.5683 8.4943 10.9414ZM15.8644 14.5957C14.7194 14.1986 13.4313 14 12 14C10.5687 14 9.2806 14.1986 8.13559 14.5957C7.17137 14.9267 6.33522 15.3901 5.62712 15.9858C5.03955 16.4657 4.58757 16.987 4.27119 17.5496C4.0904 17.8972 4 18.3522 4 18.9149C4 19.4775 4.18079 19.9657 4.54237 20.3794C4.91902 20.7931 5.371 21 5.89831 21H11.628C11.5451 20.7654 11.5 20.513 11.5 20.25C11.5 19.6737 11.7166 19.1481 12.0729 18.75C11.7166 18.3519 11.5 17.8263 11.5 17.25C11.5 16.0074 12.5074 15 13.75 15H16.8464C16.5353 14.8484 16.208 14.7137 15.8644 14.5957Z" />
<path fill-rule="evenodd" clip-rule="evenodd" d="M13 17.25C13 16.8358 13.3358 16.5 13.75 16.5H20.25C20.6642 16.5 21 16.8358 21 17.25C21 17.6642 20.6642 18 20.25 18H13.75C13.3358 18 13 17.6642 13 17.25Z" />
<path fill-rule="evenodd" clip-rule="evenodd" d="M13 20.25C13 19.8358 13.3358 19.5 13.75 19.5H20.25C20.6642 19.5 21 19.8358 21 20.25C21 20.6642 20.6642 21 20.25 21H13.75C13.3358 21 13 20.6642 13 20.25Z" />
</svg>