<svg xmlns="http://www.w3.org/2000/svg" width="24" height="24" viewBox="0 0 24 24" >
<path fill-rule="evenodd" clip-rule="evenodd" d="M20.2203 19H18.0976C18.0361 18.7179 17.9436 18.4457 17.812 18.1907L17.803 18.1734L17.7936 18.1564C17.4139 17.4763 16.8876 16.8742 16.2438 16.3433C15.4579 15.6787 14.5436 15.1733 13.5169 14.8181C13.1322 14.6837 12.7352 14.5716 12.3265 14.4809C12.7747 14.0846 13.1429 13.6102 13.4286 13.0655C13.5447 12.8521 13.6446 12.6336 13.7284 12.4104C13.9805 12.3961 14.2376 12.3889 14.4999 12.3889C15.8417 12.3889 17.0494 12.5764 18.1228 12.9515C19.0268 13.2641 19.8107 13.7017 20.4745 14.2644C21.0253 14.7176 21.4491 15.2099 21.7457 15.7413C21.9152 16.0695 21.9999 16.4993 21.9999 17.0307C21.9999 17.5621 21.8234 18.0232 21.4703 18.4139C21.1313 18.8046 20.7146 19 20.2203 19ZM14.3027 11.4444C14.1966 11.4444 14.0918 11.4397 13.9884 11.4302C14.0332 11.1522 14.0556 10.8685 14.0556 10.5799V8.86451C14.0556 7.97224 13.8492 7.12843 13.4286 6.35483C13.0266 5.58852 12.4593 4.96568 11.7313 4.51361C11.525 4.38094 11.3121 4.26655 11.0934 4.17062C11.1304 4.08608 11.1704 4.00263 11.2133 3.92026C11.537 3.32818 11.971 2.86412 12.5153 2.52807C13.0596 2.17602 13.6554 2 14.3027 2C14.95 2 15.5458 2.17602 16.0901 2.52807C16.6345 2.86412 17.0611 3.32818 17.37 3.92026C17.6937 4.51234 17.8555 5.16042 17.8555 5.86452V7.57993C17.8555 8.26802 17.6937 8.9081 17.37 9.50018C17.0611 10.0923 16.6345 10.5643 16.0901 10.9164C15.5458 11.2684 14.95 11.4444 14.3027 11.4444ZM6.21341 12.5002C5.90447 11.9081 5.75 11.268 5.75 10.5799V8.86452C5.75 8.16042 5.90447 7.51234 6.21341 6.92026C6.53706 6.32818 6.97104 5.86412 7.51536 5.52807C8.05968 5.17602 8.65549 5 9.30279 5C9.95009 5 10.5459 5.17602 11.0902 5.52807C11.6345 5.86412 12.0612 6.32818 12.3701 6.92026C12.6938 7.51234 12.8556 8.16042 12.8556 8.86452V10.5799C12.8556 11.268 12.6938 11.9081 12.3701 12.5002C12.0612 13.0923 11.6345 13.5643 11.0902 13.9164C10.5459 14.2684 9.95009 14.4444 9.30279 14.4444C8.65549 14.4444 8.05968 14.2684 7.51536 13.9164C6.97104 13.5643 6.53706 13.0923 6.21341 12.5002ZM13.1229 15.9515C12.0494 15.5764 10.8418 15.3889 9.5 15.3889C8.15819 15.3889 6.95057 15.5764 5.87712 15.9515C4.97316 16.2641 4.18927 16.7017 3.52542 17.2644C2.97458 17.7176 2.55085 18.2099 2.25424 18.7413C2.08475 19.0695 2 19.4993 2 20.0307C2 20.5621 2.16949 21.0232 2.50847 21.4139C2.86158 21.8046 3.28531 22 3.77966 22H15.2203C15.7147 22 16.1314 21.8046 16.4703 21.4139C16.8234 21.0232 17 20.5621 17 20.0307C17 19.4993 16.9153 19.0695 16.7458 18.7413C16.4492 18.2099 16.0254 17.7176 15.4746 17.2644C14.8107 16.7017 14.0268 16.2641 13.1229 15.9515Z" />
</svg>