<svg width="24" height="24" viewBox="0 0 24 24" fill="none" xmlns="http://www.w3.org/2000/svg">
<path fill-rule="evenodd" clip-rule="evenodd" d="M9.08459 4.46013C9.54401 4.15338 10.0469 4 10.5932 4C11.1395 4 11.6424 4.15338 12.1018 4.46013C12.5612 4.75294 12.9213 5.1573 13.1821 5.6732C13.4552 6.18911 13.5918 6.75381 13.5918 7.36732V9.39608C13.5918 9.99564 13.4552 10.5534 13.1821 11.0693C12.9213 11.5852 12.5612 11.9965 12.1018 12.3033C11.6424 12.61 11.1395 12.7634 10.5932 12.7634C10.0469 12.7634 9.54401 12.61 9.08459 12.3033C8.62518 11.9965 8.25889 11.5852 7.98572 11.0693C7.72498 10.5534 7.5946 9.99564 7.5946 9.39608V7.36732C7.5946 6.75381 7.72498 6.18911 7.98572 5.6732C8.25889 5.1573 8.62518 4.75294 9.08459 4.46013ZM5.56449 20H10.5932H15.6219C16.0565 20 16.4228 19.8257 16.7208 19.4771C17.0312 19.1285 17.1864 18.7172 17.1864 18.2431C17.1864 17.7691 17.1119 17.3856 16.9629 17.0928C16.7022 16.6187 16.3297 16.1795 15.8454 15.7752C15.2618 15.2732 14.5727 14.8828 13.7781 14.6039C12.8344 14.2693 11.7728 14.102 10.5932 14.102C9.41363 14.102 8.35201 14.2693 7.40835 14.6039C6.61369 14.8828 5.92457 15.2732 5.34099 15.7752C4.85674 16.1795 4.48425 16.6187 4.2235 17.0928C4.0745 17.3856 4 17.7691 4 18.2431C4 18.7172 4.149 19.1285 4.447 19.4771C4.75741 19.8257 5.12991 20 5.56449 20ZM18.5 10.635C19.7081 10.635 20.6875 9.61638 20.6875 8.35989C20.6875 7.97505 20.5956 7.61253 20.4334 7.29476L17.4759 10.3707C17.7814 10.5394 18.13 10.635 18.5 10.635ZM18.5 6.08482C18.8601 6.08482 19.1999 6.17532 19.4995 6.33565L16.5537 9.39939C16.3995 9.08781 16.3125 8.73442 16.3125 8.35989C16.3125 7.10341 17.2919 6.08482 18.5 6.08482ZM22 8.35989C22 10.3703 20.433 12 18.5 12C16.567 12 15 10.3703 15 8.35989C15 6.34951 16.567 4.71978 18.5 4.71978C20.433 4.71978 22 6.34951 22 8.35989Z" fill="#464E53"/>
</svg>
