<svg width="24" height="24" viewBox="0 0 24 24"  xmlns="http://www.w3.org/2000/svg">
<path fill-rule="evenodd" clip-rule="evenodd" d="M18.22 10.22C18.22 10.6508 18.5692 11 19 11C19.4308 11 19.78 10.6508 19.78 10.22L19.78 8.78003L21.22 8.78002C21.6508 8.78002 22 8.43079 22 7.99999C22 7.5692 21.6508 7.21997 21.22 7.21997L19.78 7.21998L19.78 5.78002C19.78 5.34923 19.4308 5 19 5C18.5692 5 18.22 5.34923 18.22 5.78002L18.22 7.21999L16.78 7.22C16.3492 7.22 16 7.56922 16 8.00002C16 8.43081 16.3492 8.78004 16.78 8.78004L18.22 8.78003L18.22 10.22Z" />
<path fill-rule="evenodd" clip-rule="evenodd" d="M12.4818 12.5687C12.5541 12.5288 12.6256 12.4862 12.6962 12.4409C13.2768 12.0681 13.7319 11.5683 14.0615 10.9414C14.4067 10.3145 14.5793 9.63672 14.5793 8.90816V7.09184C14.5793 6.34633 14.4067 5.66012 14.0615 5.03321C13.7319 4.40631 13.2768 3.91495 12.6962 3.55913C12.1156 3.18638 11.4801 3 10.7896 3C10.0992 3 9.46366 3.18638 8.88305 3.55913C8.30245 3.91495 7.83953 4.40631 7.4943 5.03321C7.16477 5.66012 7 6.34633 7 7.09184V8.90816C7 9.63672 7.16477 10.3145 7.4943 10.9414C7.83953 11.5683 8.30245 12.0681 8.88305 12.4409C8.97661 12.5009 9.0716 12.5562 9.16802 12.6065C9.66991 12.8688 10.2105 13 10.7896 13C10.8603 13 10.9305 12.998 11 12.9941C11.527 12.9645 12.0209 12.8227 12.4818 12.5687ZM12.744 14.1072C12.1884 14.0357 11.6071 14 11 14C10.9295 14 10.8594 14.0005 10.7896 14.0014C10.1446 14.0103 9.52913 14.0604 8.94335 14.1516C8.30561 14.2509 7.70303 14.3989 7.13559 14.5957C6.17137 14.9267 5.33522 15.3901 4.62712 15.9858C4.03955 16.4657 3.58757 16.987 3.27119 17.5496C3.0904 17.8972 3 18.3522 3 18.9149C3 19.4775 3.18079 19.9657 3.54237 20.3794C3.91902 20.7931 4.371 21 4.89831 21H17.1017C17.629 21 18.0734 20.7931 18.435 20.3794C18.8117 19.9657 19 19.4775 19 18.9149C19 18.3522 18.9096 17.8972 18.7288 17.5496C18.4124 16.987 17.9605 16.4657 17.3729 15.9858C16.6648 15.3901 15.8286 14.9267 14.8644 14.5957C14.2051 14.367 13.4983 14.2042 12.744 14.1072ZM17.4053 18.2566C17.1952 17.8922 16.8797 17.5197 16.424 17.1476L16.4156 17.1407L16.4072 17.1336C15.8543 16.6685 15.1845 16.2915 14.3774 16.0145L14.3728 16.0129C13.4116 15.6795 12.2935 15.5 11 15.5C9.70653 15.5 8.5884 15.6795 7.62716 16.0129L7.62258 16.0145L7.62258 16.0145C6.81549 16.2915 6.1457 16.6685 5.5928 17.1336L5.58444 17.1407L5.57599 17.1476C5.12032 17.5197 4.8048 17.8922 4.59471 18.2567C4.56071 18.3309 4.5 18.5244 4.5 18.9149C4.5 19.1181 4.55224 19.2513 4.66199 19.3809C4.76716 19.493 4.82385 19.5 4.89831 19.5H17.1017C17.1635 19.5 17.1883 19.4893 17.1976 19.4849C17.2084 19.4799 17.2458 19.4607 17.3056 19.3923L17.3156 19.3809L17.3258 19.3696C17.4495 19.2338 17.5 19.1064 17.5 18.9149C17.5 18.5244 17.4393 18.3308 17.4053 18.2566ZM8.81534 10.2306C9.04375 10.6409 9.3346 10.9482 9.69343 11.1786L8.88305 12.4409L9.69343 11.1786C10.0321 11.396 10.3863 11.5 10.7896 11.5C11.193 11.5 11.5472 11.396 11.8859 11.1786C12.2421 10.9499 12.5216 10.647 12.7337 10.2434L12.7405 10.2306L12.7475 10.2178C12.9684 9.81667 13.0793 9.38847 13.0793 8.90816V7.09184C13.0793 6.5884 12.9655 6.15265 12.7475 5.75678L12.7405 5.74403L12.7337 5.73114C12.5246 5.33334 12.2533 5.04694 11.9125 4.83808L11.8991 4.82987L11.8859 4.82139C11.5472 4.60397 11.193 4.5 10.7896 4.5C10.3863 4.5 10.0321 4.60397 9.69343 4.82139L9.68022 4.82987L9.66683 4.83808C9.32322 5.04865 9.04053 5.33964 8.81535 5.74396C8.60927 6.14091 8.5 6.58179 8.5 7.09184V8.90816C8.5 9.39561 8.60669 9.82887 8.81534 10.2306Z" />
</svg>
