<svg xmlns="http://www.w3.org/2000/svg" width="24" height="24" viewBox="0 0 24 24" >
<path fill-rule="evenodd" clip-rule="evenodd" d="M6.4943 10.9414C6.16477 10.3145 6 9.63672 6 8.90816V7.09184C6 6.34633 6.16477 5.66012 6.4943 5.03321C6.83953 4.40631 7.30245 3.91495 7.88305 3.55913C8.46366 3.18638 9.09919 3 9.78965 3C10.4801 3 11.1156 3.18638 11.6962 3.55913C12.2768 3.91495 12.7319 4.40631 13.0615 5.03321C13.4067 5.66012 13.5793 6.34633 13.5793 7.09184V8.90816C13.5793 9.63672 13.4067 10.3145 13.0615 10.9414C12.7319 11.5683 12.2768 12.0681 11.6962 12.4409C11.1156 12.8136 10.4801 13 9.78965 13C9.09919 13 8.46366 12.8136 7.88305 12.4409C7.30245 12.0681 6.83953 11.5683 6.4943 10.9414ZM13.8644 14.5957C12.7194 14.1986 11.4313 14 10 14C8.56874 14 7.2806 14.1986 6.13559 14.5957C5.17137 14.9267 4.33522 15.3901 3.62712 15.9858C3.03955 16.4657 2.58757 16.987 2.27119 17.5496C2.0904 17.8972 2 18.3522 2 18.9149C2 19.4775 2.18079 19.9657 2.54237 20.3794C2.91902 20.7931 3.371 21 3.89831 21H16.1017C16.629 21 17.0734 20.7931 17.435 20.3794C17.8117 19.9657 18 19.4775 18 18.9149C18 18.3522 17.9096 17.8972 17.7288 17.5496C17.4124 16.987 16.9605 16.4657 16.3729 15.9858C15.6648 15.3901 14.8286 14.9267 13.8644 14.5957ZM16.6432 7.65462C16.2124 7.65462 15.8632 8.00384 15.8632 8.43464C15.8632 8.86543 16.2124 9.21466 16.6432 9.21466L21.2238 9.21466C21.6546 9.21466 22.0038 8.86543 22.0038 8.43464C22.0038 8.00384 21.6546 7.65462 21.2238 7.65462L16.6432 7.65462Z" />
</svg>