<svg width="24" height="24" viewBox="0 0 24 24" fill="none" xmlns="http://www.w3.org/2000/svg">
<path fill-rule="evenodd" clip-rule="evenodd" d="M9.28814 4.46013C9.76594 4.15338 10.2889 4 10.8571 4C11.4253 4 11.9483 4.15338 12.4261 4.46013C12.904 4.75294 13.2785 5.1573 13.5496 5.6732C13.8337 6.18911 13.9758 6.75381 13.9758 7.36732V9.39608C13.9758 9.99564 13.8337 10.5534 13.5496 11.0693C13.2785 11.5852 12.904 11.9965 12.4261 12.3033C11.9483 12.61 11.4253 12.7634 10.8571 12.7634C10.2889 12.7634 9.76594 12.61 9.28814 12.3033C8.81033 11.9965 8.42938 11.5852 8.14528 11.0693C7.87409 10.5534 7.7385 9.99564 7.7385 9.39608V7.36732C7.7385 6.75381 7.87409 6.18911 8.14528 5.6732C8.42938 5.1573 8.81033 4.75294 9.28814 4.46013ZM5.62712 20H10.8571H16.0872C16.5391 20 16.9201 19.8257 17.23 19.4771C17.5529 19.1285 17.7143 18.7172 17.7143 18.2431C17.7143 17.7691 17.6368 17.3856 17.4818 17.0928C17.2107 16.6187 16.8232 16.1795 16.3196 15.7752C15.7127 15.2732 14.996 14.8828 14.1695 14.6039C13.1881 14.2693 12.0839 14.102 10.8571 14.102C9.63035 14.102 8.52623 14.2693 7.54479 14.6039C6.71832 14.8828 6.00161 15.2732 5.39467 15.7752C4.89104 16.1795 4.50363 16.6187 4.23245 17.0928C4.07748 17.3856 4 17.7691 4 18.2431C4 18.7172 4.15496 19.1285 4.46489 19.4771C4.78773 19.8257 5.17514 20 5.62712 20ZM16.5 11.5052C16.2071 11.2123 16.2467 10.6979 16.5884 10.3561L17.9141 9.03038L16.5883 7.70451C16.2466 7.3628 16.207 6.84836 16.4999 6.55546C16.7928 6.26257 17.3072 6.30214 17.6489 6.64385L18.9748 7.96972L20.3007 6.64383C20.6424 6.30213 21.1568 6.26255 21.4497 6.55545C21.7426 6.84834 21.7031 7.36279 21.3613 7.70449L20.0355 9.03038L21.3612 10.3562C21.703 10.6979 21.7425 11.2123 21.4496 11.5052C21.1567 11.7981 20.6423 11.7585 20.3006 11.4168L18.9748 10.091L17.649 11.4168C17.3073 11.7585 16.7929 11.7981 16.5 11.5052Z" fill="#464E53"/>
</svg>
