<svg width="24" height="24" viewBox="0 0 24 24"  xmlns="http://www.w3.org/2000/svg">
<path fill-rule="evenodd" clip-rule="evenodd" d="M9.28814 4.46013C9.76594 4.15338 10.2889 4 10.8571 4C11.4253 4 11.9483 4.15338 12.4261 4.46013C12.904 4.75294 13.2785 5.1573 13.5496 5.6732C13.8337 6.18911 13.9758 6.75381 13.9758 7.36732V9.39608C13.9758 9.99564 13.8337 10.5534 13.5496 11.0693C13.2785 11.5852 12.904 11.9965 12.4261 12.3033C11.9483 12.61 11.4253 12.7634 10.8571 12.7634C10.2889 12.7634 9.76594 12.61 9.28814 12.3033C8.81033 11.9965 8.42938 11.5852 8.14528 11.0693C7.87409 10.5534 7.7385 9.99564 7.7385 9.39608V7.36732C7.7385 6.75381 7.87409 6.18911 8.14528 5.6732C8.42938 5.1573 8.81033 4.75294 9.28814 4.46013ZM5.62712 20H10.8571H16.0872C16.5391 20 16.9201 19.8257 17.23 19.4771C17.5529 19.1285 17.7143 18.7172 17.7143 18.2431C17.7143 17.7691 17.6368 17.3856 17.4818 17.0928C17.2107 16.6187 16.8232 16.1795 16.3196 15.7752C15.7127 15.2732 14.996 14.8828 14.1695 14.6039C13.1881 14.2693 12.0839 14.102 10.8571 14.102C9.63035 14.102 8.52623 14.2693 7.54479 14.6039C6.71832 14.8828 6.00161 15.2732 5.39467 15.7752C4.89104 16.1795 4.50363 16.6187 4.23245 17.0928C4.07748 17.3856 4 17.7691 4 18.2431C4 18.7172 4.15496 19.1285 4.46489 19.4771C4.78773 19.8257 5.17514 20 5.62712 20ZM18.9833 11.5547C18.5525 11.5547 18.2032 11.2055 18.2032 10.7747V9.21466H16.6432C16.2124 9.21466 15.8632 8.86543 15.8632 8.43463C15.8632 8.00384 16.2124 7.65461 16.6432 7.65461L18.2032 7.65461V6.09457C18.2032 5.66378 18.5525 5.31455 18.9833 5.31455C19.4141 5.31455 19.7633 5.66378 19.7633 6.09457V7.65461L21.3234 7.65461C21.7542 7.65461 22.1034 8.00384 22.1034 8.43463C22.1034 8.86543 21.7542 9.21466 21.3234 9.21466L19.7633 9.21466V10.7747C19.7633 11.2055 19.4141 11.5547 18.9833 11.5547Z" />
</svg>
