<svg xmlns="http://www.w3.org/2000/svg" width="24" height="24" viewBox="0 0 24 24">
<path fill-rule="evenodd" clip-rule="evenodd" d="M13.4818 12.5687C13.5541 12.5288 13.6256 12.4862 13.6962 12.4409C14.2768 12.0681 14.7319 11.5683 15.0615 10.9414C15.4067 10.3145 15.5793 9.63672 15.5793 8.90816V7.09184C15.5793 6.34633 15.4067 5.66012 15.0615 5.03321C14.7319 4.40631 14.2768 3.91495 13.6962 3.55913C13.1156 3.18638 12.4801 3 11.7896 3C11.0992 3 10.4637 3.18638 9.88305 3.55913C9.30245 3.91495 8.83953 4.40631 8.4943 5.03321C8.16477 5.66012 8 6.34633 8 7.09184V8.90816C8 9.63672 8.16477 10.3145 8.4943 10.9414C8.83953 11.5683 9.30245 12.0681 9.88305 12.4409C9.97661 12.5009 10.0716 12.5562 10.168 12.6065C10.6699 12.8688 11.2105 13 11.7896 13C11.8603 13 11.9305 12.998 12 12.9941C12.527 12.9645 13.0209 12.8227 13.4818 12.5687ZM13.744 14.1072C13.1884 14.0357 12.6071 14 12 14C11.9295 14 11.8594 14.0005 11.7896 14.0014C11.1446 14.0103 10.5291 14.0604 9.94335 14.1516C9.30561 14.2509 8.70303 14.3989 8.13559 14.5957C7.17137 14.9267 6.33522 15.3901 5.62712 15.9858C5.03955 16.4657 4.58757 16.987 4.27119 17.5496C4.0904 17.8972 4 18.3522 4 18.9149C4 19.4775 4.18079 19.9657 4.54237 20.3794C4.91902 20.7931 5.371 21 5.89831 21H18.1017C18.629 21 19.0734 20.7931 19.435 20.3794C19.8117 19.9657 20 19.4775 20 18.9149C20 18.3522 19.9096 17.8972 19.7288 17.5496C19.4124 16.987 18.9605 16.4657 18.3729 15.9858C17.6648 15.3901 16.8286 14.9267 15.8644 14.5957C15.2051 14.367 14.4983 14.2042 13.744 14.1072ZM18.4053 18.2566C18.1952 17.8922 17.8797 17.5197 17.424 17.1476L17.4156 17.1407L17.4072 17.1336C16.8543 16.6685 16.1845 16.2915 15.3774 16.0145L15.3728 16.0129C14.4116 15.6795 13.2935 15.5 12 15.5C10.7065 15.5 9.5884 15.6795 8.62716 16.0129L8.62258 16.0145L8.62258 16.0145C7.81549 16.2915 7.1457 16.6685 6.5928 17.1336L6.58444 17.1407L6.57599 17.1476C6.12032 17.5197 5.8048 17.8922 5.59471 18.2567C5.56071 18.3309 5.5 18.5244 5.5 18.9149C5.5 19.1181 5.55224 19.2513 5.66199 19.3809C5.76716 19.493 5.82385 19.5 5.89831 19.5H18.1017C18.1635 19.5 18.1883 19.4893 18.1976 19.4849C18.2084 19.4799 18.2458 19.4607 18.3056 19.3923L18.3156 19.3809L18.3258 19.3696C18.4495 19.2338 18.5 19.1064 18.5 18.9149C18.5 18.5244 18.4393 18.3308 18.4053 18.2566ZM9.81534 10.2306C10.0437 10.6409 10.3346 10.9482 10.6934 11.1786L9.88305 12.4409L10.6934 11.1786C11.0321 11.396 11.3863 11.5 11.7896 11.5C12.193 11.5 12.5472 11.396 12.8859 11.1786C13.2421 10.9499 13.5216 10.647 13.7337 10.2434L13.7405 10.2306L13.7475 10.2178C13.9684 9.81667 14.0793 9.38847 14.0793 8.90816V7.09184C14.0793 6.5884 13.9655 6.15265 13.7475 5.75678L13.7405 5.74403L13.7337 5.73114C13.5246 5.33334 13.2533 5.04694 12.9125 4.83808L12.8991 4.82987L12.8859 4.82139C12.5472 4.60397 12.193 4.5 11.7896 4.5C11.3863 4.5 11.0321 4.60397 10.6934 4.82139L10.6802 4.82987L10.6668 4.83808C10.3232 5.04865 10.0405 5.33964 9.81535 5.74396C9.60927 6.14091 9.5 6.58179 9.5 7.09184V8.90816C9.5 9.39561 9.60669 9.82887 9.81534 10.2306Z" />
</svg>