<svg xmlns="http://www.w3.org/2000/svg" width="24" height="24" viewBox="0 0 24 24" >
<path d="M13.8237 15.5557C13.8754 15.5557 14.1849 15.2833 14.2881 15.2288C14.4945 15.1198 14.6493 15.0109 14.8041 14.9564C15.8876 14.466 16.8163 14.7929 18.0547 16.3731C18.8286 17.3538 19.035 18.1712 18.777 18.934C18.5706 19.4789 18.1063 19.9148 17.3839 20.3507C17.3323 20.4052 16.9195 20.6776 16.7647 20.7321C15.0105 21.8764 10.9343 19.2609 7.99333 14.6839C5.05231 10.1614 4.27837 5.31201 6.08425 4.11328L6.34223 3.94982L6.60022 3.78635C7.52896 3.18698 8.09651 2.91454 8.76727 3.02351C9.43803 3.13249 10.0572 3.67737 10.5216 4.65816C11.5535 6.72869 11.3471 7.70948 10.0056 8.63578C9.9024 8.69027 9.54123 8.90822 9.54123 8.96271C9.23164 9.18066 9.74761 10.6518 11.0891 12.6134C12.379 14.6839 13.4626 15.8282 13.8237 15.5557Z" />
</svg>