<svg width="24" height="24" viewBox="0 0 24 24" fill="none" xmlns="http://www.w3.org/2000/svg">
<path d="M12.3401 15.3582C12.3888 15.3582 12.6812 15.1009 12.7786 15.0494C12.9736 14.9465 13.1198 14.8436 13.2659 14.7921C14.2893 14.329 15.1664 14.6377 16.3359 16.1301C17.0669 17.0564 17.2618 17.8283 17.0182 18.5488C16.8232 19.0634 16.3847 19.4751 15.7025 19.8868C15.6537 19.9382 15.2639 20.1955 15.1177 20.247C13.4609 21.3277 9.61118 18.8575 6.83358 14.5348C4.05594 10.2636 3.325 5.68356 5.03055 4.55143L5.2742 4.39705L5.51785 4.24266C6.395 3.67659 6.93102 3.41928 7.56452 3.52221C8.19801 3.62513 8.78278 4.13974 9.22135 5.06604C10.196 7.02154 10.001 7.94784 8.73405 8.82268C8.63659 8.87414 8.29547 9.07998 8.29547 9.13145C8.00309 9.33729 8.49039 10.7267 9.75739 12.5793C10.9756 14.5348 11.999 15.6155 12.3401 15.3582Z" fill="#464E53"/>
<path fill-rule="evenodd" clip-rule="evenodd" d="M17.2039 4.80811C16.911 4.51522 16.4361 4.51522 16.1432 4.80811C15.8503 5.101 15.8503 5.57588 16.1432 5.86877L17.3702 7.09579H13.5107C13.0965 7.09579 12.7607 7.43158 12.7607 7.84579C12.7607 8.26001 13.0965 8.59579 13.5107 8.59579H17.3555L16.1432 9.80811C15.8503 10.101 15.8503 10.5759 16.1432 10.8688C16.4361 11.1617 16.911 11.1617 17.2039 10.8688L19.6332 8.43948C19.9651 8.10754 19.9651 7.56935 19.6332 7.2374L17.2039 4.80811Z" fill="#464E53"/>
</svg>
