<svg xmlns="http://www.w3.org/2000/svg" width="24" height="24" viewBox="0 0 24 24" >
<path fill-rule="evenodd" clip-rule="evenodd" d="M13.069 15.3875C12.9607 15.4716 12.8524 15.5557 12.8237 15.5557C12.4626 15.8282 11.379 14.6839 10.0891 12.6134C8.74761 10.6518 8.23164 9.18066 8.54123 8.96271C8.54123 8.90822 8.9024 8.69027 9.0056 8.63578C10.3471 7.70948 10.5535 6.72869 9.52157 4.65816C9.05719 3.67737 8.43803 3.13249 7.76727 3.02351C7.09651 2.91454 6.52896 3.18698 5.60022 3.78635L5.34223 3.94982L5.08425 4.11328C3.27837 5.31201 4.05231 10.1614 6.99333 14.6839C9.93433 19.2609 14.0105 21.8764 15.7647 20.7321C15.9195 20.6776 16.3323 20.4052 16.3839 20.3507C17.1063 19.9148 17.5706 19.4789 17.777 18.934C18.035 18.1712 17.8286 17.3538 17.0547 16.3731C15.8163 14.7929 14.8876 14.466 13.8041 14.9564C13.7041 14.9916 13.6042 15.0494 13.4904 15.1154C13.4279 15.1516 13.3612 15.1902 13.2881 15.2288C13.2422 15.253 13.1556 15.3203 13.069 15.3875ZM16.2612 4.8042C16.5541 4.51131 17.0289 4.51131 17.3218 4.8042L19.7511 7.23349C20.0831 7.56544 20.0831 8.10363 19.7511 8.43557L17.3218 10.8649C17.0289 11.1578 16.5541 11.1578 16.2612 10.8649C15.9683 10.572 15.9683 10.0971 16.2612 9.8042L17.4735 8.59189H13.7539C13.3397 8.59189 13.0039 8.2561 13.0039 7.84189C13.0039 7.42767 13.3397 7.09189 13.7539 7.09189H17.4882L16.2612 5.86486C15.9683 5.57197 15.9683 5.0971 16.2612 4.8042Z" />
</svg>