<svg width="24" height="24" viewBox="0 0 24 24"  xmlns="http://www.w3.org/2000/svg">
<path d="M13.7224 15.3582C13.7711 15.3582 14.0635 15.1009 14.1609 15.0494C14.3559 14.9465 14.5021 14.8436 14.6483 14.7921C15.6716 14.329 16.5487 14.6377 17.7183 16.1301C18.4492 17.0564 18.6441 17.8283 18.4005 18.5488C18.2056 19.0634 17.767 19.4751 17.0848 19.8868C17.036 19.9382 16.6462 20.1955 16.5 20.247C14.8432 21.3277 10.9935 18.8575 8.2159 14.5348C5.43826 10.2636 4.70732 5.68356 6.41287 4.55143L6.65653 4.39705L6.90018 4.24266C7.77733 3.67659 8.31334 3.41928 8.94684 3.52221C9.58034 3.62513 10.1651 4.13974 10.6037 5.06604C11.5783 7.02154 11.3833 7.94784 10.1164 8.82268C10.0189 8.87414 9.6778 9.07998 9.6778 9.13145C9.38541 9.33729 9.87272 10.7267 11.1397 12.5793C12.358 14.5348 13.3813 15.6155 13.7224 15.3582Z" />
</svg>
