<svg width="24" height="24" viewBox="0 0 24 24" fill="none" xmlns="http://www.w3.org/2000/svg">
<path fill-rule="evenodd" clip-rule="evenodd" d="M7 4C5.34315 4 4 5.34315 4 7V17C4 17.6293 4.19375 18.2133 4.52485 18.6957C5.31158 18.6624 6.09826 18.6286 6.88449 18.5896C7.048 18.5816 7.21099 18.5652 7.3775 18.5484H7.37751L7.37772 18.5484C7.45787 18.5403 7.53884 18.5321 7.62106 18.5248C7.63856 18.1791 7.65456 17.839 7.67041 17.5023L7.67041 17.5022C7.69123 17.0599 7.71178 16.6233 7.73508 16.1871C7.77727 15.3771 7.94488 14.6111 8.3833 13.9172C8.6598 13.4802 8.91378 13.0275 9.16765 12.5751L9.16768 12.5751L9.16771 12.575C9.26819 12.396 9.36865 12.2169 9.47049 12.0389C9.51267 11.9563 9.55073 11.8715 9.58451 11.7848C9.46255 11.7595 9.34555 11.7379 9.23205 11.7169L9.23202 11.7169L9.23201 11.7169C9.03248 11.68 8.84378 11.6451 8.65809 11.5961C8.56038 11.5623 8.45544 11.5583 8.35565 11.5847C8.25585 11.611 8.16535 11.6666 8.09482 11.7449C7.5666 12.2664 7.02867 12.7769 6.49065 13.2875L6.14848 13.6125C5.8087 13.9356 5.45637 13.9511 5.18956 13.6851C4.92275 13.419 4.94156 13.0161 5.24657 12.659C5.9383 11.8584 6.63022 11.0569 7.32233 10.2547C7.52072 10.0249 7.76245 9.87616 8.06347 9.8708C8.45125 9.86439 8.83908 9.85573 9.22692 9.84707L9.22701 9.84707C10.2788 9.82358 11.3307 9.8001 12.382 9.8214C13.2092 9.83807 13.9185 10.2059 14.3882 10.9736C14.5584 11.2519 14.7329 11.5273 14.9074 11.8027L14.9074 11.8028C15.0777 12.0716 15.248 12.3404 15.4144 12.612C15.4514 12.6846 15.507 12.745 15.5752 12.7862C15.6433 12.8274 15.7211 12.8479 15.7998 12.8453C16.6042 12.8709 17.4081 12.915 18.2119 12.9602C18.3627 12.9639 18.512 12.9933 18.6538 13.0471C18.9228 13.1607 19.0431 13.4613 18.9861 13.7898C18.9343 14.0773 18.7085 14.2743 18.4001 14.2903C18.0728 14.3073 17.7454 14.3227 17.4181 14.3382C16.7237 14.3709 16.0293 14.4037 15.3357 14.451C14.9486 14.4772 14.6573 14.3612 14.4236 14.0404C14.1681 13.6903 13.9055 13.3461 13.643 13.0022L13.492 12.8043C13.3039 12.5585 13.2292 12.5549 13.0895 12.8346C12.824 13.3708 12.5694 13.9126 12.3154 14.4531L12.1528 14.7986C12.0485 15.02 12.0856 15.2301 12.1996 15.4467C12.657 16.3109 13.1093 17.1781 13.5616 18.045L13.5618 18.0455L13.9567 18.8021C14.1655 19.2014 14.374 19.6007 14.5822 20H17C18.6569 20 20 18.6569 20 17V7C20 5.34315 18.6569 4 17 4H7ZM12.2979 20L10.483 17.1512C10.4084 17.0369 10.3335 16.9245 10.2523 16.8027L10.2523 16.8026L10.2522 16.8026C10.1956 16.7177 10.136 16.6282 10.0714 16.5304C10.0406 16.6218 10.0153 16.715 9.99556 16.8096C9.87583 17.7491 9.75896 18.689 9.64494 19.6294C9.62823 19.7644 9.59556 19.8885 9.54849 20H12.2979ZM13.7149 6.00179C12.7805 6.00179 12.0616 6.74988 12.0616 7.72413C12.0584 7.95171 12.0989 8.17765 12.1809 8.38857C12.2628 8.59949 12.3845 8.7911 12.5386 8.95204C12.6928 9.11299 12.8764 9.23999 13.0784 9.32553C13.2805 9.41107 13.4969 9.45341 13.7149 9.45004C13.9381 9.46065 14.1611 9.42391 14.3703 9.34205C14.5795 9.26019 14.7707 9.13491 14.9323 8.97376C15.0938 8.81262 15.2224 8.61896 15.3102 8.40448C15.3981 8.19001 15.4434 7.95917 15.4434 7.72591C15.4434 7.49266 15.3981 7.26182 15.3102 7.04735C15.2224 6.83287 15.0938 6.63921 14.9323 6.47807C14.7707 6.31692 14.5795 6.19164 14.3703 6.10978C14.1611 6.02791 13.9381 5.99118 13.7149 6.00179Z" fill="#464E53"/>
</svg>
