<svg width="24" height="24" viewBox="0 0 24 24" fill="none" xmlns="http://www.w3.org/2000/svg">
<path fill-rule="evenodd" clip-rule="evenodd" d="M18.0614 10.0504C19.6812 8.43061 19.6812 5.80442 18.0614 4.18463C16.4416 2.56485 13.8155 2.56485 12.1957 4.18464L5.82126 10.559C3.63697 12.7433 3.63697 16.2848 5.82127 18.4691C8.00556 20.6534 11.547 20.6534 13.7313 18.4691L18.7402 13.4601C19.0287 13.1717 19.0287 12.7039 18.7402 12.4155C18.4517 12.127 17.984 12.127 17.6956 12.4155L12.6866 17.4244C11.0793 19.0317 8.47327 19.0317 6.86592 17.4244C5.25858 15.8171 5.25858 13.211 6.86592 11.6037L13.2403 5.2293C14.2832 4.18646 15.9739 4.18646 17.0168 5.22929C18.0596 6.27213 18.0596 7.9629 17.0168 9.00574L10.7586 15.264C10.3518 15.6707 9.69233 15.6707 9.28558 15.264C8.87883 14.8572 8.87883 14.1977 9.28558 13.791L14.1783 8.89824C14.4668 8.60977 14.4668 8.14206 14.1783 7.85358C13.8899 7.56511 13.4221 7.56511 13.1337 7.85358L8.24092 12.7463C7.25722 13.73 7.25722 15.3249 8.24092 16.3086C9.22462 17.2923 10.8195 17.2923 11.8032 16.3086L18.0614 10.0504Z" fill="#464E53"/>
</svg>
