<svg width="18" height="18" viewBox="0 0 18 18" xmlns="http://www.w3.org/2000/svg">
<g id="icons/pin">
<g id="Union">
<mask id="path-1-inside-1_241_2072">
<path fill-rule="evenodd" clip-rule="evenodd" d="M9.56252 13.48C12.5938 13.1755 14.9602 10.6167 14.9602 7.50517C14.9602 4.18861 12.2716 1.5 8.95506 1.5C5.6385 1.5 2.94989 4.18861 2.94989 7.50517C2.94989 10.6474 5.36325 13.2259 8.43752 13.4884V15.9375C8.43752 16.2482 8.68935 16.5 9.00002 16.5C9.31068 16.5 9.56252 16.2482 9.56252 15.9375V13.48ZM11.8055 5.30327C11.8055 6.07713 11.1782 6.70447 10.4043 6.70447C9.63042 6.70447 9.00308 6.07713 9.00308 5.30327C9.00308 4.5294 9.63042 3.90206 10.4043 3.90206C11.1782 3.90206 11.8055 4.5294 11.8055 5.30327Z"/>
</mask>
<path fill-rule="evenodd" clip-rule="evenodd" d="M9.56252 13.48C12.5938 13.1755 14.9602 10.6167 14.9602 7.50517C14.9602 4.18861 12.2716 1.5 8.95506 1.5C5.6385 1.5 2.94989 4.18861 2.94989 7.50517C2.94989 10.6474 5.36325 13.2259 8.43752 13.4884V15.9375C8.43752 16.2482 8.68935 16.5 9.00002 16.5C9.31068 16.5 9.56252 16.2482 9.56252 15.9375V13.48ZM11.8055 5.30327C11.8055 6.07713 11.1782 6.70447 10.4043 6.70447C9.63042 6.70447 9.00308 6.07713 9.00308 5.30327C9.00308 4.5294 9.63042 3.90206 10.4043 3.90206C11.1782 3.90206 11.8055 4.5294 11.8055 5.30327Z"/>
<path d="M9.56252 13.48L9.46256 12.485L8.56252 12.5754V13.48H9.56252ZM8.43752 13.4884H9.43752V12.5701L8.52257 12.492L8.43752 13.4884ZM9.66247 14.475C13.1996 14.1197 15.9602 11.1354 15.9602 7.50517H13.9602C13.9602 10.0979 11.988 12.2313 9.46256 12.485L9.66247 14.475ZM15.9602 7.50517C15.9602 3.63632 12.8239 0.5 8.95506 0.5V2.5C11.7193 2.5 13.9602 4.74089 13.9602 7.50517H15.9602ZM8.95506 0.5C5.08621 0.5 1.94989 3.63632 1.94989 7.50517H3.94989C3.94989 4.74089 6.19078 2.5 8.95506 2.5V0.5ZM1.94989 7.50517C1.94989 11.1712 4.76521 14.1785 8.35246 14.4847L8.52257 12.492C5.96129 12.2733 3.94989 10.1236 3.94989 7.50517H1.94989ZM9.43752 15.9375V13.4884H7.43752V15.9375H9.43752ZM9.00002 15.5C9.24164 15.5 9.43752 15.6959 9.43752 15.9375H7.43752C7.43752 16.8004 8.13707 17.5 9.00002 17.5V15.5ZM8.56252 15.9375C8.56252 15.6959 8.75839 15.5 9.00002 15.5V17.5C9.86296 17.5 10.5625 16.8004 10.5625 15.9375H8.56252ZM8.56252 13.48V15.9375H10.5625V13.48H8.56252ZM10.4043 7.70447C11.7304 7.70447 12.8055 6.62942 12.8055 5.30327H10.8055C10.8055 5.52485 10.6259 5.70447 10.4043 5.70447V7.70447ZM8.00308 5.30327C8.00308 6.62942 9.07814 7.70447 10.4043 7.70447V5.70447C10.1827 5.70447 10.0031 5.52485 10.0031 5.30327H8.00308ZM10.4043 2.90206C9.07814 2.90206 8.00308 3.97712 8.00308 5.30327H10.0031C10.0031 5.08169 10.1827 4.90206 10.4043 4.90206V2.90206ZM12.8055 5.30327C12.8055 3.97712 11.7304 2.90206 10.4043 2.90206V4.90206C10.6259 4.90206 10.8055 5.08169 10.8055 5.30327H12.8055Z" mask="url(#path-1-inside-1_241_2072)"/>
</g>
</g>
</svg>
