<svg width="24" height="24" viewBox="0 0 24 24" fill="none" xmlns="http://www.w3.org/2000/svg">
<path fill-rule="evenodd" clip-rule="evenodd" d="M12 4.54286C7.88153 4.54286 4.54286 7.88153 4.54286 12C4.54286 16.1185 7.88153 19.4571 12 19.4571C16.1185 19.4571 19.4571 16.1185 19.4571 12C19.4571 7.88153 16.1185 4.54286 12 4.54286ZM3 12C3 7.02944 7.02944 3 12 3C16.9706 3 21 7.02944 21 12C21 16.9706 16.9706 21 12 21C7.02944 21 3 16.9706 3 12ZM6.59778 12C6.59778 11.5525 6.96058 11.1897 7.40811 11.1897H11.1897V7.40811C11.1897 6.96058 11.5525 6.59778 12 6.59778C12.4475 6.59778 12.8103 6.96058 12.8103 7.40811V11.1897H16.5919C17.0394 11.1897 17.4022 11.5525 17.4022 12C17.4022 12.4475 17.0394 12.8103 16.5919 12.8103H12.8103V16.5919C12.8103 17.0394 12.4475 17.4022 12 17.4022C11.5525 17.4022 11.1897 17.0394 11.1897 16.5919V12.8103H7.40811C6.96058 12.8103 6.59778 12.4475 6.59778 12Z" fill="#464E53"/>
</svg>
