<svg width="24" height="24" viewBox="0 0 24 24" fill="none" xmlns="http://www.w3.org/2000/svg">
<path fill-rule="evenodd" clip-rule="evenodd" d="M3 12C3 7.02944 7.02944 3 12 3C16.9706 3 21 7.02944 21 12C21 16.9706 16.9706 21 12 21C7.02944 21 3 16.9706 3 12ZM6.59766 12C6.59766 11.5525 6.96045 11.1897 7.40799 11.1897H11.1897V7.40811C11.1897 6.96058 11.5525 6.59778 12 6.59778C12.4476 6.59778 12.8104 6.96058 12.8104 7.40811V11.1897H16.5918C17.0393 11.1897 17.4021 11.5525 17.4021 12C17.4021 12.4475 17.0393 12.8103 16.5918 12.8103H12.8104V16.5919C12.8104 17.0394 12.4476 17.4022 12 17.4022C11.5525 17.4022 11.1897 17.0394 11.1897 16.5919V12.8103H7.40799C6.96045 12.8103 6.59766 12.4475 6.59766 12Z" fill="#464E53"/>
</svg>
