<svg width="24" height="24" viewBox="0 0 24 24" xmlns="http://www.w3.org/2000/svg">
<path fill-rule="evenodd" clip-rule="evenodd" d="M7.81112 6.55318C8.08522 6.86373 8.05567 7.33768 7.74512 7.61178C6.4084 8.79159 5.56714 10.5154 5.56714 12.4365C5.56714 15.9893 8.44718 18.8693 11.9999 18.8693C15.5526 18.8693 18.4326 15.9893 18.4326 12.4365C18.4326 10.5154 17.5914 8.79159 16.2547 7.61178C15.9441 7.33768 15.9146 6.86373 16.1887 6.55318C16.4628 6.24263 16.9367 6.21307 17.2473 6.48717C18.8929 7.93964 19.9326 10.0671 19.9326 12.4365C19.9326 16.8177 16.381 20.3693 11.9999 20.3693C7.61875 20.3693 4.06714 16.8177 4.06714 12.4365C4.06714 10.0671 5.10688 7.93964 6.75252 6.48717C7.06307 6.21307 7.53702 6.24263 7.81112 6.55318Z" />
<path fill-rule="evenodd" clip-rule="evenodd" d="M12.0581 3.58075C12.4999 3.58075 12.8581 3.93892 12.8581 4.38075V12.761C12.8581 13.2029 12.4999 13.561 12.0581 13.561C11.6162 13.561 11.2581 13.2029 11.2581 12.761V4.38075C11.2581 3.93892 11.6162 3.58075 12.0581 3.58075Z" />
</svg>
