<svg width="24" height="24" viewBox="0 0 24 24" fill="none" xmlns="http://www.w3.org/2000/svg">
<path fill-rule="evenodd" clip-rule="evenodd" d="M6 5.5H18C18.2761 5.5 18.5 5.72386 18.5 6V18C18.5 18.2761 18.2761 18.5 18 18.5H6C5.72386 18.5 5.5 18.2761 5.5 18V6C5.5 5.72386 5.72386 5.5 6 5.5ZM4 6C4 4.89543 4.89543 4 6 4H18C19.1046 4 20 4.89543 20 6V18C20 19.1046 19.1046 20 18 20H6C4.89543 20 4 19.1046 4 18V6ZM8 7C7.44772 7 7 7.44772 7 8V16C7 16.5523 7.44772 17 8 17H16C16.5523 17 17 16.5523 17 16V8C17 7.44772 16.5523 7 16 7H8Z" fill="#464E53"/>
</svg>
