<svg xmlns="http://www.w3.org/2000/svg" width="20" height="20" viewBox="0 0 20 20" >
<path d="M16.8797 10.0065C16.8797 6.21124 13.803 3.13457 10.0077 3.13457C6.21246 3.13457 3.13579 6.21124 3.13579 10.0065C3.13579 13.5976 5.89029 16.5453 9.40173 16.8521C9.73533 16.8812 10.0077 17.1499 10.0077 17.4848C10.0077 17.8197 9.73531 18.0935 9.40135 18.0687C5.21955 17.7587 1.9231 14.2675 1.9231 10.0065C1.9231 5.54149 5.54271 1.92188 10.0077 1.92188C14.4727 1.92188 18.0924 5.54149 18.0924 10.0065C18.0924 10.5247 18.0436 11.0315 17.9504 11.5226C17.8584 12.0079 17.3229 12.2378 16.8786 12.0218L13.9437 10.5951C13.6375 10.4463 13.5227 10.0682 13.6944 9.77418C13.8478 9.51158 14.1769 9.41036 14.4513 9.54136L16.8418 10.6823C16.8728 10.4172 16.8797 10.28 16.8797 10.0065Z" />
<path fill-rule="evenodd" clip-rule="evenodd" d="M10.0077 2.12298C5.6543 2.12298 2.12518 5.6521 2.12518 10.0055C2.12518 14.1599 5.33921 17.5639 9.41626 17.8662C9.62331 17.8815 9.80558 17.7111 9.80558 17.4838C9.80558 17.2647 9.62465 17.0734 9.3841 17.0524C5.76917 16.7366 2.93364 13.7023 2.93364 10.0055C2.93364 6.09861 6.1008 2.93144 10.0077 2.93144C13.9146 2.93144 17.0817 6.09861 17.0817 10.0055C17.0817 10.2859 17.0746 10.431 17.0425 10.7048L17.0096 10.9854L14.3642 9.72276C14.1846 9.63703 13.9693 9.70326 13.8689 9.87511C13.7565 10.0675 13.8316 10.3149 14.0321 10.4123L16.9669 11.839C17.3075 12.0046 17.6878 11.8214 17.7518 11.4839C17.8427 11.0052 17.8902 10.511 17.8902 10.0055C17.8902 5.6521 14.3611 2.12298 10.0077 2.12298ZM1.72095 10.0055C1.72095 5.42885 5.43105 1.71875 10.0077 1.71875C14.5843 1.71875 18.2944 5.42885 18.2944 10.0055C18.2944 10.5364 18.2445 11.0558 18.149 11.5592C18.0289 12.1924 17.3382 12.469 16.7902 12.2025L13.8553 10.7759C13.4432 10.5756 13.2887 10.0669 13.5199 9.67123C13.7263 9.31787 14.169 9.18168 14.5384 9.35795L16.6682 10.3745C16.6754 10.2635 16.6775 10.1566 16.6775 10.0055C16.6775 6.32186 13.6913 3.33568 10.0077 3.33568C6.32405 3.33568 3.33787 6.32186 3.33787 10.0055C3.33787 13.4908 6.01134 16.352 9.41929 16.6497C9.84595 16.687 10.2098 17.0331 10.2098 17.4838C10.2098 17.9262 9.84725 18.3035 9.38637 18.2693C5.09982 17.9514 1.72095 14.3732 1.72095 10.0055Z" />
<path d="M14.425 4.74321C11.5177 2.30366 7.18315 2.68288 4.7436 5.59023C2.30405 8.49757 2.68327 12.8321 5.59061 15.2716C8.34152 17.5799 12.3702 17.3646 14.8623 14.8719C15.0991 14.6351 15.48 14.5991 15.7365 14.8144C15.993 15.0296 16.0277 15.4143 15.7941 15.6542C12.8685 18.6584 8.07525 18.9395 4.81111 16.2006C1.3907 13.3305 0.944561 8.23112 3.81462 4.81072C6.68468 1.39032 11.7841 0.944177 15.2045 3.81424L14.425 4.74321Z" />
<path fill-rule="evenodd" clip-rule="evenodd" d="M3.96953 4.93916C1.17122 8.27406 1.60621 13.246 4.9411 16.0443C8.12357 18.7147 12.7971 18.4406 15.6493 15.5117C15.7942 15.363 15.7808 15.1139 15.6067 14.9677C15.4389 14.8269 15.176 14.8426 15.0053 15.0133C12.4397 17.5795 8.29268 17.8012 5.46077 15.425C2.46792 12.9137 2.07755 8.45169 4.58885 5.45883C7.0567 2.51776 11.4083 2.0899 14.3983 4.45916L14.9182 3.83962C11.5859 1.18349 6.7244 1.65604 3.96953 4.93916ZM4.68127 16.354C1.17535 13.4122 0.718059 8.18524 3.65987 4.67933C6.60168 1.17342 11.8286 0.716122 15.3345 3.65793L15.4893 3.78785L14.45 5.02649L14.2952 4.89657C11.4733 2.52877 7.2663 2.89684 4.89851 5.71867C2.53071 8.5405 2.89878 12.7475 5.72061 15.1153C8.39053 17.3557 12.3008 17.1468 14.7194 14.7275C15.0223 14.4246 15.5212 14.3684 15.8665 14.6581C16.2054 14.9424 16.2614 15.4627 15.9389 15.7938C12.9401 18.8731 8.02709 19.1614 4.68127 16.354Z" />
</svg>