<svg xmlns="http://www.w3.org/2000/svg" width="24" height="24" viewBox="0 0 24 24" >
<path fill-rule="evenodd" clip-rule="evenodd" d="M6.75 5.5C6.05964 5.5 5.5 6.05964 5.5 6.75V17.25C5.5 17.9404 6.05964 18.5 6.75 18.5H17.25C17.9404 18.5 18.5 17.9404 18.5 17.25V12C18.5 11.5858 18.8358 11.25 19.25 11.25C19.6642 11.25 20 11.5858 20 12V17.25C20 18.7688 18.7688 20 17.25 20H6.75C5.23122 20 4 18.7688 4 17.25V6.75C4 5.23122 5.23122 4 6.75 4H12C12.4142 4 12.75 4.33579 12.75 4.75C12.75 5.16421 12.4142 5.5 12 5.5H6.75Z" />
<path fill-rule="evenodd" clip-rule="evenodd" d="M20.7689 3.22022C21.0618 3.51311 21.0618 3.98799 20.7689 4.28088L10.0448 15.0052C9.75187 15.2981 9.27699 15.2981 8.9841 15.0052C8.6912 14.7123 8.6912 14.2374 8.9841 13.9445L19.7083 3.22022C20.0012 2.92733 20.476 2.92733 20.7689 3.22022Z" />
</svg>