<svg xmlns="http://www.w3.org/2000/svg" width="16" height="16" viewBox="0 0 16 16" >
<path fill-rule="evenodd" clip-rule="evenodd" d="M4.49935 3.66602C4.03911 3.66602 3.66602 4.03911 3.66602 4.49935V11.4993C3.66602 11.9596 4.03911 12.3327 4.49935 12.3327H11.4993C11.9596 12.3327 12.3327 11.9596 12.3327 11.4993V7.99935C12.3327 7.72321 12.5565 7.49935 12.8327 7.49935C13.1088 7.49935 13.3327 7.72321 13.3327 7.99935V11.4993C13.3327 12.5119 12.5119 13.3327 11.4993 13.3327H4.49935C3.48683 13.3327 2.66602 12.5119 2.66602 11.4993V4.49935C2.66602 3.48683 3.48683 2.66602 4.49935 2.66602H7.99935C8.27549 2.66602 8.49935 2.88987 8.49935 3.16602C8.49935 3.44216 8.27549 3.66602 7.99935 3.66602H4.49935Z" />
<path fill-rule="evenodd" clip-rule="evenodd" d="M13.8456 2.14641C14.0409 2.34167 14.0409 2.65825 13.8456 2.85351L6.69618 10.003C6.50092 10.1983 6.18433 10.1983 5.98907 10.003C5.79381 9.80778 5.79381 9.49119 5.98907 9.29593L13.1385 2.14641C13.3338 1.95114 13.6504 1.95114 13.8456 2.14641Z" />
</svg>