<svg width="24" height="24" viewBox="0 0 24 24" fill="none" xmlns="http://www.w3.org/2000/svg">
<path d="M4 9C4 8.44772 4.44772 8 5 8H7.61626C7.86331 8 8.1016 7.90856 8.28523 7.74329L11.6648 4.70166C12.1796 4.23832 13 4.60367 13 5.29629V18.7037C13 19.3963 12.1796 19.7617 11.6648 19.2983L8.28523 16.2567C8.1016 16.0914 7.86331 16 7.61626 16H5C4.44772 16 4 15.5523 4 15V9Z" fill="#464E53"/>
<path fill-rule="evenodd" clip-rule="evenodd" d="M15.0251 13.7678C14.7322 14.0606 14.7322 14.5355 15.0251 14.8284C15.318 15.1213 15.7928 15.1213 16.0857 14.8284L17.8535 13.0607L19.6213 14.8284C19.9142 15.1213 20.389 15.1213 20.6819 14.8284C20.9748 14.5355 20.9748 14.0607 20.6819 13.7678L18.9142 12L20.6819 10.2322C20.9748 9.93933 20.9748 9.46445 20.6819 9.17156C20.389 8.87867 19.9142 8.87867 19.6213 9.17156L17.8535 10.9393L16.0857 9.17157C15.7928 8.87868 15.318 8.87868 15.0251 9.17157C14.7322 9.46447 14.7322 9.93934 15.0251 10.2322L16.7928 12L15.0251 13.7678Z" fill="#464E53"/>
</svg>
