<svg width="24" height="24" viewBox="0 0 24 24" fill="none" xmlns="http://www.w3.org/2000/svg">
<path d="M4 9C4 8.44772 4.44772 8 5 8H7.61626C7.86331 8 8.1016 7.90856 8.28523 7.74329L11.6648 4.70166C12.1796 4.23832 13 4.60367 13 5.29629V18.7037C13 19.3963 12.1796 19.7617 11.6648 19.2983L8.28523 16.2567C8.1016 16.0914 7.86331 16 7.61626 16H5C4.44772 16 4 15.5523 4 15V9Z" fill="#464E53"/>
<path fill-rule="evenodd" clip-rule="evenodd" d="M16.75 14.75C16.75 15.1642 17.0858 15.5 17.5 15.5C17.9142 15.5 18.25 15.1642 18.25 14.75V12.75H20.25C20.6642 12.75 21 12.4142 21 12C21 11.5858 20.6642 11.25 20.25 11.25H18.25V9.25C18.25 8.83579 17.9142 8.5 17.5 8.5C17.0858 8.5 16.75 8.83579 16.75 9.25V11.25H14.75C14.3358 11.25 14 11.5858 14 12C14 12.4142 14.3358 12.75 14.75 12.75H16.75V14.75Z" fill="#464E53"/>
</svg>
