<svg xmlns="http://www.w3.org/2000/svg" width="20" height="20" viewBox="0 0 20 20" >
<path  clip-rule="evenodd" d="M10.0001 2.91797C6.08806 2.91797 2.91675 6.08928 2.91675 10.0013C2.91675 10.3465 2.63693 10.6263 2.29175 10.6263C1.94657 10.6263 1.66675 10.3465 1.66675 10.0013C1.66675 5.39893 5.39771 1.66797 10.0001 1.66797C14.6025 1.66797 18.3334 5.39893 18.3334 10.0013C18.3334 14.6037 14.6025 18.3346 10.0001 18.3346C9.6549 18.3346 9.37508 18.0548 9.37508 17.7096C9.37508 17.3645 9.6549 17.0846 10.0001 17.0846C13.9121 17.0846 17.0834 13.9133 17.0834 10.0013C17.0834 6.08928 13.9121 2.91797 10.0001 2.91797Z" />
</svg>