<svg width="24" height="24" viewBox="0 0 24 24" fill="none" xmlns="http://www.w3.org/2000/svg">
<path d="M11.1623 4.78337C11.5657 4.19481 12.4343 4.19481 12.8377 4.78337L15.0191 7.96641C15.1512 8.15908 15.3456 8.30035 15.5697 8.36639L19.271 9.45748C19.9554 9.65924 20.2239 10.4853 19.7887 11.0508L17.4356 14.1091C17.2932 14.2943 17.2189 14.5228 17.2253 14.7563L17.3314 18.6137C17.351 19.327 16.6483 19.8375 15.976 19.5984L12.3402 18.3056C12.1202 18.2273 11.8798 18.2273 11.6598 18.3056L8.02396 19.5984C7.35168 19.8375 6.64897 19.327 6.66858 18.6137L6.77467 14.7563C6.78109 14.5228 6.70683 14.2943 6.56439 14.1091L4.21126 11.0508C3.77615 10.4853 4.04456 9.65924 4.72897 9.45749L8.43032 8.36639C8.65437 8.30035 8.8488 8.15908 8.98085 7.96641L11.1623 4.78337Z" fill="#464E53"/>
</svg>
