<svg width="24" height="24" viewBox="0 0 24 24"  xmlns="http://www.w3.org/2000/svg">
<circle cx="12" cy="12" r="4" />
<path fill-rule="evenodd" clip-rule="evenodd" d="M12 17.5C12.4142 17.5 12.75 17.835 12.75 18.2483L12.75 20.2517C12.75 20.665 12.4142 21 12 21C11.5858 21 11.25 20.665 11.25 20.2517L11.25 18.2483C11.25 17.835 11.5858 17.5 12 17.5Z" />
<path fill-rule="evenodd" clip-rule="evenodd" d="M12 3C12.4142 3 12.75 3.33504 12.75 3.74833L12.75 5.75167C12.75 6.16496 12.4142 6.5 12 6.5C11.5858 6.5 11.25 6.16496 11.25 5.75167L11.25 3.74833C11.25 3.33504 11.5858 3 12 3Z" />
<path fill-rule="evenodd" clip-rule="evenodd" d="M8.11091 15.8891C8.4038 16.182 8.40433 16.6563 8.11209 16.9486L6.69551 18.3651C6.40327 18.6574 5.92892 18.6568 5.63603 18.3639C5.34314 18.0711 5.34261 17.5967 5.63485 17.3045L7.05143 15.8879C7.34367 15.5957 7.81801 15.5962 8.11091 15.8891Z" />
<path fill-rule="evenodd" clip-rule="evenodd" d="M18.364 5.63605C18.6569 5.92894 18.6574 6.40329 18.3651 6.69553L16.9486 8.11211C16.6563 8.40435 16.182 8.40382 15.8891 8.11093C15.5962 7.81803 15.5957 7.34369 15.8879 7.05145L17.3045 5.63487C17.5967 5.34263 18.0711 5.34316 18.364 5.63605Z" />
<path fill-rule="evenodd" clip-rule="evenodd" d="M15.8891 15.889C16.182 15.5961 16.6563 15.5956 16.9486 15.8878L18.3652 17.3044C18.6574 17.5966 18.6569 18.071 18.364 18.3638C18.0711 18.6567 17.5967 18.6573 17.3045 18.365L15.8879 16.9485C15.5957 16.6562 15.5962 16.1819 15.8891 15.889Z" />
<path fill-rule="evenodd" clip-rule="evenodd" d="M5.63605 5.63604C5.92894 5.34315 6.40329 5.34262 6.69553 5.63486L8.11211 7.05144C8.40435 7.34368 8.40382 7.81802 8.11093 8.11092C7.81803 8.40381 7.34369 8.40434 7.05145 8.1121L5.63487 6.69552C5.34263 6.40328 5.34316 5.92894 5.63605 5.63604Z" />
<path fill-rule="evenodd" clip-rule="evenodd" d="M17.5 12C17.5 11.5858 17.835 11.25 18.2483 11.25L20.2517 11.25C20.665 11.25 21 11.5858 21 12C21 12.4142 20.665 12.75 20.2517 12.75L18.2483 12.75C17.835 12.75 17.5 12.4142 17.5 12Z" />
<path fill-rule="evenodd" clip-rule="evenodd" d="M3 12C3 11.5858 3.33504 11.25 3.74833 11.25L5.75167 11.25C6.16496 11.25 6.5 11.5858 6.5 12C6.5 12.4142 6.16496 12.75 5.75167 12.75L3.74833 12.75C3.33504 12.75 3 12.4142 3 12Z" />
</svg>
