<svg xmlns="http://www.w3.org/2000/svg" width="24" height="24" viewBox="0 0 24 24" >
<path fill-rule="evenodd" clip-rule="evenodd" d="M11.5 2C10.3954 2 9.5 2.89543 9.5 4H14.5C14.5 2.89543 13.6046 2 12.5 2H11.5ZM2 6C2 5.44772 2.44772 5 3 5H21C21.5523 5 22 5.44772 22 6C22 6.55228 21.5523 7 21 7H18.9679L18.5805 19.0642C18.5459 20.1432 17.6611 21 16.5815 21H7.45471C6.37728 21 5.49349 20.1465 5.45592 19.0697L5.03485 7H3C2.44772 7 2 6.55228 2 6ZM9.11459 16.8558L8.88694 9.60783C8.87394 9.19382 9.19893 8.84517 9.61283 8.8291C10.0267 8.81303 10.3728 9.13562 10.3858 9.54963L10.6135 16.7976C10.6265 17.2116 10.3015 17.5603 9.88757 17.5764C9.47366 17.5924 9.12759 17.2698 9.11459 16.8558ZM13.6145 9.54963L13.3869 16.7976C13.3739 17.2116 13.6989 17.5603 14.1128 17.5764C14.5267 17.5924 14.8727 17.2698 14.8857 16.8558L15.1134 9.60783C15.1264 9.19382 14.8014 8.84517 14.3875 8.8291C13.9736 8.81303 13.6275 9.13562 13.6145 9.54963Z" />
</svg>