<svg width="24" height="24" viewBox="0 0 24 24"  xmlns="http://www.w3.org/2000/svg">
<path fill-rule="evenodd" clip-rule="evenodd" d="M11.5 3C10.3954 3 9.5 3.89543 9.5 5H14.5C14.5 3.89543 13.6046 3 12.5 3H11.5ZM3 7C3 6.44772 3.44772 6 4 6H20C20.5523 6 21 6.44772 21 7C21 7.55228 20.5523 8 20 8H18.4644L18.0689 19.0714C18.0305 20.1475 17.1469 21 16.0702 21H7.92388C6.84949 21 5.96705 20.1511 5.92539 19.0776L5.49544 8H4C3.44772 8 3 7.55228 3 7ZM9.11456 17.8558L8.88691 10.6078C8.87391 10.1938 9.1989 9.84517 9.6128 9.8291C10.0267 9.81303 10.3728 10.1356 10.3858 10.5496L10.6134 17.7976C10.6264 18.2116 10.3014 18.5603 9.88753 18.5764C9.47363 18.5924 9.12756 18.2698 9.11456 17.8558ZM13.6145 10.5496L13.3868 17.7976C13.3738 18.2116 13.6988 18.5603 14.1127 18.5764C14.5266 18.5924 14.8727 18.2698 14.8857 17.8558L15.1133 10.6078C15.1264 10.1938 14.8014 9.84517 14.3875 9.8291C13.9736 9.81303 13.6275 10.1356 13.6145 10.5496Z" />
</svg>
