<svg width="20" height="20" viewBox="0 0 20 20" xmlns="http://www.w3.org/2000/svg">
<path fill-rule="evenodd" clip-rule="evenodd" d="M9.58333 2.5C8.66286 2.5 7.91667 3.24619 7.91667 4.16667H12.0833C12.0833 3.24619 11.3371 2.5 10.4167 2.5H9.58333ZM2.5 5.83333C2.5 5.3731 2.8731 5 3.33333 5H16.6667C17.1269 5 17.5 5.3731 17.5 5.83333C17.5 6.29357 17.1269 6.66667 16.6667 6.66667H15.387L15.0689 15.5714C15.0305 16.6475 14.1469 17.5 13.0702 17.5H6.92388C5.84949 17.5 4.96705 16.6511 4.92539 15.5776L4.57953 6.66667H3.33333C2.8731 6.66667 2.5 6.29357 2.5 5.83333ZM7.59546 14.8799L7.40576 8.83986C7.39492 8.49485 7.66575 8.20431 8.01067 8.19092C8.35559 8.17752 8.64398 8.44635 8.65482 8.79136L8.84452 14.8314C8.85536 15.1764 8.58453 15.4669 8.23961 15.4803C7.89469 15.4937 7.6063 15.2249 7.59546 14.8799ZM11.3454 8.79136L11.1557 14.8314C11.1449 15.1764 11.4157 15.4669 11.7606 15.4803C12.1055 15.4937 12.3939 15.2249 12.4048 14.8799L12.5945 8.83986C12.6053 8.49485 12.3345 8.20431 11.9895 8.19092C11.6446 8.17752 11.3562 8.44635 11.3454 8.79136Z" />
</svg>
