<svg width="24" height="24" viewBox="0 0 24 24"  xmlns="http://www.w3.org/2000/svg">
<path fill-rule="evenodd" clip-rule="evenodd" d="M18.5 6.5H5.5C5.22386 6.5 5 6.72386 5 7V17C5 17.2761 5.22386 17.5 5.5 17.5H18.5C18.7761 17.5 19 17.2761 19 17V7C19 6.72386 18.7761 6.5 18.5 6.5ZM5.5 5C4.39543 5 3.5 5.89543 3.5 7V17C3.5 18.1046 4.39543 19 5.5 19H18.5C19.6046 19 20.5 18.1046 20.5 17V7C20.5 5.89543 19.6046 5 18.5 5H5.5Z" />
<path d="M9.5 15.0184V8.98159C9.5 8.61236 9.8833 8.38088 10.1914 8.56407L15.2672 11.5825C15.5776 11.7671 15.5776 12.2329 15.2672 12.4175L10.1914 15.4359C9.8833 15.6191 9.5 15.3876 9.5 15.0184Z" />
</svg>
