<svg xmlns="http://www.w3.org/2000/svg" width="24" height="24" viewBox="0 0 24 24" >
<path fill-rule="evenodd" clip-rule="evenodd" d="M19.9985 5.5H3.99854C3.72239 5.5 3.49854 5.72386 3.49854 6V18C3.49854 18.2761 3.72239 18.5 3.99854 18.5H19.9985C20.2747 18.5 20.4985 18.2761 20.4985 18V6C20.4985 5.72386 20.2747 5.5 19.9985 5.5ZM3.99854 4C2.89397 4 1.99854 4.89543 1.99854 6V18C1.99854 19.1046 2.89397 20 3.99854 20H19.9985C21.1031 20 21.9985 19.1046 21.9985 18V6C21.9985 4.89543 21.1031 4 19.9985 4H3.99854Z" />
<path d="M10.2032 15.8734C9.66982 16.1806 9.00391 15.7956 9.00391 15.1802V8.91601C9.00391 8.30777 9.6558 7.92202 10.189 8.21476L15.7571 11.2722C16.3039 11.5724 16.3119 12.3553 15.7713 12.6667L10.2032 15.8734Z" />
</svg>
