<svg width="16" height="18" viewBox="0 0 16 18" xmlns="http://www.w3.org/2000/svg">
<g id="Group 237777">
<path id="Subtract" fill-rule="evenodd" clip-rule="evenodd" d="M13.0677 4.11225C13.0678 4.11227 13.0678 4.1123 13.0678 4.11232L3.79471 13.3831C3.79469 13.3831 3.79466 13.383 3.79464 13.383L13.0677 4.11225ZM11.6397 2.59418C10.5105 1.71783 9.09231 1.19611 7.5523 1.19611C3.86722 1.19611 0.879883 4.18345 0.879883 7.86852C0.879883 9.40793 1.4012 10.8256 2.27693 11.9546L11.6397 2.59418ZM4.53499 13.8213C5.44112 14.2815 6.46642 14.5409 7.5523 14.5409C11.2374 14.5409 14.2247 11.5536 14.2247 7.86852C14.2247 6.78324 13.9656 5.75847 13.5059 4.85271L4.53499 13.8213Z"/>
<path id="Line 20 (Stroke)" fill-rule="evenodd" clip-rule="evenodd" d="M1.14122 15.1289C0.89714 14.8848 0.89714 14.489 1.14122 14.245L13.9753 1.41408C14.2193 1.17001 14.6151 1.17001 14.8591 1.41408C15.1032 1.65816 15.1032 2.05389 14.8591 2.29797L2.0251 15.1289C1.78102 15.3729 1.3853 15.3729 1.14122 15.1289Z"/>
<path id="Rectangle 81" d="M6.97754 11.9858C6.97754 11.6406 7.25736 11.3608 7.60254 11.3608V11.3608C7.94772 11.3608 8.22754 11.6406 8.22754 11.9858V16.4044C8.22754 16.7496 7.94772 17.0294 7.60254 17.0294V17.0294C7.25736 17.0294 6.97754 16.7496 6.97754 16.4044V11.9858Z"/>
</g>
</svg>
