<svg xmlns="http://www.w3.org/2000/svg" width="24" height="24" viewBox="0 0 24 24" >
<path fill-rule="evenodd" clip-rule="evenodd" d="M20.252 20C19.8377 20 19.502 19.6645 19.502 19.2505L19.502 4.74945C19.502 4.33554 19.8377 4 20.252 4C20.6662 4 21.002 4.33554 21.002 4.74945L21.002 19.2505C21.002 19.6645 20.6662 20 20.252 20Z" />
<path fill-rule="evenodd" clip-rule="evenodd" d="M11.0551 19.7917C11.348 20.0846 11.8229 20.0846 12.1158 19.7917C12.4087 19.4988 12.4087 19.0239 12.1158 18.731L6.14646 12.7617L16.2694 12.7614C16.6748 12.7614 17.0034 12.4256 17.0034 12.0114C17.0034 11.5972 16.6748 11.2614 16.2694 11.2614L6.14649 11.2617L12.1158 5.29235C12.4087 4.99946 12.4087 4.52459 12.1158 4.23169C11.8229 3.9388 11.348 3.9388 11.0551 4.23169L4.5126 10.7742C3.82918 11.4577 3.82918 12.5657 4.5126 13.2491L11.0551 19.7917Z" />
</svg>