<svg xmlns="http://www.w3.org/2000/svg" width="24" height="24" viewBox="0 0 24 24">
<path clip-rule="evenodd" d="M20.252 20.1914C19.8377 20.1914 19.502 19.8556 19.502 19.4414L19.502 4.92969C19.502 4.51547 19.8377 4.17969 20.252 4.17969C20.6662 4.17969 21.002 4.51547 21.002 4.92969L21.002 19.4414C21.002 19.8556 20.6662 20.1914 20.252 20.1914Z" />
<path clip-rule="evenodd" d="M11.0551 19.7914C11.348 20.0843 11.8229 20.0843 12.1158 19.7914C12.4087 19.4985 12.4087 19.0236 12.1158 18.7307L6.14646 12.7614L16.2694 12.7611C16.6748 12.7611 17.0034 12.4253 17.0034 12.0111C17.0034 11.5969 16.6748 11.2611 16.2694 11.2611L6.14649 11.2614L12.1158 5.29205C12.4087 4.99915 12.4087 4.52428 12.1158 4.23139C11.8229 3.9385 11.348 3.9385 11.0551 4.23139L4.5126 10.7739C3.82918 11.4573 3.82918 12.5654 4.5126 13.2488L11.0551 19.7914Z"/>
</svg>