<svg xmlns="http://www.w3.org/2000/svg" width="24" height="24" viewBox="0 0 24 24" >
<path fill-rule="evenodd" clip-rule="evenodd" d="M3.88889 5C2.84568 5 2 5.84568 2 6.88889V17.1111C2 18.1543 2.84568 19 3.88889 19H15.8611C16.9043 19 17.75 18.1543 17.75 17.1111V15.3089L21.0178 17.1244C21.4585 17.3692 22 17.0505 22 16.5464V7.46025C22 6.95616 21.4585 6.63753 21.0178 6.88233L17.75 8.69779V6.88889C17.75 5.84568 16.9043 5 15.8611 5H3.88889ZM5.5 10C6.32843 10 7 9.32843 7 8.5C7 7.67157 6.32843 7 5.5 7C4.67157 7 4 7.67157 4 8.5C4 9.32843 4.67157 10 5.5 10Z" />
</svg>
