<svg width="24" height="24" viewBox="0 0 24 24" fill="none" xmlns="http://www.w3.org/2000/svg">
<path fill-rule="evenodd" clip-rule="evenodd" d="M7.24619 19H14.3611C15.4043 19 16.25 18.1543 16.25 17.1111V15.3089L19.5178 17.1244C19.9585 17.3692 20.5 17.0505 20.5 16.5464V7.46025C20.5 6.95616 19.9585 6.63753 19.5178 6.88233L19.1714 7.0748L7.24619 19ZM15.9249 5.82909C15.5851 5.32872 15.0115 5 14.3611 5H5.38889C4.34568 5 3.5 5.84568 3.5 6.88889V17.1111C3.5 17.4409 3.58453 17.751 3.73312 18.0209L15.9249 5.82909Z" fill="#464E53"/>
<path fill-rule="evenodd" clip-rule="evenodd" d="M3.80694 20.1909C3.51405 19.8981 3.51405 19.4232 3.80694 19.1303L19.1323 3.80906C19.4252 3.51616 19.9001 3.51616 20.1929 3.80906C20.4858 4.10195 20.4858 4.57682 20.1929 4.86972L4.8676 20.1909C4.57471 20.4838 4.09983 20.4838 3.80694 20.1909Z" fill="#464E53"/>
</svg>
