<svg width="24" height="24" viewBox="0 0 24 24" fill="none" xmlns="http://www.w3.org/2000/svg">
<path fill-rule="evenodd" clip-rule="evenodd" d="M3.42008 6.88889C3.42008 5.84568 4.26577 5 5.30897 5H14.2812C15.3244 5 16.1701 5.84568 16.1701 6.88889V8.77778L19.4379 6.96232C19.8786 6.71751 20.4201 7.03615 20.4201 7.54023V12.4833C19.8849 11.0349 18.4917 10.0024 16.8573 10.0024C14.9659 10.0024 13.3975 11.3853 13.1081 13.1952C12.4004 13.6659 11.9337 14.4702 11.9337 15.385V18.4727C11.9337 18.6533 11.9519 18.8296 11.9866 19H5.30881C4.26561 19 3.41992 18.1543 3.41992 17.1111L3.42008 6.88889ZM8.00008 8.25C8.00008 8.94036 7.44044 9.5 6.75008 9.5C6.05973 9.5 5.50008 8.94036 5.50008 8.25C5.50008 7.55964 6.05973 7 6.75008 7C7.44044 7 8.00008 7.55964 8.00008 8.25Z" fill="#464E53"/>
<path fill-rule="evenodd" clip-rule="evenodd" d="M16.8572 11.0519C15.366 11.0519 14.1572 12.2607 14.1572 13.7519V13.9198C13.494 14.0749 13 14.67 13 15.3805V18.5519C13 19.3803 13.6716 20.0519 14.5 20.0519H19.2143C20.0427 20.0519 20.7143 19.3803 20.7143 18.5519V15.3805C20.7143 14.67 20.2204 14.0749 19.5572 13.9198V13.7519C19.5572 12.2607 18.3484 11.0519 16.8572 11.0519ZM18.7858 13.8805V13.7519C18.7858 12.6868 17.9223 11.8233 16.8572 11.8233C15.7921 11.8233 14.9286 12.6868 14.9286 13.7519V13.8805H18.7858ZM17.2428 16.863C17.4735 16.7297 17.6286 16.4803 17.6286 16.1947C17.6286 15.7687 17.2832 15.4233 16.8572 15.4233C16.4311 15.4233 16.0858 15.7687 16.0858 16.1947C16.0858 16.4803 16.2409 16.7295 16.4714 16.8629V18.1233C16.4714 18.3363 16.6441 18.509 16.8571 18.509C17.0701 18.509 17.2428 18.3363 17.2428 18.1233V16.863Z" fill="#464E53"/>
</svg>
