<svg width="24" height="24" viewBox="0 0 24 24" fill="none" xmlns="http://www.w3.org/2000/svg">
<path fill-rule="evenodd" clip-rule="evenodd" d="M5.38889 5C4.34568 5 3.5 5.84568 3.5 6.88889V17.1111C3.5 18.1543 4.34568 19 5.38889 19H14.3611C15.4043 19 16.25 18.1543 16.25 17.1111V15.3056L19.5178 17.121C19.9585 17.3658 20.5 17.0472 20.5 16.5431V7.45692C20.5 6.95283 19.9585 6.6342 19.5178 6.87901L16.25 8.69446V6.88889C16.25 5.84568 15.4043 5 14.3611 5H5.38889ZM7.25 9.91669C7.94036 9.91669 8.5 9.35704 8.5 8.66669C8.5 7.97633 7.94036 7.41669 7.25 7.41669C6.55964 7.41669 6 7.97633 6 8.66669C6 9.35704 6.55964 9.91669 7.25 9.91669Z" fill="#464E53"/>
</svg>
