<svg width="24" height="24" viewBox="0 0 24 24" fill="none" xmlns="http://www.w3.org/2000/svg">
<path fill-rule="evenodd" clip-rule="evenodd" d="M5.30881 5C4.26561 5 3.41992 5.84568 3.41992 6.88889L3.49991 17.1111C3.49991 18.1543 4.34559 19 5.3888 19H14.361C15.4042 19 16.2499 18.1543 16.2499 17.1111V15.3089L19.5177 17.1244C19.9584 17.3692 20.4999 17.0505 20.4999 16.5464V7.46025C20.4999 6.95616 19.9584 6.63753 19.5177 6.88233L16.2499 8.69779L16.1699 6.88889C16.1699 5.84568 15.3242 5 14.281 5H5.30881ZM9.41339 8.46878C9.70628 8.17589 10.1812 8.17589 10.474 8.46878L13.4042 11.399C13.7362 11.7309 13.7362 12.2691 13.4042 12.6011L10.474 15.5312C10.1811 15.8241 9.70621 15.8241 9.41332 15.5312C9.12043 15.2383 9.12043 14.7635 9.41332 14.4706L11.1266 12.7573H6.78253C6.3503 12.7573 5.99991 12.4216 5.99991 12.0073C5.99991 11.5931 6.3503 11.2573 6.78253 11.2573H11.1413L9.41339 9.52944C9.12049 9.23655 9.12049 8.76168 9.41339 8.46878Z" fill="#464E53"/>
</svg>
