<svg xmlns="http://www.w3.org/2000/svg" width="20" height="20" viewBox="0 0 20 20" >
<path fill-rule="evenodd" clip-rule="evenodd" d="M1.66675 5.74204C1.66675 4.87271 2.37149 4.16797 3.24082 4.16797H13.2177C14.087 4.16797 14.7917 4.87271 14.7917 5.74204V7.24946L17.5149 5.73658C17.8821 5.53257 18.3334 5.7981 18.3334 6.21818V13.79C18.3334 14.2101 17.8821 14.4756 17.5149 14.2716L14.7917 12.7587V14.2606C14.7917 15.1299 14.087 15.8346 13.2177 15.8346H3.24082C2.37148 15.8346 1.66675 15.1299 1.66675 14.2606V5.74204ZM8.34198 6.63632C8.68708 6.63624 8.96677 6.91593 8.96669 7.26103L8.96615 9.58177L11.2869 9.58123C11.632 9.58115 11.9117 9.86084 11.9116 10.2059C11.9115 10.551 11.6317 10.8309 11.2866 10.8309L8.96585 10.8315L8.96531 13.1522C8.96523 13.4973 8.68541 13.7771 8.34031 13.7772C7.99521 13.7773 7.71552 13.4976 7.7156 13.1525L7.71615 10.8318L5.39542 10.8323C5.05032 10.8324 4.77063 10.5527 4.77071 10.2076C4.77079 9.86251 5.05062 9.58269 5.39571 9.58261L7.71644 9.58207L7.71698 7.26132C7.71706 6.91623 7.99689 6.6364 8.34198 6.63632Z" />
</svg>