<svg xmlns="http://www.w3.org/2000/svg" width="24" height="24" viewBox="0 0 24 24" >
<path fill-rule="evenodd" clip-rule="evenodd" d="M2 6.88892C2 5.84571 2.84568 5.00003 3.88889 5.00003H15.8611C16.9043 5.00003 17.75 5.84571 17.75 6.88892V8.69782L21.0178 6.88236C21.4585 6.63756 22 6.95619 22 7.46028V16.5465C22 17.0506 21.4585 17.3692 21.0178 17.1244L17.75 15.3089V17.1111C17.75 18.1543 16.9043 19 15.8611 19H3.88889C2.84568 19 2 18.1543 2 17.1111V6.88892ZM10.0103 7.96206C10.4244 7.96196 10.76 8.29759 10.7599 8.7117L10.7593 11.4966L13.5442 11.4959C13.9583 11.4958 14.2939 11.8315 14.2938 12.2456C14.2937 12.6597 13.9579 12.9955 13.5438 12.9956L10.7589 12.9962L10.7583 15.7811C10.7582 16.1952 10.4224 16.531 10.0083 16.5311C9.59416 16.5312 9.25853 16.1956 9.25862 15.7815L9.25928 12.9966L6.47441 12.9972C6.06029 12.9973 5.72466 12.6617 5.72476 12.2476C5.72485 11.8335 6.06064 11.4977 6.47476 11.4976L9.25963 11.4969L9.26028 8.71206C9.26038 8.29794 9.59616 7.96215 10.0103 7.96206Z" />
</svg>