<svg xmlns="http://www.w3.org/2000/svg" width="24" height="24" viewBox="0 0 24 24" >
<path fill-rule="evenodd" clip-rule="evenodd" d="M20.5 12C20.5 16.6944 16.6944 20.5 12 20.5C7.30558 20.5 3.5 16.6944 3.5 12C3.5 7.30558 7.30558 3.5 12 3.5C16.6944 3.5 20.5 7.30558 20.5 12ZM22 12C22 17.5228 17.5228 22 12 22C6.47715 22 2 17.5228 2 12C2 6.47715 6.47715 2 12 2C17.5228 2 22 6.47715 22 12ZM14.1995 5.80628C13.9047 5.51525 13.4268 5.51525 13.1321 5.80628C12.8373 6.0973 12.8373 6.56915 13.1321 6.86018C15.9138 9.60672 15.9138 14.0597 13.1321 16.8063C12.8373 17.0973 12.8373 17.5691 13.1321 17.8602C13.4268 18.1512 13.9047 18.1512 14.1995 17.8602C17.5706 14.5316 17.5706 9.13487 14.1995 5.80628ZM10.3848 7.74118C10.6795 7.45016 11.1574 7.45016 11.4521 7.74118C13.741 10.0011 13.741 13.6652 11.4521 15.9251C11.1574 16.2161 10.6795 16.2161 10.3848 15.9251C10.09 15.6341 10.09 15.1622 10.3848 14.8712C12.0841 13.1933 12.0841 10.473 10.3848 8.79508C10.09 8.50406 10.09 8.03221 10.3848 7.74118ZM8.62915 9.36173C8.3344 9.0707 7.85652 9.0707 7.56177 9.36173C7.26702 9.65275 7.26702 10.1246 7.56177 10.4156C8.3547 11.1985 8.3547 12.4679 7.56177 13.2508C7.26702 13.5418 7.26702 14.0137 7.56177 14.3047C7.85652 14.5957 8.3344 14.5957 8.62915 14.3047C10.0116 12.9397 10.0116 10.7267 8.62915 9.36173Z" />
</svg>