<svg width="24" height="24" viewBox="0 0 24 24"  xmlns="http://www.w3.org/2000/svg">
<path fill-rule="evenodd" clip-rule="evenodd" d="M12 4.54286C7.88153 4.54286 4.54286 7.88153 4.54286 12C4.54286 16.1185 7.88153 19.4571 12 19.4571C16.1185 19.4571 19.4571 16.1185 19.4571 12C19.4571 7.88153 16.1185 4.54286 12 4.54286ZM3 12C3 7.02944 7.02944 3 12 3C16.9706 3 21 7.02944 21 12C21 16.9706 16.9706 21 12 21C7.02944 21 3 16.9706 3 12Z" />
<path fill-rule="evenodd" clip-rule="evenodd" d="M13.2937 6.75077C13.5885 6.45974 14.0663 6.45974 14.3611 6.75077C17.2973 9.64986 17.2973 14.3502 14.3611 17.2493C14.0663 17.5403 13.5885 17.5403 13.2937 17.2493C12.999 16.9583 12.999 16.4864 13.2937 16.1954C15.6404 13.8784 15.6404 10.1217 13.2937 7.80466C12.999 7.51364 12.999 7.04179 13.2937 6.75077Z" />
<path fill-rule="evenodd" clip-rule="evenodd" d="M10.6113 8.41208C10.9061 8.12106 11.384 8.12106 11.6787 8.41208C13.6856 10.3936 13.6856 13.6063 11.6787 15.5878C11.384 15.8789 10.9061 15.8789 10.6113 15.5878C10.3166 15.2968 10.3166 14.825 10.6113 14.5339C12.0287 13.1345 12.0287 10.8655 10.6113 9.46598C10.3166 9.17495 10.3166 8.70311 10.6113 8.41208Z" />
<path fill-rule="evenodd" clip-rule="evenodd" d="M7.7666 9.8035C8.06135 9.51247 8.53923 9.51247 8.83398 9.8035C10.0626 11.0166 10.0626 12.9835 8.83398 14.1966C8.53923 14.4876 8.06135 14.4876 7.7666 14.1966C7.47185 13.9055 7.47186 13.4337 7.7666 13.1427C8.40574 12.5116 8.40574 11.4885 7.7666 10.8574C7.47186 10.5664 7.47186 10.0945 7.7666 9.8035Z" />
</svg>
