<svg xmlns="http://www.w3.org/2000/svg" width="24" height="24" viewBox="0 0 24 24" >
<path fill-rule="evenodd" clip-rule="evenodd" d="M5.56383 3.44264C4.97805 2.85686 4.0283 2.85686 3.44251 3.44264C2.85673 4.02843 2.85673 4.97818 3.44251 5.56396L9.87856 12L3.44253 18.436C2.85674 19.0218 2.85674 19.9716 3.44253 20.5574C4.02832 21.1432 4.97807 21.1432 5.56385 20.5574L11.9999 14.1213L18.4359 20.5574C19.0217 21.1431 19.9714 21.1431 20.5572 20.5574C21.143 19.9716 21.143 19.0218 20.5572 18.436L14.1212 12L20.5573 5.56397C21.143 4.97818 21.143 4.02843 20.5573 3.44265C19.9715 2.85686 19.0217 2.85686 18.4359 3.44265L11.9999 9.87869L5.56383 3.44264Z" />
</svg>