<svg xmlns="http://www.w3.org/2000/svg" width="24" height="24" viewBox="0 0 24 24" >
<path fill-rule="evenodd" clip-rule="evenodd" d="M3.22266 19.7016C2.92564 19.9987 2.92564 20.4802 3.22266 20.7772C3.51968 21.0743 4.00124 21.0743 4.29826 20.7772L11.9998 13.0756L19.7015 20.7772C19.9985 21.0742 20.4801 21.0742 20.7771 20.7772C21.0741 20.4802 21.0741 19.9986 20.7771 19.7016L13.0754 12L20.777 4.29838C21.074 4.00136 21.074 3.5198 20.777 3.22278C20.48 2.92576 19.9984 2.92576 19.7014 3.22278L11.9998 10.9244L4.29825 3.22283C4.00123 2.92581 3.51967 2.92581 3.22265 3.22283C2.92563 3.51985 2.92563 4.00142 3.22265 4.29844L10.9242 12L3.22266 19.7016Z" />
</svg>