<svg width="24" height="24" viewBox="0 0 24 24" fill="none" xmlns="http://www.w3.org/2000/svg">
<path fill-rule="evenodd" clip-rule="evenodd" d="M5.59088 4.46967C5.29798 4.17678 4.82311 4.17678 4.53022 4.46967C4.23732 4.76256 4.23732 5.23744 4.53022 5.53033L10.9999 12L4.53022 18.4697C4.23732 18.7626 4.23732 19.2375 4.53022 19.5303C4.82311 19.8232 5.29798 19.8232 5.59088 19.5303L12.0606 13.0607L18.4696 19.4697C18.7624 19.7626 19.2373 19.7626 19.5302 19.4697C19.8231 19.1768 19.8231 18.7019 19.5302 18.409L13.1212 12L19.5302 5.59101C19.8231 5.29811 19.8231 4.82324 19.5302 4.53035C19.2373 4.23745 18.7625 4.23745 18.4696 4.53035L12.0606 10.9393L5.59088 4.46967Z" fill="#464E53"/>
</svg>
