<svg xmlns="http://www.w3.org/2000/svg" width="24" height="24" viewBox="0 0 24 24" >
<path fill-rule="evenodd" clip-rule="evenodd" d="M12 3.5C7.30558 3.5 3.5 7.30558 3.5 12C3.5 16.6944 7.30558 20.5 12 20.5C16.6944 20.5 20.5 16.6944 20.5 12C20.5 7.30558 16.6944 3.5 12 3.5ZM12 2C6.47715 2 2 6.47715 2 12C2 17.5228 6.47715 22 12 22C17.5228 22 22 17.5228 22 12C22 6.47715 17.5228 2 12 2ZM7.46967 7.28058C7.76256 6.98769 8.23744 6.98769 8.53033 7.28058L12 10.7503L15.4697 7.28058C15.7626 6.98769 16.2374 6.98769 16.5303 7.28058C16.8232 7.57348 16.8232 8.04835 16.5303 8.34124L13.0607 11.8109L16.5303 15.2806C16.8232 15.5735 16.8232 16.0484 16.5303 16.3412C16.2374 16.6341 15.7626 16.6341 15.4697 16.3412L12 12.8716L8.53033 16.3412C8.23744 16.6341 7.76256 16.6341 7.46967 16.3412C7.17678 16.0484 7.17678 15.5735 7.46967 15.2806L10.9393 11.8109L7.46967 8.34124C7.17678 8.04835 7.17678 7.57348 7.46967 7.28058Z" />
</svg>