<svg width="24" height="24" viewBox="0 0 24 24" fill="none" xmlns="http://www.w3.org/2000/svg">
<path fill-rule="evenodd" clip-rule="evenodd" d="M12 3C7.02944 3 3 7.02944 3 12C3 16.9706 7.02944 21 12 21C16.9706 21 21 16.9706 21 12C21 7.02944 16.9706 3 12 3ZM15.8198 15.8198C15.5034 16.1363 14.9903 16.1363 14.6738 15.8198L11.9999 13.1459L9.3258 15.8199C9.00934 16.1364 8.49627 16.1364 8.17981 15.8199C7.86336 15.5035 7.86336 14.9904 8.17981 14.674L10.8539 11.9999L8.17992 9.32593C7.86346 9.00947 7.86346 8.4964 8.17992 8.17994C8.49637 7.86349 9.00945 7.86349 9.3259 8.17994L11.9999 10.8539L14.6737 8.18005C14.9902 7.8636 15.5033 7.8636 15.8197 8.18005C16.1362 8.49651 16.1362 9.00958 15.8197 9.32604L13.1459 11.9999L15.8198 14.6739C16.1363 14.9903 16.1363 15.5034 15.8198 15.8198Z" fill="#464E53"/>
</svg>
